<svg width="17" height="17" viewBox="0 0 17 17" fill="none" xmlns="http://www.w3.org/2000/svg">
<g clip-path="url(#clip0_3_362)">
<g clip-path="url(#clip1_3_362)">
<mask id="mask0_3_362" style="mask-type:luminance" maskUnits="userSpaceOnUse" x="0" y="0" width="17" height="17">
<path d="M16.724 0.560059H0.724045V16.5601H16.724V0.560059Z" fill="white"/>
</mask>
<g mask="url(#mask0_3_362)">
<path d="M12.266 8.56307L6.28004 2.57807C6.19856 2.49679 6.13405 2.40012 6.09027 2.29368C6.04649 2.18724 6.02432 2.07316 6.02504 1.95807C6.02504 1.72407 6.11504 1.50507 6.28004 1.34007L6.80404 0.81607C6.88524 0.734404 6.98187 0.669711 7.08831 0.62576C7.19476 0.581809 7.30888 0.559479 7.42404 0.56007C7.65804 0.56007 7.87804 0.65007 8.04204 0.81607L15.169 7.94207C15.2506 8.02347 15.3152 8.1203 15.359 8.22692C15.4028 8.33354 15.4249 8.44781 15.424 8.56307C15.424 8.79907 15.334 9.01907 15.169 9.18507L8.04904 16.3051C7.96776 16.3866 7.87109 16.4511 7.76465 16.4948C7.65821 16.5386 7.54413 16.5608 7.42904 16.5601C7.31423 16.5603 7.2005 16.5379 7.09442 16.4939C6.98835 16.45 6.89203 16.3855 6.81104 16.3041L6.28704 15.7801C6.12302 15.6158 6.03089 15.3932 6.03089 15.1611C6.03089 14.9289 6.12302 14.7063 6.28704 14.5421L12.266 8.56307Z" fill="#FF9233"/>
</g>
</g>
</g>
<defs>
<clipPath id="clip0_3_362">
<rect width="16" height="16" fill="white" transform="translate(0.724045 0.560059)"/>
</clipPath>
<clipPath id="clip1_3_362">
<rect width="16" height="16" fill="white" transform="translate(0.724045 0.560059)"/>
</clipPath>
</defs>
</svg>
