<svg width="235" height="275" viewBox="0 0 235 275" fill="none" xmlns="http://www.w3.org/2000/svg">
<rect x="1.40207" y="1.59998" width="232.593" height="271.47" rx="32" stroke="#1A599D" stroke-width="2"/>
<path d="M24.0541 89.6V79.8H31.2221V80.682H25.0761V83.888H28.2821C29.4394 83.888 30.3167 84.126 30.9141 84.602C31.5207 85.0686 31.8241 85.7593 31.8241 86.674C31.8241 87.6166 31.4974 88.34 30.8441 88.844C30.2001 89.348 29.2714 89.6 28.0581 89.6H24.0541ZM25.0761 88.774H28.0441C28.9494 88.774 29.6307 88.6013 30.0881 88.256C30.5547 87.9013 30.7881 87.388 30.7881 86.716C30.7881 85.3813 29.8734 84.714 28.0441 84.714H25.0761V88.774ZM32.7703 89.6L37.2503 79.8H38.2723L42.7523 89.6H41.6603L37.5443 80.402H37.9643L33.8483 89.6H32.7703ZM34.5343 86.982L34.8423 86.142H40.5403L40.8483 86.982H34.5343ZM51.7982 79.8H52.8202V89.6H51.7982V79.8ZM45.6662 89.6H44.6302V79.8H45.6662V89.6ZM51.8962 85.078H45.5542V84.168H51.8962V85.078ZM62.8343 89.6L59.0683 84.714L59.9083 84.21L64.0243 89.6H62.8343ZM56.1283 89.6V79.8H57.1363V89.6H56.1283ZM56.8283 85.106V84.196H59.8943V85.106H56.8283ZM59.9923 84.812L59.0403 84.644L62.6943 79.8H63.8143L59.9923 84.812ZM69.9009 89.684C69.1636 89.684 68.4776 89.5626 67.8429 89.32C67.2176 89.068 66.6716 88.718 66.2049 88.27C65.7476 87.8126 65.3882 87.2853 65.1269 86.688C64.8749 86.0813 64.7489 85.4186 64.7489 84.7C64.7489 83.9813 64.8749 83.3233 65.1269 82.726C65.3882 82.1193 65.7476 81.592 66.2049 81.144C66.6716 80.6866 67.2176 80.3366 67.8429 80.094C68.4682 79.842 69.1542 79.716 69.9009 79.716C70.6382 79.716 71.3196 79.842 71.9449 80.094C72.5702 80.3366 73.1116 80.682 73.5689 81.13C74.0356 81.578 74.3949 82.1053 74.6469 82.712C74.9082 83.3186 75.0389 83.9813 75.0389 84.7C75.0389 85.4186 74.9082 86.0813 74.6469 86.688C74.3949 87.2946 74.0356 87.822 73.5689 88.27C73.1116 88.718 72.5702 89.068 71.9449 89.32C71.3196 89.5626 70.6382 89.684 69.9009 89.684ZM69.9009 88.76C70.4889 88.76 71.0302 88.662 71.5249 88.466C72.0289 88.2606 72.4629 87.976 72.8269 87.612C73.2002 87.2386 73.4896 86.8093 73.6949 86.324C73.9002 85.8293 74.0029 85.288 74.0029 84.7C74.0029 84.112 73.9002 83.5753 73.6949 83.09C73.4896 82.5953 73.2002 82.166 72.8269 81.802C72.4629 81.4286 72.0289 81.144 71.5249 80.948C71.0302 80.7426 70.4889 80.64 69.9009 80.64C69.3129 80.64 68.7669 80.7426 68.2629 80.948C67.7589 81.144 67.3202 81.4286 66.9469 81.802C66.5829 82.166 66.2936 82.5953 66.0789 83.09C65.8736 83.5753 65.7709 84.112 65.7709 84.7C65.7709 85.2786 65.8736 85.8153 66.0789 86.31C66.2936 86.8046 66.5829 87.2386 66.9469 87.612C67.3202 87.976 67.7589 88.2606 68.2629 88.466C68.7669 88.662 69.3129 88.76 69.9009 88.76ZM77.5111 89.6V79.8H78.3651L82.8451 87.444H82.3971L86.8351 79.8H87.6891V89.6H86.6951V81.354H86.9331L82.8451 88.354H82.3551L78.2391 81.354H78.5051V89.6H77.5111ZM89.5496 89.6L94.0296 79.8H95.0516L99.5316 89.6H98.4396L94.3236 80.402H94.7436L90.6276 89.6H89.5496ZM91.3136 86.982L91.6216 86.142H97.3196L97.6276 86.982H91.3136ZM102.863 89.6V80.416L103.143 80.696H99.4194V79.8H107.329V80.696H103.619L103.885 80.416V89.6H102.863ZM113.25 83.3C114.407 83.3 115.289 83.5613 115.896 84.084C116.512 84.5973 116.82 85.3626 116.82 86.38C116.82 87.4346 116.493 88.2373 115.84 88.788C115.186 89.3293 114.253 89.6 113.04 89.6H109.148V79.8H110.17V83.3H113.25ZM113.012 88.774C113.917 88.774 114.603 88.5733 115.07 88.172C115.546 87.7706 115.784 87.1826 115.784 86.408C115.784 85.6333 115.55 85.064 115.084 84.7C114.617 84.3266 113.926 84.14 113.012 84.14H110.17V88.774H113.012ZM118.514 89.6V79.8H119.536V89.6H118.514Z" fill="white"/>
<g clip-path="url(#clip0_3_44)">
<g clip-path="url(#clip1_3_44)">
<g clip-path="url(#clip2_3_44)">
<path fill-rule="evenodd" clip-rule="evenodd" d="M196.567 57.8776C196.567 57.2075 201.943 42.3173 202.56 40.7244L205.956 31.2482C206.205 30.4441 206.006 30.5245 207.212 30.5245C209.103 30.5245 210.428 31.8493 210.428 33.7408V80.0312H196.564V57.8737L196.567 57.8776ZM173.916 37.4547C173.916 38.2932 174.51 38.4463 175.153 38.4463C175.945 38.4463 176.78 35.368 176.995 34.717L178.495 30.5245H203.991L195.744 53.7156C195.553 54.2785 194.584 56.8093 194.584 57.1349V80.0312H170.819V51.4413C171.366 51.5868 172.048 52.3067 173.418 52.3067H179.977C181.493 52.3067 182.699 51.0048 182.699 49.0905C182.699 47.7274 181.336 46.3682 179.977 46.3682H174.778V43.0256C174.778 39.6524 171.592 36.4668 168.219 36.4668H159.554C156.181 36.4668 152.995 39.6524 152.995 43.0256V57.5062C152.995 58.8693 154.358 60.2285 155.718 60.2285L156.954 60.106V80.035C156.951 81.1147 156.859 82.0145 157.946 82.0145C158.543 82.0145 158.934 81.6239 158.934 81.0228V45.3765C158.934 44.7792 158.543 44.3887 157.946 44.3887C156.621 44.3887 156.954 46.0235 156.954 47.3598L156.947 57.2536C156.755 58.6702 154.975 58.4519 154.975 57.1387V43.7722C154.975 40.6173 157.073 38.4501 160.297 38.4501C162.705 38.4501 168.204 38.1323 169.953 38.9441C170.489 39.1929 171.255 39.7635 171.615 40.2535C172.79 41.8387 172.798 42.5202 172.798 45.1353C172.798 48.8416 171.875 48.3822 178.618 48.3515C179.054 48.3515 180.72 48.1677 180.72 49.3432C180.72 49.8332 180.157 50.3348 179.606 50.3348H174.035C172.549 50.3348 171.362 49.4733 170.995 48.2979C170.543 46.8583 171.427 44.3925 169.823 44.3925C169.226 44.3925 168.835 44.7831 168.835 45.3803V81.2756C168.835 81.5742 169.279 82.0183 169.578 82.0183H211.412C212.013 82.0183 212.403 81.6277 212.403 81.0267V33.1281C212.403 30.8461 210.106 28.5488 207.824 28.5488H177.749C176.776 28.5488 176.658 29.5826 176.401 30.2986C176.053 31.2711 173.908 36.9608 173.908 37.4623L173.916 37.4547Z" fill="#CACACA"/>
<path fill-rule="evenodd" clip-rule="evenodd" d="M176.765 43.2701C176.765 44.6868 178.365 44.836 178.828 43.4768L181.964 34.483H197.682L196.797 36.941C195.568 40.6741 193.749 45.4142 192.405 49.2583C192.115 50.093 191.797 50.9392 191.51 51.7049C191.337 52.1606 191.253 52.5205 191.069 52.9952C190.889 53.4624 190.74 53.7955 190.625 54.2856C189.986 54.2856 173.549 54.1783 173.108 54.3431C172.178 54.6991 172.499 56.2651 173.296 56.2651H191.368C192.007 56.2651 192.203 55.9167 192.379 55.4189L200.155 33.4913C200.155 32.894 199.765 32.5034 199.163 32.5034H181.091C180.609 32.5034 180.345 33.0701 180.207 33.4759C180.05 33.9354 179.885 34.3643 179.717 34.839L176.761 43.2701H176.765Z" fill="#CACACA"/>
<path fill-rule="evenodd" clip-rule="evenodd" d="M159.933 28.7874C159.791 28.056 160.297 26.6509 161.013 25.9081C162.579 24.277 164.964 24.1583 166.526 25.6592C168.153 27.2252 168.276 29.6105 166.771 31.1727C165.692 32.2984 164.061 32.8382 162.449 32.2065C161.453 31.816 160.347 30.6864 160.105 29.5991L159.929 28.7835L159.933 28.7874ZM157.954 28.0446C157.954 29.9169 158.26 31.3795 159.657 32.777C163.417 36.5407 169.834 33.715 169.834 28.7874V28.0446C169.834 25.3912 167.039 22.6 164.39 22.6H163.398C160.749 22.6 157.954 25.395 157.954 28.0446Z" fill="#CACACA"/>
<path fill-rule="evenodd" clip-rule="evenodd" d="M162.904 60.9659V81.2625C162.904 82.2579 164.884 82.2579 164.884 81.2625V60.9659C164.884 59.9703 162.904 59.9703 162.904 60.9659Z" fill="#CACACA"/>
<path fill-rule="evenodd" clip-rule="evenodd" d="M184.687 59.2359C184.687 60.53 186.168 60.2276 187.658 60.2276C188.986 60.2276 188.986 58.2481 187.658 58.2481C186.168 58.2481 184.687 57.9417 184.687 59.2359Z" fill="#CACACA"/>
<path fill-rule="evenodd" clip-rule="evenodd" d="M174.785 59.2359C174.785 60.53 176.267 60.2276 177.757 60.2276C179.085 60.2276 179.085 58.2481 177.757 58.2481C176.267 58.2481 174.785 57.9417 174.785 59.2359Z" fill="#CACACA"/>
</g>
</g>
</g>
<path d="M39.2981 144.176C36.2261 144.176 33.5541 143.536 31.2821 142.256C29.0421 140.976 27.3141 139.104 26.0981 136.64C24.8821 134.176 24.2741 131.136 24.2741 127.52C24.2741 123.648 24.9941 120.368 26.4341 117.68C27.9061 114.992 29.9221 112.944 32.4821 111.536C35.0741 110.128 38.0501 109.424 41.4101 109.424C43.2021 109.424 44.9141 109.616 46.5461 110C48.1781 110.384 49.5861 110.96 50.7701 111.728L47.8901 117.44C46.9621 116.8 45.9701 116.368 44.9141 116.144C43.8581 115.888 42.7541 115.76 41.6021 115.76C38.6901 115.76 36.3861 116.64 34.6901 118.4C32.9941 120.16 32.1461 122.768 32.1461 126.224C32.1461 126.8 32.1461 127.44 32.1461 128.144C32.1781 128.848 32.2741 129.552 32.4341 130.256L30.2741 128.24C30.8821 126.992 31.6661 125.952 32.6261 125.12C33.5861 124.256 34.7221 123.616 36.0341 123.2C37.3781 122.752 38.8501 122.528 40.4501 122.528C42.6261 122.528 44.5781 122.96 46.3061 123.824C48.0341 124.688 49.4101 125.904 50.4341 127.472C51.4901 129.04 52.0181 130.88 52.0181 132.992C52.0181 135.264 51.4421 137.248 50.2901 138.944C49.1701 140.608 47.6501 141.904 45.7301 142.832C43.8421 143.728 41.6981 144.176 39.2981 144.176ZM38.8661 138.368C39.9541 138.368 40.9141 138.176 41.7461 137.792C42.6101 137.376 43.2821 136.784 43.7621 136.016C44.2421 135.248 44.4821 134.368 44.4821 133.376C44.4821 131.84 43.9541 130.624 42.8981 129.728C41.8741 128.8 40.4981 128.336 38.7701 128.336C37.6181 128.336 36.6101 128.56 35.7461 129.008C34.8821 129.424 34.1941 130.016 33.6821 130.784C33.2021 131.52 32.9621 132.384 32.9621 133.376C32.9621 134.336 33.2021 135.2 33.6821 135.968C34.1621 136.704 34.8341 137.296 35.6981 137.744C36.5621 138.16 37.6181 138.368 38.8661 138.368ZM54.0486 143.6V138.56L67.0086 126.32C68.0326 125.392 68.7846 124.56 69.2646 123.824C69.7446 123.088 70.0646 122.416 70.2246 121.808C70.4166 121.2 70.5126 120.64 70.5126 120.128C70.5126 118.784 70.0486 117.76 69.1206 117.056C68.2246 116.32 66.8966 115.952 65.1366 115.952C63.7286 115.952 62.4166 116.224 61.2006 116.768C60.0166 117.312 59.0086 118.16 58.1766 119.312L52.5126 115.664C53.7926 113.744 55.5846 112.224 57.8886 111.104C60.1926 109.984 62.8486 109.424 65.8566 109.424C68.3526 109.424 70.5286 109.84 72.3846 110.672C74.2726 111.472 75.7286 112.608 76.7526 114.08C77.8086 115.552 78.3366 117.312 78.3366 119.36C78.3366 120.448 78.1926 121.536 77.9046 122.624C77.6486 123.68 77.1046 124.8 76.2726 125.984C75.4726 127.168 74.2886 128.496 72.7206 129.968L61.9686 140.096L60.4806 137.264H79.4406V143.6H54.0486ZM96.0691 144.176C93.2531 144.176 90.7891 143.76 88.6771 142.928C86.5651 142.064 84.9171 140.864 83.7331 139.328C82.5491 137.76 81.9571 135.936 81.9571 133.856C81.9571 131.776 82.5331 130.016 83.6851 128.576C84.8691 127.104 86.5171 126 88.6291 125.264C90.7411 124.496 93.2211 124.112 96.0691 124.112C98.9491 124.112 101.445 124.496 103.557 125.264C105.701 126 107.349 127.104 108.501 128.576C109.685 130.016 110.277 131.776 110.277 133.856C110.277 135.936 109.685 137.76 108.501 139.328C107.317 140.864 105.653 142.064 103.509 142.928C101.397 143.76 98.9171 144.176 96.0691 144.176ZM96.0691 138.464C98.0211 138.464 99.5571 138.032 100.677 137.168C101.829 136.304 102.405 135.12 102.405 133.616C102.405 132.112 101.829 130.944 100.677 130.112C99.5571 129.248 98.0211 128.816 96.0691 128.816C94.1491 128.816 92.6291 129.248 91.5091 130.112C90.3891 130.944 89.8291 132.112 89.8291 133.616C89.8291 135.12 90.3891 136.304 91.5091 137.168C92.6291 138.032 94.1491 138.464 96.0691 138.464ZM96.0691 128.048C93.4771 128.048 91.2051 127.696 89.2531 126.992C87.3331 126.288 85.8291 125.264 84.7411 123.92C83.6851 122.544 83.1571 120.912 83.1571 119.024C83.1571 117.04 83.7011 115.344 84.7891 113.936C85.8771 112.496 87.3971 111.392 89.3491 110.624C91.3011 109.824 93.5411 109.424 96.0691 109.424C98.6611 109.424 100.917 109.824 102.837 110.624C104.789 111.392 106.309 112.496 107.397 113.936C108.517 115.344 109.077 117.04 109.077 119.024C109.077 120.912 108.533 122.544 107.445 123.92C106.389 125.264 104.885 126.288 102.933 126.992C100.981 127.696 98.6931 128.048 96.0691 128.048ZM96.0691 123.488C97.7011 123.488 98.9811 123.12 99.9091 122.384C100.869 121.648 101.349 120.64 101.349 119.36C101.349 118.016 100.853 116.976 99.8611 116.24C98.9011 115.504 97.6371 115.136 96.0691 115.136C94.5331 115.136 93.2851 115.504 92.3251 116.24C91.3651 116.976 90.8851 118.016 90.8851 119.36C90.8851 120.64 91.3491 121.648 92.2771 122.384C93.2051 123.12 94.4691 123.488 96.0691 123.488Z" fill="white"/>
<g clip-path="url(#clip3_3_44)">
<g clip-path="url(#clip4_3_44)">
<g clip-path="url(#clip5_3_44)">
<path d="M27.5417 196.97C22.3405 190.997 5.86979 190.861 -1.71541 191.54C-11.6665 201.741 -32.2892 225.335 -35.1715 238.1C-38.7745 254.056 -28.995 280.306 -24.8773 294.203C-20.7597 308.1 -8.40663 303.983 4.97581 313.762C18.3583 323.542 56.9615 345.159 65.1969 346.703C73.4322 348.248 71.3734 346.703 107.403 348.248C136.227 349.483 207.257 351.508 239.169 352.365L244.316 294.203L249.463 249.938L232.992 194.252C214.788 188.143 200.484 196.97 187.481 204.433C174.478 211.897 164.725 187.464 148.472 195.609C132.217 203.754 117.264 200.361 110.762 195.609C104.261 190.858 97.1089 190.179 95.1584 195.609C93.2079 201.039 82.8054 217.33 75.6536 218.008C68.5018 218.687 57.4492 199.682 52.2478 203.076C47.0466 206.469 34.0433 204.436 27.5417 196.97Z" fill="url(#paint0_linear_3_44)" stroke="white" stroke-width="3.08826"/>
</g>
</g>
</g>
<defs>
<linearGradient id="paint0_linear_3_44" x1="106.373" y1="151.114" x2="106.373" y2="243.762" gradientUnits="userSpaceOnUse">
<stop stop-color="#CACACA"/>
<stop offset="1" stop-color="#D5D5D5" stop-opacity="0"/>
</linearGradient>
<clipPath id="clip0_3_44">
<rect width="60" height="60" fill="white" transform="translate(152.995 22.6)"/>
</clipPath>
<clipPath id="clip1_3_44">
<rect width="60" height="60" fill="white" transform="translate(152.995 22.6)"/>
</clipPath>
<clipPath id="clip2_3_44">
<rect width="60" height="60" fill="white" transform="translate(152.995 22.6)"/>
</clipPath>
<clipPath id="clip3_3_44">
<rect width="230.593" height="86.47" fill="white" transform="translate(2.40207 185.6)"/>
</clipPath>
<clipPath id="clip4_3_44">
<rect width="230.59" height="86.47" fill="white" transform="translate(2.40207 185.6)"/>
</clipPath>
<clipPath id="clip5_3_44">
<rect width="230.59" height="79.2653" fill="white" transform="translate(2.40207 189.202)"/>
</clipPath>
</defs>
</svg>
