<svg width="236" height="275" viewBox="0 0 236 275" fill="none" xmlns="http://www.w3.org/2000/svg">
<rect x="1.80957" y="1.59998" width="232.593" height="271.47" rx="32" stroke="#1A599D" stroke-width="2"/>
<path d="M26.4076 89.6V80.416L26.6876 80.696H22.9636V79.8H30.8736V80.696H27.1636L27.4296 80.416V89.6H26.4076ZM33.616 84.182H38.796V85.064H33.616V84.182ZM33.728 88.704H39.622V89.6H32.692V79.8H39.412V80.696H33.728V88.704ZM41.9206 89.6V79.8H45.5886C46.4192 79.8 47.1332 79.9353 47.7306 80.206C48.3279 80.4673 48.7852 80.85 49.1026 81.354C49.4292 81.8486 49.5926 82.4506 49.5926 83.16C49.5926 83.8506 49.4292 84.448 49.1026 84.952C48.7852 85.4466 48.3279 85.8293 47.7306 86.1C47.1332 86.3706 46.4192 86.506 45.5886 86.506H42.4946L42.9566 86.016V89.6H41.9206ZM42.9566 86.1L42.4946 85.596H45.5606C46.5406 85.596 47.2826 85.386 47.7866 84.966C48.2999 84.5366 48.5566 83.9346 48.5566 83.16C48.5566 82.376 48.2999 81.7693 47.7866 81.34C47.2826 80.9106 46.5406 80.696 45.5606 80.696H42.4946L42.9566 80.206V86.1ZM51.7096 89.6V79.8H52.5636L57.0436 87.444H56.5956L61.0336 79.8H61.8876V89.6H60.8936V81.354H61.1316L57.0436 88.354H56.5536L52.4376 81.354H52.7036V89.6H51.7096ZM65.1901 89.6V79.8H66.2121V87.92L72.4841 79.8H73.4221V89.6H72.4001V81.494L66.1281 89.6H65.1901ZM83.8971 79.8H84.9191V89.6H83.8971V79.8ZM77.7651 89.6H76.7291V79.8H77.7651V89.6ZM83.9951 85.078H77.6531V84.168H83.9951V85.078ZM86.7852 89.6L91.2652 79.8H92.2872L96.7672 89.6H95.6752L91.5592 80.402H91.9792L87.8632 89.6H86.7852ZM88.5492 86.982L88.8572 86.142H94.5552L94.8632 86.982H88.5492ZM97.9312 89.684C97.8005 89.684 97.6745 89.6746 97.5532 89.656C97.4318 89.6466 97.2965 89.6233 97.1472 89.586L97.2312 88.662C97.3898 88.6993 97.5438 88.718 97.6932 88.718C98.1132 88.718 98.4492 88.5546 98.7012 88.228C98.9625 87.892 99.1585 87.3786 99.2892 86.688C99.4198 85.988 99.5038 85.092 99.5412 84L99.6812 79.8H106.331V89.6H105.309V80.416L105.575 80.696H100.339L100.591 80.402L100.465 83.972C100.428 84.952 100.358 85.8013 100.255 86.52C100.152 87.2293 100.003 87.822 99.8072 88.298C99.6112 88.7646 99.3592 89.1146 99.0512 89.348C98.7432 89.572 98.3698 89.684 97.9312 89.684Z" fill="white"/>
<g clip-path="url(#clip0_3_15)">
<g clip-path="url(#clip1_3_15)">
<g clip-path="url(#clip2_3_15)">
<path d="M188.858 79.0952H187.66V69.4888H185.675V79.0952H183.792V69.4888H181.804V79.0952H173.768V69.4888H170.987V79.5071C170.987 80.8139 172.049 81.8761 173.356 81.8761H189.27C190.577 81.8761 191.639 80.8139 191.639 79.5071V69.4888H188.858V79.0952Z" fill="#CACACA"/>
<path d="M192.042 27.7838H170.584C170.036 27.7838 169.59 28.2267 169.59 28.7779V39.0594C169.59 39.6075 170.036 40.0535 170.584 40.0535H192.042C192.59 40.0535 193.036 39.6075 193.036 39.0594V28.7779C193.036 28.2298 192.59 27.7838 192.042 27.7838ZM191.048 38.0653H171.578V29.7689H191.048V38.0653Z" fill="#CACACA"/>
<path d="M175.353 42.0255H170.689C170.141 42.0255 169.695 42.4684 169.695 43.0197V46.7451C169.695 47.2932 170.141 47.7392 170.689 47.7392H175.353C175.901 47.7392 176.347 47.2932 176.347 46.7451V43.0197C176.347 42.4715 175.901 42.0255 175.353 42.0255ZM174.359 45.7511H171.684V44.0137H174.359V45.7511Z" fill="#CACACA"/>
<path d="M183.643 42.0255H178.983C178.435 42.0255 177.989 42.4684 177.989 43.0197V46.7451C177.989 47.2932 178.435 47.7392 178.983 47.7392H183.643C184.192 47.7392 184.637 47.2932 184.637 46.7451V43.0197C184.637 42.4715 184.192 42.0255 183.643 42.0255ZM182.649 45.7511H179.974V44.0137H182.649V45.7511Z" fill="#CACACA"/>
<path d="M191.937 42.0255H187.276C186.728 42.0255 186.282 42.4684 186.282 43.0197V46.7451C186.282 47.2932 186.728 47.7392 187.276 47.7392H191.937C192.485 47.7392 192.931 47.2932 192.931 46.7451V43.0197C192.931 42.4715 192.488 42.0255 191.937 42.0255ZM190.943 45.7511H188.267V44.0137H190.943V45.7511Z" fill="#CACACA"/>
<path d="M175.353 49.7185H170.689C170.141 49.7185 169.695 50.1644 169.695 50.7126V54.438C169.695 54.9862 170.141 55.4322 170.689 55.4322H175.353C175.901 55.4322 176.347 54.9893 176.347 54.438V50.7126C176.347 50.1644 175.901 49.7185 175.353 49.7185ZM174.359 53.444H171.684V51.7066H174.359V53.444Z" fill="#CACACA"/>
<path d="M183.643 49.7185H178.983C178.435 49.7185 177.989 50.1644 177.989 50.7126V54.438C177.989 54.9862 178.435 55.4322 178.983 55.4322H183.643C184.192 55.4322 184.637 54.9893 184.637 54.438V50.7126C184.637 50.1644 184.192 49.7185 183.643 49.7185ZM182.649 53.444H179.974V51.7066H182.649V53.444Z" fill="#CACACA"/>
<path d="M191.937 49.7185H187.276C186.728 49.7185 186.282 50.1644 186.282 50.7126V54.438C186.282 54.9862 186.728 55.4322 187.276 55.4322H191.937C192.485 55.4322 192.931 54.9893 192.931 54.438V50.7126C192.931 50.1644 192.488 49.7185 191.937 49.7185ZM190.943 53.444H188.267V51.7066H190.943V53.444Z" fill="#CACACA"/>
<path d="M175.353 57.4047H170.689C170.141 57.4047 169.695 57.8506 169.695 58.3987V62.1243C169.695 62.6724 170.141 63.1183 170.689 63.1183H175.353C175.901 63.1183 176.347 62.6755 176.347 62.1243V58.3987C176.347 57.8506 175.901 57.4047 175.353 57.4047ZM174.359 61.1301H171.684V59.3929H174.359V61.1301Z" fill="#CACACA"/>
<path d="M183.643 57.4047H178.983C178.435 57.4047 177.989 57.8506 177.989 58.3987V62.1243C177.989 62.6724 178.435 63.1183 178.983 63.1183H183.643C184.192 63.1183 184.637 62.6755 184.637 62.1243V58.3987C184.637 57.8506 184.192 57.4047 183.643 57.4047ZM182.649 61.1301H179.974V59.3929H182.649V61.1301Z" fill="#CACACA"/>
<path d="M191.937 57.4047H187.276C186.728 57.4047 186.282 57.8506 186.282 58.3987V62.1243C186.282 62.6724 186.728 63.1183 187.276 63.1183H191.937C192.485 63.1183 192.931 62.6755 192.931 62.1243V58.3987C192.931 57.8506 192.488 57.4047 191.937 57.4047ZM190.943 61.1301H188.267V59.3929H190.943V61.1301Z" fill="#CACACA"/>
<path d="M198.545 28.2672H197.777V26.6568C197.777 24.4209 195.956 22.6 193.721 22.6H168.93C166.694 22.6 164.873 24.4209 164.873 26.6568V64.4383C164.873 66.6742 166.694 68.4952 168.93 68.4952H193.721C195.956 68.4952 197.777 66.6742 197.777 64.4383V62.8279H198.545C200.15 62.8279 201.45 61.5242 201.45 59.9232V31.1751C201.45 29.571 200.146 28.2703 198.545 28.2703V28.2672ZM194.993 64.4383C194.993 65.1413 194.42 65.7111 193.718 65.7111H168.927C168.224 65.7111 167.654 65.1382 167.654 64.4383V26.6568C167.654 25.9539 168.227 25.384 168.927 25.384H193.718C194.42 25.384 194.993 25.9569 194.993 26.6568V64.4383ZM199.465 59.9201C199.465 60.4279 199.053 60.8397 198.545 60.8397H197.774V30.2554H198.542C199.05 30.2554 199.462 30.6672 199.462 31.1751V59.9232L199.465 59.9201Z" fill="#CACACA"/>
<path d="M174.759 33.8391H188.078C188.626 33.8391 189.072 33.3962 189.072 32.845C189.072 32.2969 188.626 31.851 188.078 31.851H174.759C174.211 31.851 173.765 32.2938 173.765 32.845C173.765 33.3931 174.211 33.8391 174.759 33.8391Z" fill="#CACACA"/>
</g>
</g>
</g>
<path d="M29.8656 143.6V112.88L33.2256 116.24H23.1456V110H37.6416V143.6H29.8656ZM57.3784 144.176C54.6264 144.176 52.1624 143.504 49.9864 142.16C47.8104 140.784 46.0984 138.8 44.8504 136.208C43.6024 133.616 42.9784 130.48 42.9784 126.8C42.9784 123.12 43.6024 119.984 44.8504 117.392C46.0984 114.8 47.8104 112.832 49.9864 111.488C52.1624 110.112 54.6264 109.424 57.3784 109.424C60.1624 109.424 62.6264 110.112 64.7704 111.488C66.9464 112.832 68.6584 114.8 69.9064 117.392C71.1544 119.984 71.7784 123.12 71.7784 126.8C71.7784 130.48 71.1544 133.616 69.9064 136.208C68.6584 138.8 66.9464 140.784 64.7704 142.16C62.6264 143.504 60.1624 144.176 57.3784 144.176ZM57.3784 137.6C58.6904 137.6 59.8264 137.232 60.7864 136.496C61.7784 135.76 62.5464 134.592 63.0904 132.992C63.6664 131.392 63.9544 129.328 63.9544 126.8C63.9544 124.272 63.6664 122.208 63.0904 120.608C62.5464 119.008 61.7784 117.84 60.7864 117.104C59.8264 116.368 58.6904 116 57.3784 116C56.0984 116 54.9624 116.368 53.9704 117.104C53.0104 117.84 52.2424 119.008 51.6664 120.608C51.1224 122.208 50.8504 124.272 50.8504 126.8C50.8504 129.328 51.1224 131.392 51.6664 132.992C52.2424 134.592 53.0104 135.76 53.9704 136.496C54.9624 137.232 56.0984 137.6 57.3784 137.6ZM74.5811 143.6V138.56L87.5411 126.32C88.5651 125.392 89.3171 124.56 89.7971 123.824C90.2771 123.088 90.5971 122.416 90.7571 121.808C90.9491 121.2 91.0451 120.64 91.0451 120.128C91.0451 118.784 90.5811 117.76 89.6531 117.056C88.7571 116.32 87.4291 115.952 85.6691 115.952C84.2611 115.952 82.9491 116.224 81.7331 116.768C80.5491 117.312 79.5411 118.16 78.7091 119.312L73.0451 115.664C74.3251 113.744 76.1171 112.224 78.4211 111.104C80.7251 109.984 83.3811 109.424 86.3891 109.424C88.8851 109.424 91.0611 109.84 92.9171 110.672C94.8051 111.472 96.2611 112.608 97.2851 114.08C98.3411 115.552 98.8691 117.312 98.8691 119.36C98.8691 120.448 98.7251 121.536 98.4371 122.624C98.1811 123.68 97.6371 124.8 96.8051 125.984C96.0051 127.168 94.8211 128.496 93.2531 129.968L82.5011 140.096L81.0131 137.264H99.9731V143.6H74.5811ZM107.866 143.6V112.88L111.226 116.24H101.146V110H115.642V143.6H107.866Z" fill="white"/>
<g clip-path="url(#clip3_3_15)">
<g clip-path="url(#clip4_3_15)">
<g clip-path="url(#clip5_3_15)">
<path d="M55.8248 204.704C43.8835 196.057 31.2903 195.267 26.4863 195.954C13.1041 195.954 -16.7494 198.018 -24.47 201.041C-32.1907 204.063 -33.2201 211.85 -38.8819 228.32C-44.5437 244.791 -50.2054 261.262 -51.7496 289.056C-53.2937 316.85 -48.6613 300.894 -28.5876 304.497C-8.51393 308.1 137.149 312.733 197.37 311.703C257.591 310.674 248.841 246.85 243.694 228.32C239.576 213.497 220.017 201.942 210.752 198.018C202.517 191.327 163.399 190.298 142.296 199.562C121.193 208.827 123.252 200.588 99.5751 195.954C75.8985 191.319 70.7514 215.513 55.8248 204.704Z" fill="url(#paint0_linear_3_15)" stroke="white" stroke-width="3.08826"/>
</g>
</g>
</g>
<defs>
<linearGradient id="paint0_linear_3_15" x1="100.09" y1="143.393" x2="99.575" y2="250.453" gradientUnits="userSpaceOnUse">
<stop stop-color="#CACACA"/>
<stop offset="1" stop-color="#B3B3B3" stop-opacity="0"/>
</linearGradient>
<clipPath id="clip0_3_15">
<rect width="60" height="60" fill="white" transform="translate(153.403 22.6)"/>
</clipPath>
<clipPath id="clip1_3_15">
<rect width="60" height="60" fill="white" transform="translate(153.403 22.6)"/>
</clipPath>
<clipPath id="clip2_3_15">
<rect width="37.0588" height="60" fill="white" transform="translate(164.873 22.6)"/>
</clipPath>
<clipPath id="clip3_3_15">
<rect width="230.593" height="86.47" fill="white" transform="translate(2.80957 185.6)"/>
</clipPath>
<clipPath id="clip4_3_15">
<rect width="230.59" height="86.47" fill="white" transform="translate(2.80957 185.6)"/>
</clipPath>
<clipPath id="clip5_3_15">
<rect width="230.59" height="76.1771" fill="white" transform="translate(2.80957 190.746)"/>
</clipPath>
</defs>
</svg>
