<svg width="236" height="275" viewBox="0 0 236 275" fill="none" xmlns="http://www.w3.org/2000/svg">
<rect x="1.58752" y="1.59998" width="232.592" height="271.47" rx="32" stroke="#1A599D" stroke-width="2"/>
<path d="M28.5375 73.684C27.8002 73.684 27.1142 73.5626 26.4795 73.32C25.8542 73.068 25.3082 72.718 24.8415 72.27C24.3842 71.8126 24.0249 71.2853 23.7635 70.688C23.5115 70.0813 23.3855 69.4186 23.3855 68.7C23.3855 67.9813 23.5115 67.3233 23.7635 66.726C24.0249 66.1193 24.3842 65.592 24.8415 65.144C25.3082 64.6866 25.8542 64.3366 26.4795 64.094C27.1049 63.842 27.7909 63.716 28.5375 63.716C29.2749 63.716 29.9562 63.842 30.5815 64.094C31.2069 64.3366 31.7482 64.682 32.2055 65.13C32.6722 65.578 33.0315 66.1053 33.2835 66.712C33.5449 67.3186 33.6755 67.9813 33.6755 68.7C33.6755 69.4186 33.5449 70.0813 33.2835 70.688C33.0315 71.2946 32.6722 71.822 32.2055 72.27C31.7482 72.718 31.2069 73.068 30.5815 73.32C29.9562 73.5626 29.2749 73.684 28.5375 73.684ZM28.5375 72.76C29.1255 72.76 29.6669 72.662 30.1615 72.466C30.6655 72.2606 31.0995 71.976 31.4635 71.612C31.8369 71.2386 32.1262 70.8093 32.3315 70.324C32.5369 69.8293 32.6395 69.288 32.6395 68.7C32.6395 68.112 32.5369 67.5753 32.3315 67.09C32.1262 66.5953 31.8369 66.166 31.4635 65.802C31.0995 65.4286 30.6655 65.144 30.1615 64.948C29.6669 64.7426 29.1255 64.64 28.5375 64.64C27.9495 64.64 27.4035 64.7426 26.8995 64.948C26.3955 65.144 25.9569 65.4286 25.5835 65.802C25.2195 66.166 24.9302 66.5953 24.7155 67.09C24.5102 67.5753 24.4075 68.112 24.4075 68.7C24.4075 69.2786 24.5102 69.8153 24.7155 70.31C24.9302 70.8046 25.2195 71.2386 25.5835 71.612C25.9569 71.976 26.3955 72.2606 26.8995 72.466C27.4035 72.662 27.9495 72.76 28.5375 72.76ZM36.1477 73.6V63.8H43.3157V64.682H37.1697V67.888H40.3757C41.5331 67.888 42.4104 68.126 43.0077 68.602C43.6144 69.0686 43.9177 69.7593 43.9177 70.674C43.9177 71.6166 43.5911 72.34 42.9377 72.844C42.2937 73.348 41.3651 73.6 40.1517 73.6H36.1477ZM37.1697 72.774H40.1377C41.0431 72.774 41.7244 72.6013 42.1817 72.256C42.6484 71.9013 42.8817 71.388 42.8817 70.716C42.8817 69.3813 41.9671 68.714 40.1377 68.714H37.1697V72.774ZM52.0599 72.704L51.8079 72.984V63.8H52.8299V72.984L52.5499 72.704H57.5759L57.2959 72.984V63.8H58.3179V73.6H46.3059V63.8H47.3279V72.984L47.0619 72.704H52.0599ZM58.8779 75.798V73.32L59.1579 73.6H57.2819V72.704H59.8439V75.798H58.8779ZM62.8706 68.182H68.0506V69.064H62.8706V68.182ZM62.9826 72.704H68.8766V73.6H61.9466V63.8H68.6666V64.696H62.9826V72.704ZM72.0991 68.182H77.2791V69.064H72.0991V68.182ZM72.2111 72.704H78.1051V73.6H71.1751V63.8H77.8951V64.696H72.2111V72.704ZM90.7736 73.6L87.0076 68.714L87.8476 68.21L91.9636 73.6H90.7736ZM84.0676 73.6V63.8H85.0756V73.6H84.0676ZM84.7676 69.106V68.196H87.8336V69.106H84.7676ZM87.9316 68.812L86.9796 68.644L90.6336 63.8H91.7537L87.9316 68.812ZM97.8403 73.684C97.1029 73.684 96.4169 73.5626 95.7823 73.32C95.1569 73.068 94.6109 72.718 94.1443 72.27C93.6869 71.8126 93.3276 71.2853 93.0663 70.688C92.8143 70.0813 92.6883 69.4186 92.6883 68.7C92.6883 67.9813 92.8143 67.3233 93.0663 66.726C93.3276 66.1193 93.6869 65.592 94.1443 65.144C94.6109 64.6866 95.1569 64.3366 95.7823 64.094C96.4076 63.842 97.0936 63.716 97.8403 63.716C98.5776 63.716 99.2589 63.842 99.8843 64.094C100.51 64.3366 101.051 64.682 101.508 65.13C101.975 65.578 102.334 66.1053 102.586 66.712C102.848 67.3186 102.978 67.9813 102.978 68.7C102.978 69.4186 102.848 70.0813 102.586 70.688C102.334 71.2946 101.975 71.822 101.508 72.27C101.051 72.718 100.51 73.068 99.8843 73.32C99.2589 73.5626 98.5776 73.684 97.8403 73.684ZM97.8403 72.76C98.4283 72.76 98.9696 72.662 99.4643 72.466C99.9683 72.2606 100.402 71.976 100.766 71.612C101.14 71.2386 101.429 70.8093 101.634 70.324C101.84 69.8293 101.942 69.288 101.942 68.7C101.942 68.112 101.84 67.5753 101.634 67.09C101.429 66.5953 101.14 66.166 100.766 65.802C100.402 65.4286 99.9683 65.144 99.4643 64.948C98.9696 64.7426 98.4283 64.64 97.8403 64.64C97.2523 64.64 96.7063 64.7426 96.2023 64.948C95.6983 65.144 95.2596 65.4286 94.8863 65.802C94.5223 66.166 94.2329 66.5953 94.0183 67.09C93.8129 67.5753 93.7103 68.112 93.7103 68.7C93.7103 69.2786 93.8129 69.8153 94.0183 70.31C94.2329 70.8046 94.5223 71.2386 94.8863 71.612C95.2596 71.976 95.6983 72.2606 96.2023 72.466C96.7063 72.662 97.2523 72.76 97.8403 72.76ZM104.463 73.684C104.332 73.684 104.206 73.6746 104.085 73.656C103.964 73.6466 103.828 73.6233 103.679 73.586L103.763 72.662C103.922 72.6993 104.076 72.718 104.225 72.718C104.645 72.718 104.981 72.5546 105.233 72.228C105.494 71.892 105.69 71.3786 105.821 70.688C105.952 69.988 106.036 69.092 106.073 68L106.213 63.8H112.863V73.6H111.841V64.416L112.107 64.696H106.871L107.123 64.402L106.997 67.972C106.96 68.952 106.89 69.8013 106.787 70.52C106.684 71.2293 106.535 71.822 106.339 72.298C106.143 72.7646 105.891 73.1146 105.583 73.348C105.275 73.572 104.902 73.684 104.463 73.684ZM115.357 70.24V69.372H119.025V70.24H115.357ZM121.515 73.6V63.8H125.589C126.625 63.8 127.437 64.0146 128.025 64.444C128.622 64.864 128.921 65.4846 128.921 66.306C128.921 67.118 128.636 67.734 128.067 68.154C127.498 68.5646 126.751 68.77 125.827 68.77L126.065 68.42C127.157 68.42 127.988 68.6346 128.557 69.064C129.126 69.4933 129.411 70.1233 129.411 70.954C129.411 71.794 129.112 72.4473 128.515 72.914C127.927 73.3713 127.04 73.6 125.855 73.6H121.515ZM122.537 72.774H125.855C126.686 72.774 127.316 72.62 127.745 72.312C128.174 72.004 128.389 71.528 128.389 70.884C128.389 70.2493 128.174 69.7826 127.745 69.484C127.316 69.1853 126.686 69.036 125.855 69.036H122.537V72.774ZM122.537 68.238H125.533C126.289 68.238 126.868 68.0886 127.269 67.79C127.68 67.482 127.885 67.0293 127.885 66.432C127.885 65.8346 127.68 65.3866 127.269 65.088C126.868 64.78 126.289 64.626 125.533 64.626H122.537V68.238ZM136.299 73.684C135.562 73.684 134.876 73.5626 134.241 73.32C133.616 73.068 133.07 72.718 132.603 72.27C132.146 71.8126 131.787 71.2853 131.525 70.688C131.273 70.0813 131.147 69.4186 131.147 68.7C131.147 67.9813 131.273 67.3233 131.525 66.726C131.787 66.1193 132.146 65.592 132.603 65.144C133.07 64.6866 133.616 64.3366 134.241 64.094C134.867 63.842 135.553 63.716 136.299 63.716C137.037 63.716 137.718 63.842 138.343 64.094C138.969 64.3366 139.51 64.682 139.967 65.13C140.434 65.578 140.793 66.1053 141.045 66.712C141.307 67.3186 141.437 67.9813 141.437 68.7C141.437 69.4186 141.307 70.0813 141.045 70.688C140.793 71.2946 140.434 71.822 139.967 72.27C139.51 72.718 138.969 73.068 138.343 73.32C137.718 73.5626 137.037 73.684 136.299 73.684ZM136.299 72.76C136.887 72.76 137.429 72.662 137.923 72.466C138.427 72.2606 138.861 71.976 139.225 71.612C139.599 71.2386 139.888 70.8093 140.093 70.324C140.299 69.8293 140.401 69.288 140.401 68.7C140.401 68.112 140.299 67.5753 140.093 67.09C139.888 66.5953 139.599 66.166 139.225 65.802C138.861 65.4286 138.427 65.144 137.923 64.948C137.429 64.7426 136.887 64.64 136.299 64.64C135.711 64.64 135.165 64.7426 134.661 64.948C134.157 65.144 133.719 65.4286 133.345 65.802C132.981 66.166 132.692 66.5953 132.477 67.09C132.272 67.5753 132.169 68.112 132.169 68.7C132.169 69.2786 132.272 69.8153 132.477 70.31C132.692 70.8046 132.981 71.2386 133.345 71.612C133.719 71.976 134.157 72.2606 134.661 72.466C135.165 72.662 135.711 72.76 136.299 72.76ZM26.1855 89.6V80.416L26.4655 80.696H22.7415V79.8H30.6515V80.696H26.9415L27.2075 80.416V89.6H26.1855ZM32.47 89.6V79.8H36.138C36.9687 79.8 37.6827 79.9353 38.28 80.206C38.8773 80.4673 39.3347 80.85 39.652 81.354C39.9787 81.8486 40.142 82.4506 40.142 83.16C40.142 83.8506 39.9787 84.448 39.652 84.952C39.3347 85.4466 38.8773 85.8293 38.28 86.1C37.6827 86.3706 36.9687 86.506 36.138 86.506H33.044L33.506 86.016V89.6H32.47ZM33.506 86.1L33.044 85.596H36.11C37.09 85.596 37.832 85.386 38.336 84.966C38.8493 84.5366 39.106 83.9346 39.106 83.16C39.106 82.376 38.8493 81.7693 38.336 81.34C37.832 80.9106 37.09 80.696 36.11 80.696H33.044L33.506 80.206V86.1ZM40.3249 89.6L44.8049 79.8H45.8269L50.3069 89.6H49.2149L45.0989 80.402H45.5189L41.4029 89.6H40.3249ZM42.0889 86.982L42.3969 86.142H48.0949L48.4029 86.982H42.0889ZM59.3528 79.8H60.3748V89.6H59.3528V79.8ZM53.2208 89.6H52.1848V79.8H53.2208V89.6ZM59.4508 85.078H53.1088V84.168H59.4508V85.078ZM62.5209 88.424L62.8989 87.682C63.3282 88.0553 63.8089 88.3353 64.3409 88.522C64.8822 88.6993 65.4236 88.7926 65.9649 88.802C66.5062 88.802 67.0009 88.7226 67.4489 88.564C67.9062 88.4053 68.2749 88.172 68.5549 87.864C68.8349 87.5466 68.9749 87.164 68.9749 86.716C68.9749 86.1466 68.7462 85.708 68.2889 85.4C67.8409 85.092 67.2156 84.938 66.4129 84.938H64.3129V84.098H66.3569C67.0476 84.098 67.5842 83.9533 67.9669 83.664C68.3589 83.3653 68.5549 82.9546 68.5549 82.432C68.5549 82.0586 68.4429 81.7413 68.2189 81.48C68.0042 81.2093 67.7056 81.004 67.3229 80.864C66.9496 80.7146 66.5296 80.6353 66.0629 80.626C65.5962 80.6073 65.1109 80.668 64.6069 80.808C64.1122 80.9386 63.6316 81.1486 63.1649 81.438L62.8289 80.584C63.4076 80.2386 64.0096 80.0006 64.6349 79.87C65.2602 79.73 65.8669 79.6833 66.4549 79.73C67.0429 79.7766 67.5702 79.912 68.0369 80.136C68.5129 80.36 68.8909 80.654 69.1709 81.018C69.4509 81.382 69.5909 81.816 69.5909 82.32C69.5909 82.7866 69.4696 83.1973 69.2269 83.552C68.9936 83.9066 68.6622 84.182 68.2329 84.378C67.8129 84.5646 67.3136 84.658 66.7349 84.658L66.7909 84.35C67.4442 84.35 68.0089 84.4526 68.4849 84.658C68.9702 84.8633 69.3436 85.1573 69.6049 85.54C69.8756 85.9133 70.0109 86.352 70.0109 86.856C70.0109 87.332 69.8896 87.7566 69.6469 88.13C69.4136 88.494 69.0869 88.802 68.6669 89.054C68.2562 89.2966 67.7942 89.474 67.2809 89.586C66.7676 89.6886 66.2309 89.7166 65.6709 89.67C65.1109 89.6233 64.5602 89.502 64.0189 89.306C63.4776 89.1006 62.9782 88.8066 62.5209 88.424ZM71.1413 89.6L75.6213 79.8H76.6433L81.1233 89.6H80.0313L75.9153 80.402H76.3353L72.2193 89.6H71.1413ZM72.9053 86.982L73.2133 86.142H78.9113L79.2193 86.982H72.9053ZM89.7072 89.6L85.9412 84.714L86.7812 84.21L90.8972 89.6H89.7072ZM83.0012 89.6V79.8H84.0092V89.6H83.0012ZM83.7012 85.106V84.196H86.7672V85.106H83.7012ZM86.8652 84.812L85.9132 84.644L89.5672 79.8H90.6872L86.8652 84.812ZM92.4895 89.6V79.8H93.5115V88.704H99.4335V79.8H100.456V89.6H92.4895ZM101.044 91.896V89.32L101.31 89.6H99.4335V88.704H102.01V91.896H101.044ZM104.07 89.6V79.8H105.092V87.92L111.364 79.8H112.302V89.6H111.28V81.494L105.008 89.6H104.07ZM115.609 89.6V79.8H116.631V87.92L122.903 79.8H123.841V89.6H122.819V81.494L116.547 89.6H115.609ZM119.697 79.086C118.997 79.086 118.441 78.9273 118.031 78.61C117.629 78.2926 117.424 77.8493 117.415 77.28H118.185C118.194 77.6533 118.334 77.9473 118.605 78.162C118.885 78.3766 119.249 78.484 119.697 78.484C120.145 78.484 120.504 78.3766 120.775 78.162C121.055 77.9473 121.199 77.6533 121.209 77.28H121.979C121.969 77.8493 121.759 78.2926 121.349 78.61C120.938 78.9273 120.387 79.086 119.697 79.086Z" fill="white"/>
<g clip-path="url(#clip0_3_83)">
<g clip-path="url(#clip1_3_83)">
<g clip-path="url(#clip2_3_83)">
<path d="M206.672 53.532C205.983 53.532 205.429 54.0869 205.429 54.7755V69.3393C205.429 71.6356 203.51 73.434 201.063 73.434H159.939C157.542 73.434 155.667 71.6356 155.667 69.3393V40.4423C155.667 38.0557 157.586 36.1136 159.939 36.1136H189.18C189.869 36.1136 190.424 35.5587 190.424 34.8702C190.424 34.1816 189.869 33.6267 189.18 33.6267H159.939C156.212 33.6267 153.18 36.6852 153.18 40.4456V69.3427C153.18 73.0362 156.148 75.9276 159.939 75.9276H201.063C204.84 75.9276 207.919 72.9728 207.919 69.3427V54.7789C207.919 54.0902 207.361 53.5354 206.675 53.5354L206.672 53.532Z" fill="#CACACA"/>
<path d="M160.644 59.7512V67.2152C160.644 67.9038 161.199 68.4587 161.887 68.4587C162.576 68.4587 163.131 67.9038 163.131 67.2152V59.7512C163.131 59.0625 162.572 58.5077 161.887 58.5077C161.199 58.5077 160.644 59.0625 160.644 59.7512Z" fill="#CACACA"/>
<path d="M197.964 67.2152V59.7512C197.964 59.0625 197.406 58.5077 196.721 58.5077C196.032 58.5077 195.477 59.0625 195.477 59.7512V67.2152C195.477 67.9038 196.032 68.4587 196.721 68.4587C197.409 68.4587 197.964 67.9038 197.964 67.2152Z" fill="#CACACA"/>
<path d="M180.546 44.8181V67.2103C180.546 67.8989 181.104 68.4537 181.79 68.4537C182.478 68.4537 183.033 67.8989 183.033 67.2103V44.8181C183.033 44.1295 182.478 43.5746 181.79 43.5746C181.101 43.5746 180.546 44.1295 180.546 44.8181Z" fill="#CACACA"/>
<path d="M165.621 54.7735V67.2147C165.621 67.9033 166.176 68.4581 166.865 68.4581C167.553 68.4581 168.108 67.9033 168.108 67.2147V54.7735C168.108 54.0849 167.55 53.53 166.865 53.53C166.18 53.53 165.621 54.0849 165.621 54.7735Z" fill="#CACACA"/>
<path d="M175.572 54.7735V67.2147C175.572 67.9033 176.13 68.4581 176.816 68.4581C177.504 68.4581 178.059 67.9033 178.059 67.2147V54.7735C178.059 54.0849 177.504 53.53 176.816 53.53C176.127 53.53 175.572 54.0849 175.572 54.7735Z" fill="#CACACA"/>
<path d="M191.744 68.4581C192.433 68.4581 192.987 67.9033 192.987 67.2147V54.7735C192.987 54.0849 192.433 53.53 191.744 53.53C191.055 53.53 190.5 54.0849 190.5 54.7735V67.2147C190.5 67.9033 191.059 68.4581 191.744 68.4581Z" fill="#CACACA"/>
<path d="M185.523 57.2587V67.2096C185.523 67.8982 186.082 68.453 186.767 68.453C187.455 68.453 188.01 67.8982 188.01 67.2096V57.2587C188.01 56.5701 187.455 56.0151 186.767 56.0151C186.078 56.0151 185.523 56.5701 185.523 57.2587Z" fill="#CACACA"/>
<path d="M170.595 49.7958V67.2108C170.595 67.8995 171.15 68.4544 171.839 68.4544C172.527 68.4544 173.082 67.8995 173.082 67.2108V49.7958C173.082 49.1072 172.524 48.5524 171.839 48.5524C171.15 48.5524 170.595 49.1072 170.595 49.7958Z" fill="#CACACA"/>
<path d="M201.852 29.2666C196.006 29.2666 191.253 34.0232 191.253 39.8694C191.253 45.7156 196.009 50.4756 201.852 50.4756C207.702 50.4756 212.458 45.719 212.458 39.8694C212.458 34.0232 207.702 29.2666 201.852 29.2666ZM201.852 47.9853C197.379 47.9853 193.739 44.3452 193.739 39.8694C193.739 35.3936 197.379 31.7535 201.852 31.7535C206.328 31.7535 209.971 35.3936 209.971 39.8694C209.971 44.3452 206.331 47.9853 201.852 47.9853Z" fill="#CACACA"/>
<path d="M202.578 35.2336C202.35 35.0063 202.043 34.8693 201.695 34.8693C201.351 34.8693 201.04 35.0097 200.816 35.2336L196.892 39.1612C196.407 39.6459 196.407 40.4348 196.892 40.9194C197.376 41.4041 198.165 41.4041 198.65 40.9194L200.452 39.1177V43.5801C200.452 44.2687 201.01 44.8236 201.695 44.8236C202.384 44.8236 202.938 44.2687 202.938 43.5801V39.1177L204.74 40.9194C204.984 41.1634 205.302 41.2837 205.619 41.2837C205.937 41.2837 206.254 41.1634 206.498 40.9194C206.983 40.4348 206.983 39.6459 206.498 39.1612L202.574 35.2336H202.578Z" fill="#CACACA"/>
</g>
</g>
</g>
<path d="M24.0755 136.544V131.312L39.9155 110H48.0755L32.5715 131.312L28.7795 130.208H55.2275V136.544H24.0755ZM42.1715 143.6V136.544L42.4115 130.208V123.92H49.7555V143.6H42.1715ZM72.0773 144.176C69.0053 144.176 66.3333 143.536 64.0613 142.256C61.8213 140.976 60.0933 139.104 58.8773 136.64C57.6613 134.176 57.0533 131.136 57.0533 127.52C57.0533 123.648 57.7733 120.368 59.2133 117.68C60.6853 114.992 62.7013 112.944 65.2613 111.536C67.8533 110.128 70.8293 109.424 74.1893 109.424C75.9813 109.424 77.6933 109.616 79.3253 110C80.9573 110.384 82.3653 110.96 83.5493 111.728L80.6693 117.44C79.7413 116.8 78.7493 116.368 77.6933 116.144C76.6373 115.888 75.5333 115.76 74.3813 115.76C71.4693 115.76 69.1653 116.64 67.4693 118.4C65.7733 120.16 64.9253 122.768 64.9253 126.224C64.9253 126.8 64.9253 127.44 64.9253 128.144C64.9573 128.848 65.0533 129.552 65.2133 130.256L63.0533 128.24C63.6613 126.992 64.4453 125.952 65.4053 125.12C66.3653 124.256 67.5013 123.616 68.8133 123.2C70.1573 122.752 71.6293 122.528 73.2293 122.528C75.4053 122.528 77.3573 122.96 79.0853 123.824C80.8133 124.688 82.1893 125.904 83.2133 127.472C84.2693 129.04 84.7973 130.88 84.7973 132.992C84.7973 135.264 84.2213 137.248 83.0693 138.944C81.9493 140.608 80.4293 141.904 78.5093 142.832C76.6213 143.728 74.4773 144.176 72.0773 144.176ZM71.6453 138.368C72.7333 138.368 73.6933 138.176 74.5253 137.792C75.3893 137.376 76.0613 136.784 76.5413 136.016C77.0213 135.248 77.2613 134.368 77.2613 133.376C77.2613 131.84 76.7333 130.624 75.6773 129.728C74.6533 128.8 73.2773 128.336 71.5493 128.336C70.3973 128.336 69.3893 128.56 68.5253 129.008C67.6613 129.424 66.9733 130.016 66.4613 130.784C65.9813 131.52 65.7413 132.384 65.7413 133.376C65.7413 134.336 65.9813 135.2 66.4613 135.968C66.9413 136.704 67.6133 137.296 68.4773 137.744C69.3413 138.16 70.3973 138.368 71.6453 138.368ZM86.8278 143.6V138.56L99.7878 126.32C100.812 125.392 101.564 124.56 102.044 123.824C102.524 123.088 102.844 122.416 103.004 121.808C103.196 121.2 103.292 120.64 103.292 120.128C103.292 118.784 102.828 117.76 101.9 117.056C101.004 116.32 99.6758 115.952 97.9158 115.952C96.5078 115.952 95.1958 116.224 93.9798 116.768C92.7958 117.312 91.7878 118.16 90.9558 119.312L85.2918 115.664C86.5718 113.744 88.3638 112.224 90.6678 111.104C92.9718 109.984 95.6278 109.424 98.6358 109.424C101.132 109.424 103.308 109.84 105.164 110.672C107.052 111.472 108.508 112.608 109.532 114.08C110.588 115.552 111.116 117.312 111.116 119.36C111.116 120.448 110.972 121.536 110.684 122.624C110.428 123.68 109.884 124.8 109.052 125.984C108.252 127.168 107.068 128.496 105.5 129.968L94.7478 140.096L93.2598 137.264H112.22V143.6H86.8278ZM114.029 136.544V131.312L129.869 110H138.029L122.525 131.312L118.733 130.208H145.181V136.544H114.029ZM132.125 143.6V136.544L132.365 130.208V123.92H139.709V143.6H132.125Z" fill="white"/>
<g clip-path="url(#clip3_3_83)">
<g clip-path="url(#clip4_3_83)">
<g clip-path="url(#clip5_3_83)">
<path d="M21.7898 206.319L1.27884 208.394C-1.52607 209.778 -7.13589 212.962 -7.13589 214.622C-7.13589 216.697 -9.7655 223.441 -9.7655 227.07V250.935C-9.7655 255.5 -8.50879 281.942 -3.07428 292.144L54.9228 320.968L207.44 311.63L235.751 297.291L239.354 256.629L246.358 217.215C241.099 216.697 227.425 214.518 214.802 209.953C199.025 204.246 193.766 208.397 183.774 212.547C173.781 216.697 166.944 214.622 164.841 209.953C162.736 205.284 160.633 200.096 156.426 200.096C152.218 200.096 131.182 217.215 127.5 216.697C123.818 216.178 112.249 190.757 106.463 190.238C100.678 189.719 93.841 222.401 90.6855 227.07C87.5299 231.739 78.0633 223.439 74.3819 218.77C70.7394 214.15 68.1268 215.117 59.9218 218.153L59.6561 218.251C51.2414 221.364 44.9303 209.951 39.1452 207.876C34.517 206.215 25.6465 206.146 21.7898 206.319Z" fill="url(#paint0_linear_3_83)" stroke="white" stroke-width="3.08826"/>
</g>
</g>
</g>
<defs>
<linearGradient id="paint0_linear_3_83" x1="123.03" y1="158.834" x2="123.581" y2="255.085" gradientUnits="userSpaceOnUse">
<stop stop-color="#CACACA"/>
<stop offset="1" stop-color="#D5D5D5" stop-opacity="0"/>
</linearGradient>
<clipPath id="clip0_3_83">
<rect width="60" height="60" fill="white" transform="translate(153.18 22.6)"/>
</clipPath>
<clipPath id="clip1_3_83">
<rect width="60" height="60" fill="white" transform="translate(153.18 22.6)"/>
</clipPath>
<clipPath id="clip2_3_83">
<rect width="60" height="46.6667" fill="white" transform="translate(153.18 29.2666)"/>
</clipPath>
<clipPath id="clip3_3_83">
<rect width="230.592" height="86.47" fill="white" transform="translate(2.58752 185.6)"/>
</clipPath>
<clipPath id="clip4_3_83">
<rect width="230.59" height="86.47" fill="white" transform="translate(2.58752 185.6)"/>
</clipPath>
<clipPath id="clip5_3_83">
<rect width="230.59" height="81.3242" fill="white" transform="translate(2.58752 188.173)"/>
</clipPath>
</defs>
</svg>
