<svg width="235" height="275" viewBox="0 0 235 275" fill="none" xmlns="http://www.w3.org/2000/svg">
<rect x="0.994568" y="1.59998" width="232.593" height="271.47" rx="32" stroke="#1A599D" stroke-width="2"/>
<path d="M27.9446 89.684C27.2072 89.684 26.5212 89.5626 25.8866 89.32C25.2612 89.068 24.7152 88.718 24.2486 88.27C23.7912 87.8126 23.4319 87.2853 23.1706 86.688C22.9186 86.0813 22.7926 85.4186 22.7926 84.7C22.7926 83.9813 22.9186 83.3233 23.1706 82.726C23.4319 82.1193 23.7912 81.592 24.2486 81.144C24.7152 80.6866 25.2612 80.3366 25.8866 80.094C26.5119 79.842 27.1979 79.716 27.9446 79.716C28.6819 79.716 29.3632 79.842 29.9886 80.094C30.6139 80.3366 31.1552 80.682 31.6126 81.13C32.0792 81.578 32.4386 82.1053 32.6906 82.712C32.9519 83.3186 33.0826 83.9813 33.0826 84.7C33.0826 85.4186 32.9519 86.0813 32.6906 86.688C32.4386 87.2946 32.0792 87.822 31.6126 88.27C31.1552 88.718 30.6139 89.068 29.9886 89.32C29.3632 89.5626 28.6819 89.684 27.9446 89.684ZM27.9446 88.76C28.5326 88.76 29.0739 88.662 29.5686 88.466C30.0726 88.2606 30.5066 87.976 30.8706 87.612C31.2439 87.2386 31.5332 86.8093 31.7386 86.324C31.9439 85.8293 32.0466 85.288 32.0466 84.7C32.0466 84.112 31.9439 83.5753 31.7386 83.09C31.5332 82.5953 31.2439 82.166 30.8706 81.802C30.5066 81.4286 30.0726 81.144 29.5686 80.948C29.0739 80.7426 28.5326 80.64 27.9446 80.64C27.3566 80.64 26.8106 80.7426 26.3066 80.948C25.8026 81.144 25.3639 81.4286 24.9906 81.802C24.6266 82.166 24.3372 82.5953 24.1226 83.09C23.9172 83.5753 23.8146 84.112 23.8146 84.7C23.8146 85.2786 23.9172 85.8153 24.1226 86.31C24.3372 86.8046 24.6266 87.2386 24.9906 87.612C25.3639 87.976 25.8026 88.2606 26.3066 88.466C26.8106 88.662 27.3566 88.76 27.9446 88.76ZM42.7228 79.8H43.7448V89.6H42.7228V79.8ZM36.5908 89.6H35.5548V79.8H36.5908V89.6ZM42.8208 85.078H36.4788V84.168H42.8208V85.078ZM46.1884 89.684C46.0578 89.684 45.9318 89.6746 45.8104 89.656C45.6891 89.6466 45.5538 89.6233 45.4044 89.586L45.4884 88.662C45.6471 88.6993 45.8011 88.718 45.9504 88.718C46.3704 88.718 46.7064 88.5546 46.9584 88.228C47.2198 87.892 47.4158 87.3786 47.5464 86.688C47.6771 85.988 47.7611 85.092 47.7984 84L47.9384 79.8H54.5884V89.6H53.5664V80.416L53.8324 80.696H48.5964L48.8484 80.402L48.7224 83.972C48.6851 84.952 48.6151 85.8013 48.5124 86.52C48.4098 87.2293 48.2604 87.822 48.0644 88.298C47.8684 88.7646 47.6164 89.1146 47.3084 89.348C47.0004 89.572 46.6271 89.684 46.1884 89.684ZM56.4526 89.6L60.9326 79.8H61.9546L66.4346 89.6H65.3426L61.2266 80.402H61.6466L57.5306 89.6H56.4526ZM58.2166 86.982L58.5246 86.142H64.2226L64.5306 86.982H58.2166ZM68.3126 89.6V79.8H69.3346V87.92L75.6066 79.8H76.5446V89.6H75.5226V81.494L69.2506 89.6H68.3126ZM72.4006 79.086C71.7006 79.086 71.1453 78.9273 70.7346 78.61C70.3333 78.2926 70.1279 77.8493 70.1186 77.28H70.8886C70.8979 77.6533 71.0379 77.9473 71.3086 78.162C71.5886 78.3766 71.9526 78.484 72.4006 78.484C72.8486 78.484 73.2079 78.3766 73.4786 78.162C73.7586 77.9473 73.9033 77.6533 73.9126 77.28H74.6826C74.6733 77.8493 74.4633 78.2926 74.0526 78.61C73.6419 78.9273 73.0913 79.086 72.4006 79.086ZM87.0196 79.8H88.0416V89.6H87.0196V79.8ZM80.8876 89.6H79.8516V79.8H80.8876V89.6ZM87.1176 85.078H80.7756V84.168H87.1176V85.078ZM99.3118 89.684C98.5744 89.684 97.8884 89.5626 97.2538 89.32C96.6284 89.068 96.0824 88.718 95.6158 88.27C95.1584 87.8126 94.7991 87.2853 94.5378 86.688C94.2858 86.0813 94.1598 85.4186 94.1598 84.7C94.1598 83.9813 94.2858 83.3233 94.5378 82.726C94.7991 82.1193 95.1584 81.592 95.6158 81.144C96.0824 80.6866 96.6284 80.3366 97.2538 80.094C97.8791 79.842 98.5651 79.716 99.3118 79.716C100.049 79.716 100.73 79.842 101.356 80.094C101.981 80.3366 102.522 80.682 102.98 81.13C103.446 81.578 103.806 82.1053 104.058 82.712C104.319 83.3186 104.45 83.9813 104.45 84.7C104.45 85.4186 104.319 86.0813 104.058 86.688C103.806 87.2946 103.446 87.822 102.98 88.27C102.522 88.718 101.981 89.068 101.356 89.32C100.73 89.5626 100.049 89.684 99.3118 89.684ZM99.3118 88.76C99.8998 88.76 100.441 88.662 100.936 88.466C101.44 88.2606 101.874 87.976 102.238 87.612C102.611 87.2386 102.9 86.8093 103.106 86.324C103.311 85.8293 103.414 85.288 103.414 84.7C103.414 84.112 103.311 83.5753 103.106 83.09C102.9 82.5953 102.611 82.166 102.238 81.802C101.874 81.4286 101.44 81.144 100.936 80.948C100.441 80.7426 99.8998 80.64 99.3118 80.64C98.7238 80.64 98.1778 80.7426 97.6738 80.948C97.1698 81.144 96.7311 81.4286 96.3578 81.802C95.9938 82.166 95.7044 82.5953 95.4898 83.09C95.2844 83.5753 95.1818 84.112 95.1818 84.7C95.1818 85.2786 95.2844 85.8153 95.4898 86.31C95.7044 86.8046 95.9938 87.2386 96.3578 87.612C96.7311 87.976 97.1698 88.2606 97.6738 88.466C98.1778 88.662 98.7238 88.76 99.3118 88.76ZM106.922 89.6V79.8H115.168V89.6H114.146V80.416L114.412 80.696H107.678L107.944 80.416V89.6H106.922ZM117.61 89.684C117.48 89.684 117.354 89.6746 117.232 89.656C117.111 89.6466 116.976 89.6233 116.826 89.586L116.91 88.662C117.069 88.6993 117.223 88.718 117.372 88.718C117.792 88.718 118.128 88.5546 118.38 88.228C118.642 87.892 118.838 87.3786 118.968 86.688C119.099 85.988 119.183 85.092 119.22 84L119.36 79.8H126.01V89.6H124.988V80.416L125.254 80.696H120.018L120.27 80.402L120.144 83.972C120.107 84.952 120.037 85.8013 119.934 86.52C119.832 87.2293 119.682 87.822 119.486 88.298C119.29 88.7646 119.038 89.1146 118.73 89.348C118.422 89.572 118.049 89.684 117.61 89.684ZM127.874 89.6L132.354 79.8H133.376L137.856 89.6H136.764L132.648 80.402H133.068L128.952 89.6H127.874ZM129.638 86.982L129.946 86.142H135.644L135.952 86.982H129.638ZM141.188 89.6V80.416L141.468 80.696H137.744V79.8H145.654V80.696H141.944L142.21 80.416V89.6H141.188ZM151.575 83.3C152.732 83.3 153.614 83.5613 154.221 84.084C154.837 84.5973 155.145 85.3626 155.145 86.38C155.145 87.4346 154.818 88.2373 154.165 88.788C153.511 89.3293 152.578 89.6 151.365 89.6H147.473V79.8H148.495V83.3H151.575ZM151.337 88.774C152.242 88.774 152.928 88.5733 153.395 88.172C153.871 87.7706 154.109 87.1826 154.109 86.408C154.109 85.6333 153.875 85.064 153.409 84.7C152.942 84.3266 152.251 84.14 151.337 84.14H148.495V88.774H151.337ZM156.839 89.6V79.8H157.861V89.6H156.839Z" fill="white"/>
<g clip-path="url(#clip0_3_66)">
<g clip-path="url(#clip1_3_66)">
<g clip-path="url(#clip2_3_66)">
<path d="M183.82 63.3363C183.82 64.1825 183.134 64.8716 182.284 64.8716C181.434 64.8716 180.749 64.1825 180.749 63.3363C180.749 62.4863 181.434 61.8009 182.284 61.8009C183.134 61.8009 183.82 62.4901 183.82 63.3363ZM206.869 32.43H197.006L195.605 30.0944V25.2586C195.605 24.9868 195.498 24.7264 195.306 24.535C195.115 24.3435 194.854 24.2363 194.582 24.2363H170.001C169.435 24.2363 168.975 24.6958 168.975 25.2586V30.0944L167.574 32.43H157.711C156.355 32.43 155.05 32.9699 154.089 33.9309C153.128 34.8919 152.588 36.1938 152.588 37.5529V63.1602C152.588 64.5155 153.128 65.8211 154.089 66.7822C155.05 67.7432 156.352 68.2831 157.711 68.2831H175.124V74.4284H166.931C166.364 74.4284 165.908 74.8878 165.908 75.4545V79.5513C165.908 79.8232 166.016 80.0836 166.207 80.275C166.399 80.4665 166.659 80.5736 166.931 80.5736H197.661C197.933 80.5736 198.193 80.4665 198.385 80.275C198.576 80.0836 198.683 79.8232 198.683 79.5513V75.4545C198.683 75.1827 198.576 74.9223 198.385 74.7308C198.193 74.5395 197.933 74.4322 197.661 74.4322H189.467V68.2869H206.881C208.236 68.2869 209.542 67.7471 210.503 66.786C211.464 65.8251 212.004 64.5232 212.004 63.164V37.5568C212.004 36.2014 211.464 34.8958 210.503 33.9347C209.542 32.9737 208.24 32.4338 206.881 32.4338L206.869 32.43ZM206.869 34.4784C207.685 34.4784 208.466 34.8039 209.04 35.3782C209.614 35.9525 209.94 36.7374 209.94 37.5491V58.0372H197.649V41.9638C198.316 40.9606 198.672 39.7813 198.672 38.5752C198.672 34.6507 198.794 35.5007 198.231 34.4784H206.865H206.869ZM185.359 58.0372H179.214V48.8173H185.359V58.0372ZM186.385 46.7689H178.191C177.625 46.7689 177.169 47.2284 177.169 47.7951V58.0372H168.975V43.8897C170.331 44.6708 171.931 44.9082 173.455 44.5521C174.979 44.1921 176.307 43.2694 177.173 41.9676C178.31 43.6829 180.232 44.7167 182.296 44.7167C184.356 44.7167 186.278 43.6829 187.419 41.9676C188.284 43.2732 189.613 44.196 191.137 44.5521C192.66 44.9082 194.261 44.6746 195.616 43.8897V58.0372H187.423V47.7951C187.423 47.5232 187.315 47.2629 187.124 47.0715C186.932 46.88 186.672 46.7728 186.4 46.7728L186.385 46.7689ZM196.627 38.5752C196.627 40.0379 195.846 41.3895 194.579 42.1246C193.311 42.8559 191.749 42.8559 190.482 42.1246C189.214 41.3933 188.433 40.0417 188.433 38.5752V36.5268H196.627V38.5752ZM186.385 38.5752C186.385 40.0379 185.604 41.3895 184.337 42.1246C183.069 42.8559 181.507 42.8559 180.24 42.1246C178.972 41.3933 178.191 40.0417 178.191 38.5752V36.5268H186.385V38.5752ZM185.546 31.4039L186.159 34.4746H178.413L179.026 31.4039H185.543H185.546ZM176.143 38.5752C176.143 40.0379 175.362 41.3895 174.094 42.1246C172.827 42.8559 171.265 42.8559 169.998 42.1246C168.73 41.3933 167.949 40.0417 167.949 38.5752V36.5268H176.143V38.5752ZM188.253 34.4784L187.641 31.4077H194L195.842 34.4784H188.253ZM171.024 26.2847H193.56V29.3555H171.024V26.2847ZM170.583 31.4077H176.943L176.33 34.4784H168.742L170.583 31.4077ZM154.636 37.5529C154.636 36.7374 154.962 35.9564 155.536 35.382C156.11 34.8077 156.895 34.4823 157.707 34.4823H166.341L166.042 34.9838C165.817 35.3514 165.92 35.7534 165.897 38.5791C165.897 39.7852 166.253 40.9644 166.919 41.9676V58.041H154.629V37.5529H154.636ZM196.635 78.5252H167.953V76.4768H196.635V78.5252ZM187.415 74.4284H177.173V68.2831H187.415V74.4284ZM206.877 66.2347H157.707C156.892 66.2347 156.11 65.9093 155.536 65.3349C154.962 64.7605 154.636 63.9756 154.636 63.164V60.0894H209.951V63.164C209.951 63.9796 209.626 64.7605 209.052 65.3349C208.477 65.9093 207.692 66.2347 206.881 66.2347H206.877Z" fill="#CACACA"/>
</g>
</g>
</g>
<path d="M23.5786 143.6V138.56L36.5386 126.32C37.5626 125.392 38.3146 124.56 38.7946 123.824C39.2746 123.088 39.5946 122.416 39.7546 121.808C39.9466 121.2 40.0426 120.64 40.0426 120.128C40.0426 118.784 39.5786 117.76 38.6506 117.056C37.7546 116.32 36.4266 115.952 34.6666 115.952C33.2586 115.952 31.9466 116.224 30.7306 116.768C29.5466 117.312 28.5386 118.16 27.7066 119.312L22.0426 115.664C23.3226 113.744 25.1146 112.224 27.4186 111.104C29.7226 109.984 32.3786 109.424 35.3866 109.424C37.8826 109.424 40.0586 109.84 41.9146 110.672C43.8026 111.472 45.2586 112.608 46.2826 114.08C47.3386 115.552 47.8666 117.312 47.8666 119.36C47.8666 120.448 47.7226 121.536 47.4346 122.624C47.1786 123.68 46.6346 124.8 45.8026 125.984C45.0026 127.168 43.8186 128.496 42.2506 129.968L31.4986 140.096L30.0106 137.264H48.9706V143.6H23.5786ZM63.4871 109.424C66.5911 109.424 69.2631 110.064 71.5031 111.344C73.7431 112.624 75.4711 114.496 76.6871 116.96C77.9031 119.392 78.5111 122.432 78.5111 126.08C78.5111 129.952 77.7751 133.232 76.3031 135.92C74.8631 138.608 72.8631 140.656 70.3031 142.064C67.7431 143.472 64.7671 144.176 61.3751 144.176C59.6151 144.176 57.9191 143.984 56.2871 143.6C54.6551 143.216 53.2471 142.64 52.0631 141.872L54.9431 136.16C55.8711 136.8 56.8631 137.248 57.9191 137.504C58.9751 137.728 60.0791 137.84 61.2311 137.84C64.1111 137.84 66.3991 136.96 68.0951 135.2C69.8231 133.44 70.6871 130.832 70.6871 127.376C70.6871 126.8 70.6711 126.16 70.6391 125.456C70.6071 124.752 70.5271 124.048 70.3991 123.344L72.5111 125.36C71.9671 126.608 71.1991 127.664 70.2071 128.528C69.2151 129.36 68.0631 130 66.7511 130.448C65.4391 130.864 63.9671 131.072 62.3351 131.072C60.1911 131.072 58.2391 130.64 56.4791 129.776C54.7511 128.912 53.3591 127.696 52.3031 126.128C51.2791 124.56 50.7671 122.72 50.7671 120.608C50.7671 118.304 51.3271 116.32 52.4471 114.656C53.5991 112.992 55.1351 111.712 57.0551 110.816C59.0071 109.888 61.1511 109.424 63.4871 109.424ZM63.9671 115.232C62.8471 115.232 61.8711 115.44 61.0391 115.856C60.2071 116.24 59.5511 116.816 59.0711 117.584C58.5911 118.32 58.3511 119.2 58.3511 120.224C58.3511 121.76 58.8631 122.992 59.8871 123.92C60.9431 124.816 62.3351 125.264 64.0631 125.264C65.1831 125.264 66.1751 125.056 67.0391 124.64C67.9351 124.192 68.6231 123.584 69.1031 122.816C69.5831 122.048 69.8231 121.184 69.8231 120.224C69.8231 119.264 69.5831 118.416 69.1031 117.68C68.6551 116.912 67.9991 116.32 67.1351 115.904C66.2711 115.456 65.2151 115.232 63.9671 115.232ZM86.9769 143.6L100.513 112.976L102.529 116.336H84.4329L87.8889 112.688V121.808H80.9769V110H107.905V115.04L95.4249 143.6H86.9769ZM121.494 144.176C119.158 144.176 116.838 143.872 114.534 143.264C112.262 142.624 110.31 141.728 108.678 140.576L111.75 134.624C113.03 135.552 114.502 136.288 116.166 136.832C117.862 137.376 119.574 137.648 121.302 137.648C123.254 137.648 124.79 137.264 125.91 136.496C127.03 135.728 127.59 134.656 127.59 133.28C127.59 132.416 127.366 131.648 126.918 130.976C126.47 130.304 125.67 129.792 124.518 129.44C123.398 129.088 121.814 128.912 119.766 128.912H111.174L112.902 110H133.398V116.24H115.686L119.718 112.688L118.518 126.176L114.486 122.624H121.59C124.918 122.624 127.59 123.088 129.606 124.016C131.654 124.912 133.142 126.144 134.07 127.712C134.998 129.28 135.462 131.056 135.462 133.04C135.462 135.024 134.966 136.864 133.974 138.56C132.982 140.224 131.446 141.584 129.366 142.64C127.318 143.664 124.694 144.176 121.494 144.176Z" fill="white"/>
<g clip-path="url(#clip3_3_66)">
<g clip-path="url(#clip4_3_66)">
<g clip-path="url(#clip5_3_66)">
<path d="M28.9885 191.215C23.2402 186.878 9.60963 187.4 3.51291 188.203L-2.66374 199.649C-3.86463 205.946 -6.57526 219.581 -7.81054 223.742C-9.3547 228.943 -6.78114 284.938 -6.26644 286.482C-5.85467 287.717 13.1207 301.065 22.5568 307.584C49.9586 308.957 105.924 311.702 110.571 311.702C116.38 311.702 178.576 312.217 178.576 311.702C178.576 311.29 215.592 294.717 234.099 286.482L247.481 248.394L234.099 189.409C231.487 193.023 207.317 231.572 200.786 239.403C194.253 247.233 185.761 236.993 178.576 229.765C171.391 222.537 171.39 222.537 164.205 223.742C157.019 224.947 141.995 208.081 138.076 202.661C134.157 197.24 113.907 195.433 104.762 190.614C95.6169 185.795 94.3105 204.468 87.7783 211.093C81.2461 217.719 72.101 208.081 66.8753 202.661C61.6495 197.24 60.343 197.24 51.198 199.649C42.0528 202.058 36.1739 196.636 28.9885 191.215Z" fill="url(#paint0_linear_3_66)" stroke="white" stroke-width="3.08821"/>
</g>
</g>
</g>
<defs>
<linearGradient id="paint0_linear_3_66" x1="119.835" y1="175.821" x2="119.835" y2="253.026" gradientUnits="userSpaceOnUse">
<stop stop-color="#CACACA"/>
<stop offset="1" stop-color="#CECECE" stop-opacity="0"/>
</linearGradient>
<clipPath id="clip0_3_66">
<rect width="60" height="60" fill="white" transform="translate(152.588 22.6)"/>
</clipPath>
<clipPath id="clip1_3_66">
<rect width="60" height="60" fill="white" transform="translate(152.588 22.6)"/>
</clipPath>
<clipPath id="clip2_3_66">
<rect width="60" height="56.7273" fill="white" transform="translate(152.588 24.2363)"/>
</clipPath>
<clipPath id="clip3_3_66">
<rect width="230.593" height="86.47" fill="white" transform="translate(1.99457 185.6)"/>
</clipPath>
<clipPath id="clip4_3_66">
<rect width="230.59" height="86.47" fill="white" transform="translate(1.99457 185.6)"/>
</clipPath>
<clipPath id="clip5_3_66">
<rect width="230.587" height="86.47" fill="white" transform="translate(1.99623 185.6)"/>
</clipPath>
</defs>
</svg>
