<svg width="232" height="184" viewBox="0 0 232 184" fill="none" xmlns="http://www.w3.org/2000/svg">
<path d="M24.4076 87.6V78.416L24.6876 78.696H20.9636V77.8H28.8736V78.696H25.1636L25.4296 78.416V87.6H24.4076ZM31.616 82.182H36.796V83.064H31.616V82.182ZM31.728 86.704H37.622V87.6H30.692V77.8H37.412V78.696H31.728V86.704ZM39.9206 87.6V77.8H43.5886C44.4192 77.8 45.1332 77.9353 45.7306 78.206C46.3279 78.4673 46.7852 78.85 47.1026 79.354C47.4292 79.8486 47.5926 80.4506 47.5926 81.16C47.5926 81.8506 47.4292 82.448 47.1026 82.952C46.7852 83.4466 46.3279 83.8293 45.7306 84.1C45.1332 84.3706 44.4192 84.506 43.5886 84.506H40.4946L40.9566 84.016V87.6H39.9206ZM40.9566 84.1L40.4946 83.596H43.5606C44.5406 83.596 45.2826 83.386 45.7866 82.966C46.2999 82.5366 46.5566 81.9346 46.5566 81.16C46.5566 80.376 46.2999 79.7693 45.7866 79.34C45.2826 78.9106 44.5406 78.696 43.5606 78.696H40.4946L40.9566 78.206V84.1ZM49.7096 87.6V77.8H50.5636L55.0436 85.444H54.5956L59.0336 77.8H59.8876V87.6H58.8936V79.354H59.1316L55.0436 86.354H54.5536L50.4376 79.354H50.7036V87.6H49.7096ZM63.1901 87.6V77.8H64.2121V85.92L70.4841 77.8H71.4221V87.6H70.4001V79.494L64.1281 87.6H63.1901ZM81.8971 77.8H82.9191V87.6H81.8971V77.8ZM75.7651 87.6H74.7291V77.8H75.7651V87.6ZM81.9951 83.078H75.6531V82.168H81.9951V83.078ZM84.7852 87.6L89.2652 77.8H90.2872L94.7672 87.6H93.6752L89.5592 78.402H89.9792L85.8632 87.6H84.7852ZM86.5492 84.982L86.8572 84.142H92.5552L92.8632 84.982H86.5492ZM95.9312 87.684C95.8005 87.684 95.6745 87.6746 95.5532 87.656C95.4318 87.6466 95.2965 87.6233 95.1472 87.586L95.2312 86.662C95.3898 86.6993 95.5438 86.718 95.6932 86.718C96.1132 86.718 96.4492 86.5546 96.7012 86.228C96.9625 85.892 97.1585 85.3786 97.2892 84.688C97.4198 83.988 97.5038 83.092 97.5412 82L97.6812 77.8H104.331V87.6H103.309V78.416L103.575 78.696H98.3392L98.5912 78.402L98.4652 81.972C98.4278 82.952 98.3578 83.8013 98.2552 84.52C98.1525 85.2293 98.0032 85.822 97.8072 86.298C97.6112 86.7646 97.3592 87.1146 97.0512 87.348C96.7432 87.572 96.3698 87.684 95.9312 87.684Z" fill="white"/>
<g clip-path="url(#clip0_3_16)">
<g clip-path="url(#clip1_3_16)">
<g clip-path="url(#clip2_3_16)">
<path d="M186.858 77.0952H185.66V67.4888H183.675V77.0952H181.792V67.4888H179.804V77.0952H171.768V67.4888H168.987V77.5071C168.987 78.8139 170.049 79.8761 171.356 79.8761H187.27C188.577 79.8761 189.639 78.8139 189.639 77.5071V67.4888H186.858V77.0952Z" fill="#CACACA"/>
<path d="M190.042 25.7838H168.584C168.036 25.7838 167.59 26.2267 167.59 26.7779V37.0594C167.59 37.6075 168.036 38.0535 168.584 38.0535H190.042C190.59 38.0535 191.036 37.6075 191.036 37.0594V26.7779C191.036 26.2298 190.59 25.7838 190.042 25.7838ZM189.048 36.0653H169.578V27.7689H189.048V36.0653Z" fill="#CACACA"/>
<path d="M173.353 40.0255H168.689C168.141 40.0255 167.695 40.4684 167.695 41.0197V44.7451C167.695 45.2932 168.141 45.7392 168.689 45.7392H173.353C173.901 45.7392 174.347 45.2932 174.347 44.7451V41.0197C174.347 40.4715 173.901 40.0255 173.353 40.0255ZM172.359 43.7511H169.684V42.0137H172.359V43.7511Z" fill="#CACACA"/>
<path d="M181.643 40.0255H176.983C176.435 40.0255 175.989 40.4684 175.989 41.0197V44.7451C175.989 45.2932 176.435 45.7392 176.983 45.7392H181.643C182.192 45.7392 182.637 45.2932 182.637 44.7451V41.0197C182.637 40.4715 182.192 40.0255 181.643 40.0255ZM180.649 43.7511H177.974V42.0137H180.649V43.7511Z" fill="#CACACA"/>
<path d="M189.937 40.0255H185.276C184.728 40.0255 184.282 40.4684 184.282 41.0197V44.7451C184.282 45.2932 184.728 45.7392 185.276 45.7392H189.937C190.485 45.7392 190.931 45.2932 190.931 44.7451V41.0197C190.931 40.4715 190.488 40.0255 189.937 40.0255ZM188.943 43.7511H186.267V42.0137H188.943V43.7511Z" fill="#CACACA"/>
<path d="M173.353 47.7185H168.689C168.141 47.7185 167.695 48.1644 167.695 48.7126V52.438C167.695 52.9862 168.141 53.4322 168.689 53.4322H173.353C173.901 53.4322 174.347 52.9893 174.347 52.438V48.7126C174.347 48.1644 173.901 47.7185 173.353 47.7185ZM172.359 51.444H169.684V49.7066H172.359V51.444Z" fill="#CACACA"/>
<path d="M181.643 47.7185H176.983C176.435 47.7185 175.989 48.1644 175.989 48.7126V52.438C175.989 52.9862 176.435 53.4322 176.983 53.4322H181.643C182.192 53.4322 182.637 52.9893 182.637 52.438V48.7126C182.637 48.1644 182.192 47.7185 181.643 47.7185ZM180.649 51.444H177.974V49.7066H180.649V51.444Z" fill="#CACACA"/>
<path d="M189.937 47.7185H185.276C184.728 47.7185 184.282 48.1644 184.282 48.7126V52.438C184.282 52.9862 184.728 53.4322 185.276 53.4322H189.937C190.485 53.4322 190.931 52.9893 190.931 52.438V48.7126C190.931 48.1644 190.488 47.7185 189.937 47.7185ZM188.943 51.444H186.267V49.7066H188.943V51.444Z" fill="#CACACA"/>
<path d="M173.353 55.4047H168.689C168.141 55.4047 167.695 55.8506 167.695 56.3987V60.1243C167.695 60.6724 168.141 61.1183 168.689 61.1183H173.353C173.901 61.1183 174.347 60.6755 174.347 60.1243V56.3987C174.347 55.8506 173.901 55.4047 173.353 55.4047ZM172.359 59.1301H169.684V57.3929H172.359V59.1301Z" fill="#CACACA"/>
<path d="M181.643 55.4047H176.983C176.435 55.4047 175.989 55.8506 175.989 56.3987V60.1243C175.989 60.6724 176.435 61.1183 176.983 61.1183H181.643C182.192 61.1183 182.637 60.6755 182.637 60.1243V56.3987C182.637 55.8506 182.192 55.4047 181.643 55.4047ZM180.649 59.1301H177.974V57.3929H180.649V59.1301Z" fill="#CACACA"/>
<path d="M189.937 55.4047H185.276C184.728 55.4047 184.282 55.8506 184.282 56.3987V60.1243C184.282 60.6724 184.728 61.1183 185.276 61.1183H189.937C190.485 61.1183 190.931 60.6755 190.931 60.1243V56.3987C190.931 55.8506 190.488 55.4047 189.937 55.4047ZM188.943 59.1301H186.267V57.3929H188.943V59.1301Z" fill="#CACACA"/>
<path d="M196.545 26.2672H195.777V24.6568C195.777 22.4209 193.956 20.6 191.721 20.6H166.93C164.694 20.6 162.873 22.4209 162.873 24.6568V62.4383C162.873 64.6742 164.694 66.4952 166.93 66.4952H191.721C193.956 66.4952 195.777 64.6742 195.777 62.4383V60.8279H196.545C198.15 60.8279 199.45 59.5242 199.45 57.9232V29.1751C199.45 27.571 198.146 26.2703 196.545 26.2703V26.2672ZM192.993 62.4383C192.993 63.1413 192.42 63.7111 191.718 63.7111H166.927C166.224 63.7111 165.654 63.1382 165.654 62.4383V24.6568C165.654 23.9539 166.227 23.384 166.927 23.384H191.718C192.42 23.384 192.993 23.9569 192.993 24.6568V62.4383ZM197.465 57.9201C197.465 58.4279 197.053 58.8397 196.545 58.8397H195.774V28.2554H196.542C197.05 28.2554 197.462 28.6672 197.462 29.1751V57.9232L197.465 57.9201Z" fill="#CACACA"/>
<path d="M172.759 31.8391H186.078C186.626 31.8391 187.072 31.3962 187.072 30.845C187.072 30.2969 186.626 29.851 186.078 29.851H172.759C172.211 29.851 171.765 30.2938 171.765 30.845C171.765 31.3931 172.211 31.8391 172.759 31.8391Z" fill="#CACACA"/>
</g>
</g>
</g>
<path d="M27.8656 141.6V110.88L31.2256 114.24H21.1456V108H35.6416V141.6H27.8656ZM55.3784 142.176C52.6264 142.176 50.1624 141.504 47.9864 140.16C45.8104 138.784 44.0984 136.8 42.8504 134.208C41.6024 131.616 40.9784 128.48 40.9784 124.8C40.9784 121.12 41.6024 117.984 42.8504 115.392C44.0984 112.8 45.8104 110.832 47.9864 109.488C50.1624 108.112 52.6264 107.424 55.3784 107.424C58.1624 107.424 60.6264 108.112 62.7704 109.488C64.9464 110.832 66.6584 112.8 67.9064 115.392C69.1544 117.984 69.7784 121.12 69.7784 124.8C69.7784 128.48 69.1544 131.616 67.9064 134.208C66.6584 136.8 64.9464 138.784 62.7704 140.16C60.6264 141.504 58.1624 142.176 55.3784 142.176ZM55.3784 135.6C56.6904 135.6 57.8264 135.232 58.7864 134.496C59.7784 133.76 60.5464 132.592 61.0904 130.992C61.6664 129.392 61.9544 127.328 61.9544 124.8C61.9544 122.272 61.6664 120.208 61.0904 118.608C60.5464 117.008 59.7784 115.84 58.7864 115.104C57.8264 114.368 56.6904 114 55.3784 114C54.0984 114 52.9624 114.368 51.9704 115.104C51.0104 115.84 50.2424 117.008 49.6664 118.608C49.1224 120.208 48.8504 122.272 48.8504 124.8C48.8504 127.328 49.1224 129.392 49.6664 130.992C50.2424 132.592 51.0104 133.76 51.9704 134.496C52.9624 135.232 54.0984 135.6 55.3784 135.6ZM72.5811 141.6V136.56L85.5411 124.32C86.5651 123.392 87.3171 122.56 87.7971 121.824C88.2771 121.088 88.5971 120.416 88.7571 119.808C88.9491 119.2 89.0451 118.64 89.0451 118.128C89.0451 116.784 88.5811 115.76 87.6531 115.056C86.7571 114.32 85.4291 113.952 83.6691 113.952C82.2611 113.952 80.9491 114.224 79.7331 114.768C78.5491 115.312 77.5411 116.16 76.7091 117.312L71.0451 113.664C72.3251 111.744 74.1171 110.224 76.4211 109.104C78.7251 107.984 81.3811 107.424 84.3891 107.424C86.8851 107.424 89.0611 107.84 90.9171 108.672C92.8051 109.472 94.2611 110.608 95.2851 112.08C96.3411 113.552 96.8691 115.312 96.8691 117.36C96.8691 118.448 96.7251 119.536 96.4371 120.624C96.1811 121.68 95.6371 122.8 94.8051 123.984C94.0051 125.168 92.8211 126.496 91.2531 127.968L80.5011 138.096L79.0131 135.264H97.9731V141.6H72.5811ZM105.866 141.6V110.88L109.226 114.24H99.1456V108H113.642V141.6H105.866Z" fill="white"/>
<defs>
<clipPath id="clip0_3_16">
<rect width="60" height="60" fill="white" transform="translate(151.403 20.6)"/>
</clipPath>
<clipPath id="clip1_3_16">
<rect width="60" height="60" fill="white" transform="translate(151.403 20.6)"/>
</clipPath>
<clipPath id="clip2_3_16">
<rect width="37.0588" height="60" fill="white" transform="translate(162.873 20.6)"/>
</clipPath>
</defs>
</svg>
