<svg width="282" height="70" viewBox="0 0 282 70" fill="none" xmlns="http://www.w3.org/2000/svg">
<rect x="15.5" y="12.0601" width="47" height="47" rx="15.5" stroke="#1A599D" stroke-width="3"/>
<g clip-path="url(#clip0_3_275)">
<g clip-path="url(#clip1_3_275)">
<path d="M44.548 24.5651L41.67 24.5601C38.436 24.5601 36.347 26.6851 36.347 29.9741V32.4711H33.453C33.3938 32.4707 33.3351 32.4819 33.2803 32.5043C33.2255 32.5266 33.1756 32.5595 33.1336 32.6011C33.0915 32.6427 33.058 32.6922 33.0351 32.7468C33.0122 32.8013 33.0003 32.8599 33 32.9191V36.5361C33.0001 36.5953 33.012 36.654 33.0348 36.7087C33.0577 36.7633 33.0911 36.813 33.1332 36.8547C33.1753 36.8964 33.2252 36.9294 33.2801 36.9518C33.335 36.9741 33.3937 36.9855 33.453 36.9851H36.347V46.1111C36.3471 46.1702 36.3589 46.2288 36.3817 46.2834C36.4045 46.338 36.4379 46.3876 36.4799 46.4293C36.5218 46.471 36.5716 46.504 36.6264 46.5265C36.6812 46.5489 36.7398 46.5603 36.799 46.5601H40.575C40.6343 46.5605 40.693 46.5491 40.7479 46.5268C40.8028 46.5044 40.8527 46.4714 40.8948 46.4297C40.9369 46.388 40.9703 46.3383 40.9932 46.2837C41.016 46.229 41.0279 46.1703 41.028 46.1111V36.9851H44.411C44.661 36.9851 44.864 36.7851 44.864 36.5361L44.865 32.9191C44.8637 32.7997 44.8154 32.6856 44.7306 32.6016C44.6458 32.5176 44.5314 32.4703 44.412 32.4701H41.028V30.3551C41.028 29.3381 41.272 28.8221 42.608 28.8221H44.548C44.798 28.8221 45 28.6201 45 28.3721V25.0141C44.9997 24.955 44.9878 24.8965 44.965 24.842C44.9421 24.7875 44.9088 24.738 44.8668 24.6964C44.8248 24.6548 44.7751 24.6219 44.7204 24.5995C44.6657 24.5772 44.6071 24.5648 44.548 24.5651Z" fill="white"/>
</g>
</g>
<rect x="83.5" y="12.0601" width="47" height="47" rx="15.5" stroke="#1A599D" stroke-width="3"/>
<g clip-path="url(#clip2_3_275)">
<g clip-path="url(#clip3_3_275)">
<path d="M103.24 38.4231L102.893 43.4491C103.39 43.4491 103.605 43.2291 103.863 42.9661L106.193 40.6751L111.022 44.3121C111.907 44.8201 112.532 44.5521 112.77 43.4741L115.94 28.1991C116.221 26.8521 115.467 26.3251 114.604 26.6561L95.974 33.9921C94.704 34.4991 94.723 35.2281 95.759 35.5591L100.522 37.0821L111.584 29.9621C112.105 29.6081 112.578 29.8041 112.189 30.1591L103.24 38.4231Z" fill="white"/>
</g>
</g>
<rect x="151.5" y="12.0601" width="47" height="47" rx="15.5" stroke="#1A599D" stroke-width="3"/>
<g clip-path="url(#clip4_3_275)">
<g clip-path="url(#clip5_3_275)">
<path fill-rule="evenodd" clip-rule="evenodd" d="M164 34.4601C164 30.3351 164 28.2731 165.05 26.8271C165.389 26.36 165.8 25.9493 166.267 25.6101C167.713 24.5601 169.775 24.5601 173.9 24.5601H176.1C180.225 24.5601 182.287 24.5601 183.733 25.6101C184.2 25.9493 184.611 26.36 184.95 26.8271C186 28.2731 186 30.3351 186 34.4601V36.6601C186 40.7851 186 42.8471 184.95 44.2931C184.611 44.7601 184.2 45.1708 183.733 45.5101C182.287 46.5601 180.225 46.5601 176.1 46.5601H173.9C169.775 46.5601 167.713 46.5601 166.267 45.5101C165.8 45.1708 165.389 44.7601 165.05 44.2931C164 42.8471 164 40.7851 164 36.6601V34.4601ZM175 29.7371C174.229 29.727 173.463 29.8701 172.748 30.1582C172.033 30.4464 171.381 30.8737 170.833 31.4155C170.284 31.9572 169.848 32.6026 169.55 33.3142C169.253 34.0258 169.1 34.7893 169.1 35.5606C169.1 36.3318 169.253 37.0954 169.55 37.8069C169.848 38.5185 170.284 39.1639 170.833 39.7056C171.381 40.2474 172.033 40.6748 172.748 40.9629C173.463 41.251 174.229 41.3942 175 41.3841C176.531 41.364 177.993 40.7416 179.069 39.6517C180.145 38.5617 180.748 37.092 180.748 35.5606C180.748 34.0292 180.145 32.5594 179.069 31.4694C177.993 30.3795 176.531 29.7571 175 29.7371ZM175 39.2001C174.035 39.1987 173.11 38.8148 172.428 38.1325C171.745 37.4501 171.361 36.525 171.36 35.5601C171.361 34.595 171.745 33.6698 172.427 32.9874C173.11 32.305 174.035 31.9211 175 31.9201C175.965 31.9211 176.89 32.305 177.573 32.9874C178.255 33.6698 178.639 34.595 178.64 35.5601C178.639 36.525 178.255 37.4501 177.572 38.1325C176.89 38.8148 175.965 39.1987 175 39.2001ZM182.036 29.3001C182.036 29.5059 181.954 29.7032 181.809 29.8488C181.663 29.9943 181.466 30.0761 181.26 30.0761C181.054 30.0761 180.857 29.9943 180.711 29.8488C180.566 29.7032 180.484 29.5059 180.484 29.3001C180.484 29.0943 180.566 28.8969 180.711 28.7513C180.857 28.6058 181.054 28.5241 181.26 28.5241C181.466 28.5241 181.663 28.6058 181.809 28.7513C181.954 28.8969 182.036 29.0943 182.036 29.3001Z" fill="white"/>
</g>
</g>
<rect x="219.5" y="12.0601" width="47" height="47" rx="15.5" stroke="#1A599D" stroke-width="3"/>
<g clip-path="url(#clip6_3_275)">
<g clip-path="url(#clip7_3_275)">
<path fill-rule="evenodd" clip-rule="evenodd" d="M252.62 24.3101H233.446C232.529 24.3101 231.75 25.0354 231.75 25.929V45.1901C231.75 46.0846 232.261 46.8101 233.178 46.8101H252.352C253.271 46.8101 254.25 46.0846 254.25 45.1901V25.929C254.25 25.0354 253.539 24.3101 252.62 24.3101ZM240.321 32.8815H243.35V34.4254H243.384C243.845 33.5929 245.209 32.7476 246.896 32.7476C250.132 32.7476 251.036 34.4661 251.036 37.6494V43.5957H247.821V38.2354C247.821 36.8104 247.252 35.5601 245.922 35.5601C244.306 35.5601 243.536 36.654 243.536 38.4497V43.5957H240.321V32.8815ZM234.964 43.5957H238.179V32.8815H234.964V43.5957ZM238.58 29.1315C238.58 30.2415 237.681 31.1404 236.571 31.1404C235.461 31.1404 234.562 30.2415 234.562 29.1315C234.562 28.0215 235.461 27.1226 236.571 27.1226C237.681 27.1226 238.58 28.0215 238.58 29.1315Z" fill="white"/>
</g>
</g>
<defs>
<clipPath id="clip0_3_275">
<rect width="30" height="30" fill="white" transform="translate(24 20.5601)"/>
</clipPath>
<clipPath id="clip1_3_275">
<rect width="30" height="30" fill="white" transform="translate(24 20.5601)"/>
</clipPath>
<clipPath id="clip2_3_275">
<rect width="30" height="30" fill="white" transform="translate(92 20.5601)"/>
</clipPath>
<clipPath id="clip3_3_275">
<rect width="30" height="30" fill="white" transform="translate(92 20.5601)"/>
</clipPath>
<clipPath id="clip4_3_275">
<rect width="30" height="30" fill="white" transform="translate(160 20.5601)"/>
</clipPath>
<clipPath id="clip5_3_275">
<rect width="30" height="30" fill="white" transform="translate(160 20.5601)"/>
</clipPath>
<clipPath id="clip6_3_275">
<rect width="30" height="30" fill="white" transform="translate(228 20.5601)"/>
</clipPath>
<clipPath id="clip7_3_275">
<rect width="30" height="30" fill="white" transform="translate(228 20.5601)"/>
</clipPath>
</defs>
</svg>
