<svg width="280" height="301" viewBox="0 0 280 301" fill="none" xmlns="http://www.w3.org/2000/svg">
<path fill-rule="evenodd" clip-rule="evenodd" d="M196.193 166.579C196.193 187.549 191.375 203.175 181.747 213.357C172.12 223.539 157.244 228.628 137.189 228.628C118.452 228.628 104.236 223.538 94.5426 213.357C84.849 203.177 80.0028 187.823 80.0039 167.296V98.426C80.0061 97.651 80.3166 96.9083 80.8675 96.3601C81.4183 95.8119 82.1649 95.5027 82.9442 95.5H116.919C117.699 95.5022 118.446 95.8112 118.997 96.3595C119.548 96.9077 119.859 97.6507 119.861 98.426V168.801C119.861 177.183 121.42 183.633 124.593 188.184C126.167 190.26 128.197 191.951 130.529 193.129C132.86 194.306 135.431 194.938 138.045 194.977C140.66 195.016 143.249 194.461 145.614 193.354C147.98 192.247 150.061 190.617 151.697 188.589C154.798 184.319 156.344 178.026 156.334 169.711V156.532H196.193V166.579Z" fill="white"/>
<path fill-rule="evenodd" clip-rule="evenodd" d="M193.112 148.834H156.338V98.5642C156.34 97.7522 156.665 96.9741 157.243 96.4C157.82 95.8258 158.602 95.5022 159.419 95.5H164.923C164.929 103.743 168.225 111.646 174.088 117.473C179.95 123.299 187.899 126.572 196.187 126.572H196.195V148.834H193.112Z" fill="white"/>
<path fill-rule="evenodd" clip-rule="evenodd" d="M172.756 95.5H193.114C193.93 95.5022 194.713 95.8258 195.29 96.4C195.867 96.9741 196.193 97.7522 196.195 98.5642V118.838C189.979 118.838 184.017 116.381 179.621 112.009C175.225 107.638 172.756 101.708 172.756 95.5253V95.5Z" fill="#F4821F"/>
<path fill-rule="evenodd" clip-rule="evenodd" d="M203.001 246.836V246.872C203.001 247.413 202.84 247.943 202.538 248.393C202.235 248.843 201.806 249.195 201.303 249.402C200.8 249.609 200.247 249.664 199.712 249.558C199.178 249.453 198.688 249.192 198.303 248.81C197.918 248.427 197.655 247.939 197.549 247.408C197.443 246.877 197.497 246.327 197.705 245.826C197.914 245.326 198.266 244.899 198.719 244.598C199.172 244.297 199.704 244.136 200.248 244.136H202.999L203.001 246.836Z" fill="white"/>
<path fill-rule="evenodd" clip-rule="evenodd" d="M86.677 262.077C91.1747 262.077 93.3473 259.585 93.3473 255.928V247.113H90.1274V255.84C90.1274 256.755 89.762 257.633 89.1116 258.279C88.4612 258.926 87.5791 259.29 86.6592 259.29C85.7394 259.29 84.8573 258.926 84.2069 258.279C83.5565 257.633 83.1911 256.755 83.1911 255.84V247.113H80V255.955C80 259.569 82.1709 262.082 86.6703 262.082L86.677 262.077ZM112.775 261.812V259.058H105.64L112.621 249.619V247.106H101.519V249.862H108.499L101.519 259.272V261.8L112.775 261.812ZM127.814 262.077C129.08 262.106 130.33 261.783 131.422 261.144C132.514 260.506 133.406 259.576 133.996 258.461L131.284 257.162C130.954 257.799 130.456 258.334 129.843 258.711C129.23 259.088 128.526 259.291 127.805 259.299C126.56 259.238 125.385 258.702 124.526 257.804C123.666 256.906 123.187 255.713 123.187 254.473C123.187 253.232 123.666 252.039 124.526 251.141C125.385 250.243 126.56 249.707 127.805 249.646C128.525 249.659 129.227 249.864 129.84 250.24C130.452 250.616 130.951 251.149 131.284 251.783L133.996 250.46C133.406 249.346 132.514 248.419 131.421 247.784C130.329 247.15 129.079 246.832 127.814 246.868C126.791 246.838 125.772 247.012 124.818 247.381C123.864 247.749 122.993 248.304 122.259 249.013C121.525 249.722 120.941 250.571 120.542 251.508C120.143 252.446 119.938 253.454 119.938 254.472C119.938 255.49 120.143 256.497 120.542 257.435C120.941 258.372 121.525 259.221 122.259 259.93C122.993 260.639 123.864 261.194 124.818 261.563C125.772 261.931 126.791 262.105 127.814 262.075V262.077ZM155.305 261.812L149.611 247.113H145.667L139.949 261.812H143.539L144.469 259.321H150.807L151.715 261.812H155.305ZM149.943 256.567H145.333L147.638 250.241L149.943 256.567ZM176.549 265.5L171.126 256.218C172.095 255.985 172.951 255.42 173.543 254.622C174.135 253.824 174.425 252.844 174.361 251.854C174.386 251.208 174.273 250.564 174.03 249.965C173.786 249.366 173.418 248.824 172.949 248.377C172.48 247.929 171.921 247.585 171.309 247.368C170.697 247.151 170.045 247.065 169.398 247.116H162.482V261.815H165.629V256.59H167.933L172.936 265.496L176.549 265.5ZM168.932 253.838H165.63V249.872H168.921C169.201 249.843 169.483 249.872 169.751 249.958C170.018 250.045 170.264 250.186 170.473 250.373C170.681 250.56 170.848 250.789 170.963 251.044C171.077 251.299 171.136 251.575 171.136 251.855C171.136 252.134 171.077 252.411 170.963 252.666C170.848 252.921 170.681 253.15 170.473 253.337C170.264 253.524 170.018 253.665 169.751 253.751C169.483 253.838 169.201 253.867 168.921 253.838H168.932ZM188.358 261.815C192.989 261.815 196.202 258.906 196.202 254.477C196.202 250.047 192.982 247.116 188.358 247.116H182.53V261.815H188.358ZM188.358 259.061H185.677V249.872H188.358C188.977 249.826 189.6 249.914 190.182 250.13C190.765 250.345 191.294 250.683 191.734 251.12C192.173 251.557 192.513 252.083 192.729 252.662C192.946 253.241 193.035 253.86 192.989 254.477C193.015 255.088 192.913 255.698 192.688 256.268C192.464 256.838 192.122 257.355 191.686 257.786C191.249 258.217 190.727 258.553 190.152 258.772C189.578 258.991 188.964 259.088 188.349 259.058L188.358 259.061Z" fill="white"/>
</svg>
