<svg width="1200" height="682" viewBox="0 0 1200 682" fill="none" xmlns="http://www.w3.org/2000/svg">
<path d="M127.136 61.884C123.765 61.884 120.651 61.3293 117.792 60.22C114.933 59.068 112.459 57.468 110.368 55.42C108.277 53.372 106.635 50.9613 105.44 48.188C104.288 45.4147 103.712 42.3853 103.712 39.1C103.712 35.8147 104.288 32.7853 105.44 30.012C106.635 27.2387 108.277 24.828 110.368 22.78C112.501 20.732 114.997 19.1533 117.856 18.044C120.715 16.892 123.829 16.316 127.2 16.316C130.443 16.316 133.493 16.8707 136.352 17.98C139.211 19.0467 141.621 20.668 143.584 22.844L140.576 25.852C138.741 23.9747 136.715 22.6307 134.496 21.82C132.277 20.9667 129.888 20.54 127.328 20.54C124.64 20.54 122.144 21.0093 119.84 21.948C117.536 22.844 115.531 24.1453 113.824 25.852C112.117 27.516 110.773 29.4787 109.792 31.74C108.853 33.9587 108.384 36.412 108.384 39.1C108.384 41.788 108.853 44.2627 109.792 46.524C110.773 48.7427 112.117 50.7053 113.824 52.412C115.531 54.076 117.536 55.3773 119.84 56.316C122.144 57.212 124.64 57.66 127.328 57.66C129.888 57.66 132.277 57.2333 134.496 56.38C136.715 55.5267 138.741 54.1613 140.576 52.284L143.584 55.292C141.621 57.468 139.211 59.1107 136.352 60.22C133.493 61.3293 130.421 61.884 127.136 61.884ZM161.698 61.5V19.516L162.978 20.796H145.954V16.7H182.114V20.796H165.154L166.37 19.516V61.5H161.698ZM181.585 61.5L202.065 16.7H206.737L227.217 61.5H222.225L203.409 19.452H205.329L186.513 61.5H181.585ZM189.649 49.532L191.057 45.692H217.105L218.513 49.532H189.649ZM242.448 61.5V19.516L243.728 20.796H226.704V16.7H262.864V20.796H245.904L247.12 19.516V61.5H242.448ZM271.177 61.5V16.7H275.849V53.82L304.521 16.7H308.809V61.5H304.137V24.444L275.465 61.5H271.177ZM343.511 61.884C340.14 61.884 337.026 61.3293 334.167 60.22C331.308 59.068 328.834 57.468 326.743 55.42C324.652 53.372 323.01 50.9613 321.815 48.188C320.663 45.4147 320.087 42.3853 320.087 39.1C320.087 35.8147 320.663 32.7853 321.815 30.012C323.01 27.2387 324.652 24.828 326.743 22.78C328.876 20.732 331.372 19.1533 334.231 18.044C337.09 16.892 340.204 16.316 343.575 16.316C346.818 16.316 349.868 16.8707 352.727 17.98C355.586 19.0467 357.996 20.668 359.959 22.844L356.951 25.852C355.116 23.9747 353.09 22.6307 350.871 21.82C348.652 20.9667 346.263 20.54 343.703 20.54C341.015 20.54 338.519 21.0093 336.215 21.948C333.911 22.844 331.906 24.1453 330.199 25.852C328.492 27.516 327.148 29.4787 326.167 31.74C325.228 33.9587 324.759 36.412 324.759 39.1C324.759 41.788 325.228 44.2627 326.167 46.524C327.148 48.7427 328.492 50.7053 330.199 52.412C331.906 54.076 333.911 55.3773 336.215 56.316C338.519 57.212 341.015 57.66 343.703 57.66C346.263 57.66 348.652 57.2333 350.871 56.38C353.09 55.5267 355.116 54.1613 356.951 52.284L359.959 55.292C357.996 57.468 355.586 59.1107 352.727 60.22C349.868 61.3293 346.796 61.884 343.511 61.884ZM378.073 61.5V19.516L379.353 20.796H362.329V16.7H398.489V20.796H381.529L382.745 19.516V61.5H378.073ZM406.802 61.5V16.7H411.474V53.82L440.146 16.7H444.434V61.5H439.762V24.444L411.09 61.5H406.802ZM490.208 61.5L472.992 39.164L476.832 36.86L495.648 61.5H490.208ZM459.552 61.5V16.7H464.16V61.5H459.552ZM462.752 40.956V36.796H476.768V40.956H462.752ZM477.216 39.612L472.864 38.844L489.568 16.7H494.688L477.216 39.612ZM495.835 61.5L516.315 16.7H520.987L541.467 61.5H536.475L517.659 19.452H519.579L500.763 61.5H495.835ZM503.899 49.532L505.307 45.692H531.355L532.763 49.532H503.899Z" fill="white"/>
<path d="M105.712 109.6V95.08L106.6 95.968H100.36V92.8H114.928V95.968H108.688L109.552 95.08V109.6H105.712ZM116.869 109.6V92.8H124.141C125.645 92.8 126.941 93.048 128.029 93.544C129.117 94.024 129.957 94.72 130.549 95.632C131.141 96.544 131.437 97.632 131.437 98.896C131.437 100.144 131.141 101.224 130.549 102.136C129.957 103.048 129.117 103.752 128.029 104.248C126.941 104.728 125.645 104.968 124.141 104.968H119.029L120.757 103.216V109.6H116.869ZM120.757 103.648L119.029 101.8H123.925C125.125 101.8 126.021 101.544 126.613 101.032C127.205 100.52 127.501 99.808 127.501 98.896C127.501 97.968 127.205 97.248 126.613 96.736C126.021 96.224 125.125 95.968 123.925 95.968H119.029L120.757 94.12V103.648ZM130.762 109.6L138.25 92.8H142.09L149.602 109.6H145.522L139.378 94.768H140.914L134.746 109.6H130.762ZM134.506 106L135.538 103.048H144.178L145.234 106H134.506ZM162.85 92.8H166.738V109.6H162.85V92.8ZM155.218 109.6H151.33V92.8H155.218V109.6ZM163.138 102.712H154.93V99.424H163.138V102.712ZM168.935 108.112L170.135 105.328C170.855 105.76 171.623 106.096 172.439 106.336C173.271 106.56 174.079 106.688 174.863 106.72C175.663 106.736 176.383 106.656 177.023 106.48C177.679 106.304 178.199 106.04 178.583 105.688C178.983 105.336 179.183 104.888 179.183 104.344C179.183 103.704 178.919 103.232 178.391 102.928C177.863 102.608 177.159 102.448 176.279 102.448H172.175V99.52H175.991C176.775 99.52 177.383 99.36 177.815 99.04C178.263 98.72 178.487 98.28 178.487 97.72C178.487 97.24 178.327 96.856 178.007 96.568C177.687 96.264 177.247 96.04 176.687 95.896C176.143 95.752 175.527 95.688 174.839 95.704C174.151 95.72 173.439 95.832 172.703 96.04C171.967 96.248 171.263 96.536 170.591 96.904L169.415 93.904C170.503 93.344 171.647 92.96 172.847 92.752C174.063 92.528 175.231 92.472 176.351 92.584C177.487 92.68 178.511 92.936 179.423 93.352C180.335 93.752 181.063 94.28 181.607 94.936C182.151 95.592 182.423 96.368 182.423 97.264C182.423 98.064 182.215 98.776 181.799 99.4C181.383 100.024 180.799 100.504 180.047 100.84C179.311 101.176 178.463 101.344 177.503 101.344L177.599 100.48C178.719 100.48 179.687 100.672 180.503 101.056C181.335 101.424 181.975 101.944 182.423 102.616C182.887 103.272 183.119 104.032 183.119 104.896C183.119 105.696 182.903 106.416 182.471 107.056C182.055 107.68 181.479 108.208 180.743 108.64C180.007 109.072 179.167 109.392 178.223 109.6C177.279 109.808 176.271 109.896 175.199 109.864C174.143 109.832 173.079 109.68 172.007 109.408C170.935 109.12 169.911 108.688 168.935 108.112ZM183.801 109.6L191.289 92.8H195.129L202.641 109.6H198.561L192.417 94.768H193.953L187.785 109.6H183.801ZM187.545 106L188.577 103.048H197.217L198.273 106H187.545ZM215.241 109.6L210.009 101.512L213.153 99.616L219.657 109.6H215.241ZM204.321 109.6V92.8H208.185V109.6H204.321ZM207.057 102.832V99.592H212.913V102.832H207.057ZM213.513 101.632L209.937 101.2L215.385 92.8H219.489L213.513 101.632ZM220.979 109.6V92.8H224.843V106.432H232.331V92.8H236.195V109.6H220.979ZM235.019 113.152V108.688L235.859 109.6H232.331V106.432H238.595V113.152H235.019ZM240.658 109.6V92.8H244.522V103.744L252.538 92.8H256.186V109.6H252.346V98.68L244.33 109.6H240.658ZM259.869 109.6V92.8H263.733V103.744L271.749 92.8H275.397V109.6H271.557V98.68L263.541 109.6H259.869ZM285.377 109.6V92.8H293.201C295.153 92.8 296.673 93.176 297.761 93.928C298.849 94.68 299.393 95.752 299.393 97.144C299.393 98.52 298.881 99.592 297.857 100.36C296.833 101.112 295.473 101.488 293.777 101.488L294.233 100.48C296.121 100.48 297.585 100.856 298.625 101.608C299.665 102.36 300.185 103.448 300.185 104.872C300.185 106.344 299.625 107.504 298.505 108.352C297.401 109.184 295.785 109.6 293.657 109.6H285.377ZM289.241 106.72H293.513C294.409 106.72 295.089 106.544 295.553 106.192C296.017 105.84 296.249 105.296 296.249 104.56C296.249 103.856 296.017 103.336 295.553 103C295.089 102.648 294.409 102.472 293.513 102.472H289.241V106.72ZM289.241 99.76H292.865C293.713 99.76 294.353 99.592 294.785 99.256C295.217 98.904 295.433 98.392 295.433 97.72C295.433 97.048 295.217 96.544 294.785 96.208C294.353 95.856 293.713 95.68 292.865 95.68H289.241V99.76ZM309.057 109.6V92.8H312.273L319.425 104.656H317.721L324.753 92.8H327.969L327.993 109.6H324.345L324.321 98.392H325.017L319.377 107.824H317.649L311.889 98.392H312.705V109.6H309.057ZM331.666 109.6V92.8H335.53V103.744L343.546 92.8H347.194V109.6H343.354V98.68L335.338 109.6H331.666ZM362.397 92.8H366.285V109.6H362.397V92.8ZM354.765 109.6H350.877V92.8H354.765V109.6ZM362.685 102.712H354.477V99.424H362.685V102.712ZM370.57 106.432C371.498 106.704 372.274 106.784 372.898 106.672C373.538 106.544 374.106 106.096 374.602 105.328L375.418 104.104L375.778 103.696L381.346 92.8H385.162L378.01 106.096C377.37 107.296 376.61 108.216 375.73 108.856C374.866 109.496 373.914 109.856 372.874 109.936C371.834 110.032 370.754 109.848 369.634 109.384L370.57 106.432ZM375.706 106.936L368.122 92.8H372.274L377.842 104.08L375.706 106.936ZM390.157 109.6V95.08L391.045 95.968H384.805V92.8H399.373V95.968H393.133L393.997 95.08V109.6H390.157ZM401.164 106.432C402.092 106.704 402.868 106.784 403.492 106.672C404.132 106.544 404.7 106.096 405.196 105.328L406.012 104.104L406.372 103.696L411.94 92.8H415.756L408.604 106.096C407.964 107.296 407.204 108.216 406.324 108.856C405.46 109.496 404.508 109.856 403.468 109.936C402.428 110.032 401.348 109.848 400.228 109.384L401.164 106.432ZM406.3 106.936L398.716 92.8H402.868L408.436 104.08L406.3 106.936Z" fill="white"/>
<path d="M100.78 144.6V143.58L106.6 137.88C107.133 137.36 107.533 136.907 107.8 136.52C108.067 136.12 108.247 135.747 108.34 135.4C108.433 135.053 108.48 134.727 108.48 134.42C108.48 133.607 108.2 132.967 107.64 132.5C107.093 132.033 106.28 131.8 105.2 131.8C104.373 131.8 103.64 131.927 103 132.18C102.373 132.433 101.833 132.827 101.38 133.36L100.36 132.48C100.907 131.84 101.607 131.347 102.46 131C103.313 130.653 104.267 130.48 105.32 130.48C106.267 130.48 107.087 130.633 107.78 130.94C108.473 131.233 109.007 131.667 109.38 132.24C109.767 132.813 109.96 133.487 109.96 134.26C109.96 134.713 109.893 135.16 109.76 135.6C109.64 136.04 109.413 136.507 109.08 137C108.76 137.48 108.287 138.027 107.66 138.64L102.32 143.88L101.92 143.32H110.6V144.6H100.78ZM117.948 144.72C116.868 144.72 115.908 144.44 115.068 143.88C114.228 143.307 113.568 142.493 113.088 141.44C112.608 140.373 112.368 139.093 112.368 137.6C112.368 136.107 112.608 134.833 113.088 133.78C113.568 132.713 114.228 131.9 115.068 131.34C115.908 130.767 116.868 130.48 117.948 130.48C119.028 130.48 119.988 130.767 120.828 131.34C121.668 131.9 122.328 132.713 122.808 133.78C123.301 134.833 123.548 136.107 123.548 137.6C123.548 139.093 123.301 140.373 122.808 141.44C122.328 142.493 121.668 143.307 120.828 143.88C119.988 144.44 119.028 144.72 117.948 144.72ZM117.948 143.4C118.775 143.4 119.495 143.18 120.108 142.74C120.721 142.287 121.201 141.633 121.548 140.78C121.895 139.913 122.068 138.853 122.068 137.6C122.068 136.347 121.895 135.293 121.548 134.44C121.201 133.573 120.721 132.92 120.108 132.48C119.495 132.027 118.775 131.8 117.948 131.8C117.148 131.8 116.435 132.027 115.808 132.48C115.181 132.92 114.695 133.573 114.348 134.44C114.001 135.293 113.828 136.347 113.828 137.6C113.828 138.853 114.001 139.913 114.348 140.78C114.695 141.633 115.181 142.287 115.808 142.74C116.435 143.18 117.148 143.4 117.948 143.4ZM125.35 144.6V143.58L131.17 137.88C131.704 137.36 132.104 136.907 132.37 136.52C132.637 136.12 132.817 135.747 132.91 135.4C133.004 135.053 133.05 134.727 133.05 134.42C133.05 133.607 132.77 132.967 132.21 132.5C131.664 132.033 130.85 131.8 129.77 131.8C128.944 131.8 128.21 131.927 127.57 132.18C126.944 132.433 126.404 132.827 125.95 133.36L124.93 132.48C125.477 131.84 126.177 131.347 127.03 131C127.884 130.653 128.837 130.48 129.89 130.48C130.837 130.48 131.657 130.633 132.35 130.94C133.044 131.233 133.577 131.667 133.95 132.24C134.337 132.813 134.53 133.487 134.53 134.26C134.53 134.713 134.464 135.16 134.33 135.6C134.21 136.04 133.984 136.507 133.65 137C133.33 137.48 132.857 138.027 132.23 138.64L126.89 143.88L126.49 143.32H135.17V144.6H125.35ZM136.288 140.92V139.88L143.708 130.6H145.308L137.948 139.88L137.168 139.64H148.428V140.92H136.288ZM144.188 144.6V140.92L144.228 139.64V136.4H145.628V144.6H144.188ZM150.106 139.8V138.56H155.346V139.8H150.106ZM163.319 144.72C162.239 144.72 161.279 144.44 160.439 143.88C159.599 143.307 158.939 142.493 158.459 141.44C157.979 140.373 157.739 139.093 157.739 137.6C157.739 136.107 157.979 134.833 158.459 133.78C158.939 132.713 159.599 131.9 160.439 131.34C161.279 130.767 162.239 130.48 163.319 130.48C164.399 130.48 165.359 130.767 166.199 131.34C167.039 131.9 167.699 132.713 168.179 133.78C168.673 134.833 168.919 136.107 168.919 137.6C168.919 139.093 168.673 140.373 168.179 141.44C167.699 142.493 167.039 143.307 166.199 143.88C165.359 144.44 164.399 144.72 163.319 144.72ZM163.319 143.4C164.146 143.4 164.866 143.18 165.479 142.74C166.093 142.287 166.573 141.633 166.919 140.78C167.266 139.913 167.439 138.853 167.439 137.6C167.439 136.347 167.266 135.293 166.919 134.44C166.573 133.573 166.093 132.92 165.479 132.48C164.866 132.027 164.146 131.8 163.319 131.8C162.519 131.8 161.806 132.027 161.179 132.48C160.553 132.92 160.066 133.573 159.719 134.44C159.373 135.293 159.199 136.347 159.199 137.6C159.199 138.853 159.373 139.913 159.719 140.78C160.066 141.633 160.553 142.287 161.179 142.74C161.806 143.18 162.519 143.4 163.319 143.4ZM173.285 144.6L179.325 131.24L179.765 131.88H171.105L171.845 131.18V134.5H170.425V130.6H180.705V131.62L174.845 144.6H173.285ZM181.766 139.8V138.56H187.006V139.8H181.766ZM194.979 144.72C193.899 144.72 192.939 144.44 192.099 143.88C191.259 143.307 190.599 142.493 190.119 141.44C189.639 140.373 189.399 139.093 189.399 137.6C189.399 136.107 189.639 134.833 190.119 133.78C190.599 132.713 191.259 131.9 192.099 131.34C192.939 130.767 193.899 130.48 194.979 130.48C196.059 130.48 197.019 130.767 197.859 131.34C198.699 131.9 199.359 132.713 199.839 133.78C200.333 134.833 200.579 136.107 200.579 137.6C200.579 139.093 200.333 140.373 199.839 141.44C199.359 142.493 198.699 143.307 197.859 143.88C197.019 144.44 196.059 144.72 194.979 144.72ZM194.979 143.4C195.806 143.4 196.526 143.18 197.139 142.74C197.753 142.287 198.233 141.633 198.579 140.78C198.926 139.913 199.099 138.853 199.099 137.6C199.099 136.347 198.926 135.293 198.579 134.44C198.233 133.573 197.753 132.92 197.139 132.48C196.526 132.027 195.806 131.8 194.979 131.8C194.179 131.8 193.466 132.027 192.839 132.48C192.213 132.92 191.726 133.573 191.379 134.44C191.033 135.293 190.859 136.347 190.859 137.6C190.859 138.853 191.033 139.913 191.379 140.78C191.726 141.633 192.213 142.287 192.839 142.74C193.466 143.18 194.179 143.4 194.979 143.4ZM207.062 144.72C206.062 144.72 205.108 144.56 204.202 144.24C203.295 143.907 202.575 143.467 202.042 142.92L202.742 141.78C203.182 142.247 203.782 142.633 204.542 142.94C205.315 143.247 206.148 143.4 207.042 143.4C208.228 143.4 209.128 143.14 209.742 142.62C210.368 142.087 210.682 141.393 210.682 140.54C210.682 139.94 210.535 139.427 210.242 139C209.962 138.56 209.482 138.22 208.802 137.98C208.122 137.74 207.188 137.62 206.002 137.62H203.022L203.742 130.6H211.402V131.88H204.322L205.062 131.18L204.442 137.06L203.702 136.34H206.322C207.735 136.34 208.868 136.513 209.722 136.86C210.575 137.207 211.188 137.693 211.562 138.32C211.948 138.933 212.142 139.653 212.142 140.48C212.142 141.267 211.955 141.987 211.582 142.64C211.208 143.28 210.648 143.787 209.902 144.16C209.155 144.533 208.208 144.72 207.062 144.72ZM224.784 144.72C223.704 144.72 222.744 144.44 221.904 143.88C221.064 143.307 220.404 142.493 219.924 141.44C219.444 140.373 219.204 139.093 219.204 137.6C219.204 136.107 219.444 134.833 219.924 133.78C220.404 132.713 221.064 131.9 221.904 131.34C222.744 130.767 223.704 130.48 224.784 130.48C225.864 130.48 226.824 130.767 227.664 131.34C228.504 131.9 229.164 132.713 229.644 133.78C230.137 134.833 230.384 136.107 230.384 137.6C230.384 139.093 230.137 140.373 229.644 141.44C229.164 142.493 228.504 143.307 227.664 143.88C226.824 144.44 225.864 144.72 224.784 144.72ZM224.784 143.4C225.611 143.4 226.331 143.18 226.944 142.74C227.557 142.287 228.037 141.633 228.384 140.78C228.731 139.913 228.904 138.853 228.904 137.6C228.904 136.347 228.731 135.293 228.384 134.44C228.037 133.573 227.557 132.92 226.944 132.48C226.331 132.027 225.611 131.8 224.784 131.8C223.984 131.8 223.271 132.027 222.644 132.48C222.017 132.92 221.531 133.573 221.184 134.44C220.837 135.293 220.664 136.347 220.664 137.6C220.664 138.853 220.837 139.913 221.184 140.78C221.531 141.633 222.017 142.287 222.644 142.74C223.271 143.18 223.984 143.4 224.784 143.4ZM234.75 144.6L240.79 131.24L241.23 131.88H232.57L233.31 131.18V134.5H231.89V130.6H242.17V131.62L236.31 144.6H234.75ZM244.757 136.18C244.463 136.18 244.21 136.073 243.997 135.86C243.797 135.647 243.697 135.387 243.697 135.08C243.697 134.76 243.797 134.5 243.997 134.3C244.21 134.1 244.463 134 244.757 134C245.05 134 245.297 134.1 245.497 134.3C245.71 134.5 245.817 134.76 245.817 135.08C245.817 135.387 245.71 135.647 245.497 135.86C245.297 136.073 245.05 136.18 244.757 136.18ZM244.757 144.7C244.463 144.7 244.21 144.593 243.997 144.38C243.797 144.167 243.697 143.907 243.697 143.6C243.697 143.28 243.797 143.02 243.997 142.82C244.21 142.62 244.463 142.52 244.757 142.52C245.05 142.52 245.297 142.62 245.497 142.82C245.71 143.02 245.817 143.28 245.817 143.6C245.817 143.907 245.71 144.167 245.497 144.38C245.297 144.593 245.05 144.7 244.757 144.7ZM252.335 144.72C251.335 144.72 250.382 144.56 249.475 144.24C248.568 143.907 247.848 143.467 247.315 142.92L248.015 141.78C248.455 142.247 249.055 142.633 249.815 142.94C250.588 143.247 251.422 143.4 252.315 143.4C253.502 143.4 254.402 143.14 255.015 142.62C255.642 142.087 255.955 141.393 255.955 140.54C255.955 139.94 255.808 139.427 255.515 139C255.235 138.56 254.755 138.22 254.075 137.98C253.395 137.74 252.462 137.62 251.275 137.62H248.295L249.015 130.6H256.675V131.88H249.595L250.335 131.18L249.715 137.06L248.975 136.34H251.595C253.008 136.34 254.142 136.513 254.995 136.86C255.848 137.207 256.462 137.693 256.835 138.32C257.222 138.933 257.415 139.653 257.415 140.48C257.415 141.267 257.228 141.987 256.855 142.64C256.482 143.28 255.922 143.787 255.175 144.16C254.428 144.533 253.482 144.72 252.335 144.72ZM259.003 140.92V139.88L266.423 130.6H268.023L260.663 139.88L259.883 139.64H271.143V140.92H259.003ZM266.903 144.6V140.92L266.943 139.64V136.4H268.343V144.6H266.903Z" fill="white"/>
<rect x="111.81" y="246.6" width="232.593" height="271.47" rx="32" stroke="#1A599D" stroke-width="2"/>
<path d="M136.408 334.6V325.416L136.688 325.696H132.964V324.8H140.874V325.696H137.164L137.43 325.416V334.6H136.408ZM143.616 329.182H148.796V330.064H143.616V329.182ZM143.728 333.704H149.622V334.6H142.692V324.8H149.412V325.696H143.728V333.704ZM151.921 334.6V324.8H155.589C156.419 324.8 157.133 324.935 157.731 325.206C158.328 325.467 158.785 325.85 159.103 326.354C159.429 326.849 159.593 327.451 159.593 328.16C159.593 328.851 159.429 329.448 159.103 329.952C158.785 330.447 158.328 330.829 157.731 331.1C157.133 331.371 156.419 331.506 155.589 331.506H152.495L152.957 331.016V334.6H151.921ZM152.957 331.1L152.495 330.596H155.561C156.541 330.596 157.283 330.386 157.787 329.966C158.3 329.537 158.557 328.935 158.557 328.16C158.557 327.376 158.3 326.769 157.787 326.34C157.283 325.911 156.541 325.696 155.561 325.696H152.495L152.957 325.206V331.1ZM161.71 334.6V324.8H162.564L167.044 332.444H166.596L171.034 324.8H171.888V334.6H170.894V326.354H171.132L167.044 333.354H166.554L162.438 326.354H162.704V334.6H161.71ZM175.19 334.6V324.8H176.212V332.92L182.484 324.8H183.422V334.6H182.4V326.494L176.128 334.6H175.19ZM193.897 324.8H194.919V334.6H193.897V324.8ZM187.765 334.6H186.729V324.8H187.765V334.6ZM193.995 330.078H187.653V329.168H193.995V330.078ZM196.785 334.6L201.265 324.8H202.287L206.767 334.6H205.675L201.559 325.402H201.979L197.863 334.6H196.785ZM198.549 331.982L198.857 331.142H204.555L204.863 331.982H198.549ZM207.931 334.684C207.8 334.684 207.674 334.675 207.553 334.656C207.432 334.647 207.296 334.623 207.147 334.586L207.231 333.662C207.39 333.699 207.544 333.718 207.693 333.718C208.113 333.718 208.449 333.555 208.701 333.228C208.962 332.892 209.158 332.379 209.289 331.688C209.42 330.988 209.504 330.092 209.541 329L209.681 324.8H216.331V334.6H215.309V325.416L215.575 325.696H210.339L210.591 325.402L210.465 328.972C210.428 329.952 210.358 330.801 210.255 331.52C210.152 332.229 210.003 332.822 209.807 333.298C209.611 333.765 209.359 334.115 209.051 334.348C208.743 334.572 208.37 334.684 207.931 334.684Z" fill="white"/>
<g clip-path="url(#clip0_3_4)">
<g clip-path="url(#clip1_3_4)">
<g clip-path="url(#clip2_3_4)">
<path d="M298.858 324.095H297.66V314.489H295.675V324.095H293.792V314.489H291.804V324.095H283.768V314.489H280.987V324.507C280.987 325.814 282.049 326.876 283.356 326.876H299.27C300.577 326.876 301.639 325.814 301.639 324.507V314.489H298.858V324.095Z" fill="#CACACA"/>
<path d="M302.042 272.784H280.584C280.036 272.784 279.59 273.227 279.59 273.778V284.059C279.59 284.608 280.036 285.053 280.584 285.053H302.042C302.59 285.053 303.036 284.608 303.036 284.059V273.778C303.036 273.23 302.59 272.784 302.042 272.784ZM301.048 283.065H281.578V274.769H301.048V283.065Z" fill="#CACACA"/>
<path d="M285.353 287.026H280.689C280.141 287.026 279.695 287.468 279.695 288.02V291.745C279.695 292.293 280.141 292.739 280.689 292.739H285.353C285.901 292.739 286.347 292.293 286.347 291.745V288.02C286.347 287.471 285.901 287.026 285.353 287.026ZM284.359 290.751H281.684V289.014H284.359V290.751Z" fill="#CACACA"/>
<path d="M293.643 287.026H288.983C288.435 287.026 287.989 287.468 287.989 288.02V291.745C287.989 292.293 288.435 292.739 288.983 292.739H293.643C294.192 292.739 294.637 292.293 294.637 291.745V288.02C294.637 287.471 294.192 287.026 293.643 287.026ZM292.649 290.751H289.974V289.014H292.649V290.751Z" fill="#CACACA"/>
<path d="M301.937 287.026H297.276C296.728 287.026 296.282 287.468 296.282 288.02V291.745C296.282 292.293 296.728 292.739 297.276 292.739H301.937C302.485 292.739 302.931 292.293 302.931 291.745V288.02C302.931 287.471 302.488 287.026 301.937 287.026ZM300.943 290.751H298.267V289.014H300.943V290.751Z" fill="#CACACA"/>
<path d="M285.353 294.719H280.689C280.141 294.719 279.695 295.164 279.695 295.713V299.438C279.695 299.986 280.141 300.432 280.689 300.432H285.353C285.901 300.432 286.347 299.989 286.347 299.438V295.713C286.347 295.164 285.901 294.719 285.353 294.719ZM284.359 298.444H281.684V296.707H284.359V298.444Z" fill="#CACACA"/>
<path d="M293.643 294.719H288.983C288.435 294.719 287.989 295.164 287.989 295.713V299.438C287.989 299.986 288.435 300.432 288.983 300.432H293.643C294.192 300.432 294.637 299.989 294.637 299.438V295.713C294.637 295.164 294.192 294.719 293.643 294.719ZM292.649 298.444H289.974V296.707H292.649V298.444Z" fill="#CACACA"/>
<path d="M301.937 294.719H297.276C296.728 294.719 296.282 295.164 296.282 295.713V299.438C296.282 299.986 296.728 300.432 297.276 300.432H301.937C302.485 300.432 302.931 299.989 302.931 299.438V295.713C302.931 295.164 302.488 294.719 301.937 294.719ZM300.943 298.444H298.267V296.707H300.943V298.444Z" fill="#CACACA"/>
<path d="M285.353 302.405H280.689C280.141 302.405 279.695 302.851 279.695 303.399V307.124C279.695 307.672 280.141 308.118 280.689 308.118H285.353C285.901 308.118 286.347 307.675 286.347 307.124V303.399C286.347 302.851 285.901 302.405 285.353 302.405ZM284.359 306.13H281.684V304.393H284.359V306.13Z" fill="#CACACA"/>
<path d="M293.643 302.405H288.983C288.435 302.405 287.989 302.851 287.989 303.399V307.124C287.989 307.672 288.435 308.118 288.983 308.118H293.643C294.192 308.118 294.637 307.675 294.637 307.124V303.399C294.637 302.851 294.192 302.405 293.643 302.405ZM292.649 306.13H289.974V304.393H292.649V306.13Z" fill="#CACACA"/>
<path d="M301.937 302.405H297.276C296.728 302.405 296.282 302.851 296.282 303.399V307.124C296.282 307.672 296.728 308.118 297.276 308.118H301.937C302.485 308.118 302.931 307.675 302.931 307.124V303.399C302.931 302.851 302.488 302.405 301.937 302.405ZM300.943 306.13H298.267V304.393H300.943V306.13Z" fill="#CACACA"/>
<path d="M308.545 273.267H307.777V271.657C307.777 269.421 305.956 267.6 303.721 267.6H278.93C276.694 267.6 274.873 269.421 274.873 271.657V309.438C274.873 311.674 276.694 313.495 278.93 313.495H303.721C305.956 313.495 307.777 311.674 307.777 309.438V307.828H308.545C310.15 307.828 311.45 306.524 311.45 304.923V276.175C311.45 274.571 310.146 273.27 308.545 273.27V273.267ZM304.993 309.438C304.993 310.141 304.42 310.711 303.718 310.711H278.927C278.224 310.711 277.654 310.138 277.654 309.438V271.657C277.654 270.954 278.227 270.384 278.927 270.384H303.718C304.42 270.384 304.993 270.957 304.993 271.657V309.438ZM309.465 304.92C309.465 305.428 309.053 305.84 308.545 305.84H307.774V275.255H308.542C309.05 275.255 309.462 275.667 309.462 276.175V304.923L309.465 304.92Z" fill="#CACACA"/>
<path d="M284.759 278.839H298.078C298.626 278.839 299.072 278.396 299.072 277.845C299.072 277.297 298.626 276.851 298.078 276.851H284.759C284.211 276.851 283.765 277.294 283.765 277.845C283.765 278.393 284.211 278.839 284.759 278.839Z" fill="#CACACA"/>
</g>
</g>
</g>
<path d="M139.866 388.6V357.88L143.226 361.24H133.146V355H147.642V388.6H139.866ZM167.378 389.176C164.626 389.176 162.162 388.504 159.986 387.16C157.81 385.784 156.098 383.8 154.85 381.208C153.602 378.616 152.978 375.48 152.978 371.8C152.978 368.12 153.602 364.984 154.85 362.392C156.098 359.8 157.81 357.832 159.986 356.488C162.162 355.112 164.626 354.424 167.378 354.424C170.162 354.424 172.626 355.112 174.77 356.488C176.946 357.832 178.658 359.8 179.906 362.392C181.154 364.984 181.778 368.12 181.778 371.8C181.778 375.48 181.154 378.616 179.906 381.208C178.658 383.8 176.946 385.784 174.77 387.16C172.626 388.504 170.162 389.176 167.378 389.176ZM167.378 382.6C168.69 382.6 169.826 382.232 170.786 381.496C171.778 380.76 172.546 379.592 173.09 377.992C173.666 376.392 173.954 374.328 173.954 371.8C173.954 369.272 173.666 367.208 173.09 365.608C172.546 364.008 171.778 362.84 170.786 362.104C169.826 361.368 168.69 361 167.378 361C166.098 361 164.962 361.368 163.97 362.104C163.01 362.84 162.242 364.008 161.666 365.608C161.122 367.208 160.85 369.272 160.85 371.8C160.85 374.328 161.122 376.392 161.666 377.992C162.242 379.592 163.01 380.76 163.97 381.496C164.962 382.232 166.098 382.6 167.378 382.6ZM184.581 388.6V383.56L197.541 371.32C198.565 370.392 199.317 369.56 199.797 368.824C200.277 368.088 200.597 367.416 200.757 366.808C200.949 366.2 201.045 365.64 201.045 365.128C201.045 363.784 200.581 362.76 199.653 362.056C198.757 361.32 197.429 360.952 195.669 360.952C194.261 360.952 192.949 361.224 191.733 361.768C190.549 362.312 189.541 363.16 188.709 364.312L183.045 360.664C184.325 358.744 186.117 357.224 188.421 356.104C190.725 354.984 193.381 354.424 196.389 354.424C198.885 354.424 201.061 354.84 202.917 355.672C204.805 356.472 206.261 357.608 207.285 359.08C208.341 360.552 208.869 362.312 208.869 364.36C208.869 365.448 208.725 366.536 208.437 367.624C208.181 368.68 207.637 369.8 206.805 370.984C206.005 372.168 204.821 373.496 203.253 374.968L192.501 385.096L191.013 382.264H209.973V388.6H184.581ZM217.866 388.6V357.88L221.226 361.24H211.146V355H225.642V388.6H217.866Z" fill="white"/>
<g clip-path="url(#clip3_3_4)">
<g clip-path="url(#clip4_3_4)">
<g clip-path="url(#clip5_3_4)">
<path d="M165.825 449.704C153.884 441.057 141.29 440.267 136.486 440.954C123.104 440.954 93.2506 443.018 85.53 446.041C77.8093 449.063 76.7799 456.85 71.1181 473.32C65.4563 489.791 59.7946 506.262 58.2504 534.056C56.7063 561.85 61.3387 545.894 81.4124 549.497C101.486 553.1 247.149 557.733 307.37 556.703C367.591 555.674 358.841 491.85 353.694 473.32C349.576 458.497 330.017 446.942 320.752 443.018C312.517 436.327 273.399 435.298 252.296 444.562C231.193 453.827 233.252 445.588 209.575 440.954C185.898 436.319 180.751 460.513 165.825 449.704Z" fill="url(#paint0_linear_3_4)" stroke="white" stroke-width="3.08826"/>
</g>
</g>
</g>
<rect x="366.402" y="246.6" width="232.593" height="271.47" rx="32" stroke="#1A599D" stroke-width="2"/>
<path d="M389.054 334.6V324.8H396.222V325.682H390.076V328.888H393.282C394.439 328.888 395.317 329.126 395.914 329.602C396.521 330.069 396.824 330.759 396.824 331.674C396.824 332.617 396.497 333.34 395.844 333.844C395.2 334.348 394.271 334.6 393.058 334.6H389.054ZM390.076 333.774H393.044C393.949 333.774 394.631 333.601 395.088 333.256C395.555 332.901 395.788 332.388 395.788 331.716C395.788 330.381 394.873 329.714 393.044 329.714H390.076V333.774ZM397.77 334.6L402.25 324.8H403.272L407.752 334.6H406.66L402.544 325.402H402.964L398.848 334.6H397.77ZM399.534 331.982L399.842 331.142H405.54L405.848 331.982H399.534ZM416.798 324.8H417.82V334.6H416.798V324.8ZM410.666 334.6H409.63V324.8H410.666V334.6ZM416.896 330.078H410.554V329.168H416.896V330.078ZM427.834 334.6L424.068 329.714L424.908 329.21L429.024 334.6H427.834ZM421.128 334.6V324.8H422.136V334.6H421.128ZM421.828 330.106V329.196H424.894V330.106H421.828ZM424.992 329.812L424.04 329.644L427.694 324.8H428.814L424.992 329.812ZM434.901 334.684C434.164 334.684 433.478 334.563 432.843 334.32C432.218 334.068 431.672 333.718 431.205 333.27C430.748 332.813 430.388 332.285 430.127 331.688C429.875 331.081 429.749 330.419 429.749 329.7C429.749 328.981 429.875 328.323 430.127 327.726C430.388 327.119 430.748 326.592 431.205 326.144C431.672 325.687 432.218 325.337 432.843 325.094C433.468 324.842 434.154 324.716 434.901 324.716C435.638 324.716 436.32 324.842 436.945 325.094C437.57 325.337 438.112 325.682 438.569 326.13C439.036 326.578 439.395 327.105 439.647 327.712C439.908 328.319 440.039 328.981 440.039 329.7C440.039 330.419 439.908 331.081 439.647 331.688C439.395 332.295 439.036 332.822 438.569 333.27C438.112 333.718 437.57 334.068 436.945 334.32C436.32 334.563 435.638 334.684 434.901 334.684ZM434.901 333.76C435.489 333.76 436.03 333.662 436.525 333.466C437.029 333.261 437.463 332.976 437.827 332.612C438.2 332.239 438.49 331.809 438.695 331.324C438.9 330.829 439.003 330.288 439.003 329.7C439.003 329.112 438.9 328.575 438.695 328.09C438.49 327.595 438.2 327.166 437.827 326.802C437.463 326.429 437.029 326.144 436.525 325.948C436.03 325.743 435.489 325.64 434.901 325.64C434.313 325.64 433.767 325.743 433.263 325.948C432.759 326.144 432.32 326.429 431.947 326.802C431.583 327.166 431.294 327.595 431.079 328.09C430.874 328.575 430.771 329.112 430.771 329.7C430.771 330.279 430.874 330.815 431.079 331.31C431.294 331.805 431.583 332.239 431.947 332.612C432.32 332.976 432.759 333.261 433.263 333.466C433.767 333.662 434.313 333.76 434.901 333.76ZM442.511 334.6V324.8H443.365L447.845 332.444H447.397L451.835 324.8H452.689V334.6H451.695V326.354H451.933L447.845 333.354H447.355L443.239 326.354H443.505V334.6H442.511ZM454.55 334.6L459.03 324.8H460.052L464.532 334.6H463.44L459.324 325.402H459.744L455.628 334.6H454.55ZM456.314 331.982L456.622 331.142H462.32L462.628 331.982H456.314ZM467.863 334.6V325.416L468.143 325.696H464.419V324.8H472.329V325.696H468.619L468.885 325.416V334.6H467.863ZM478.25 328.3C479.407 328.3 480.289 328.561 480.896 329.084C481.512 329.597 481.82 330.363 481.82 331.38C481.82 332.435 481.493 333.237 480.84 333.788C480.186 334.329 479.253 334.6 478.04 334.6H474.148V324.8H475.17V328.3H478.25ZM478.012 333.774C478.917 333.774 479.603 333.573 480.07 333.172C480.546 332.771 480.784 332.183 480.784 331.408C480.784 330.633 480.55 330.064 480.084 329.7C479.617 329.327 478.926 329.14 478.012 329.14H475.17V333.774H478.012ZM483.514 334.6V324.8H484.536V334.6H483.514Z" fill="white"/>
<g clip-path="url(#clip6_3_4)">
<g clip-path="url(#clip7_3_4)">
<g clip-path="url(#clip8_3_4)">
<path fill-rule="evenodd" clip-rule="evenodd" d="M561.567 302.878C561.567 302.208 566.943 287.317 567.56 285.724L570.956 276.248C571.205 275.444 571.006 275.525 572.212 275.525C574.103 275.525 575.428 276.849 575.428 278.741V325.031H561.564V302.874L561.567 302.878ZM538.916 282.455C538.916 283.293 539.51 283.446 540.153 283.446C540.945 283.446 541.78 280.368 541.995 279.717L543.495 275.525H568.991L560.744 298.716C560.553 299.279 559.584 301.809 559.584 302.135V325.031H535.819V296.441C536.366 296.587 537.048 297.307 538.418 297.307H544.977C546.493 297.307 547.699 296.005 547.699 294.091C547.699 292.727 546.336 291.368 544.977 291.368H539.778V288.026C539.778 284.652 536.592 281.467 533.219 281.467H524.554C521.181 281.467 517.995 284.652 517.995 288.026V302.506C517.995 303.869 519.358 305.228 520.718 305.228L521.954 305.106V325.035C521.951 326.115 521.859 327.014 522.946 327.014C523.543 327.014 523.934 326.624 523.934 326.023V290.377C523.934 289.779 523.543 289.389 522.946 289.389C521.621 289.389 521.954 291.024 521.954 292.36L521.947 302.254C521.755 303.67 519.975 303.452 519.975 302.139V288.772C519.975 285.617 522.073 283.45 525.297 283.45C527.705 283.45 533.204 283.132 534.953 283.944C535.489 284.193 536.255 284.763 536.615 285.253C537.79 286.839 537.798 287.52 537.798 290.135C537.798 293.842 536.875 293.382 543.618 293.352C544.054 293.352 545.72 293.168 545.72 294.343C545.72 294.833 545.157 295.335 544.606 295.335H539.035C537.549 295.335 536.362 294.473 535.995 293.298C535.543 291.858 536.427 289.393 534.823 289.393C534.226 289.393 533.835 289.783 533.835 290.38V326.276C533.835 326.574 534.279 327.018 534.578 327.018H576.412C577.013 327.018 577.403 326.628 577.403 326.027V278.128C577.403 275.846 575.106 273.549 572.824 273.549H542.749C541.776 273.549 541.658 274.583 541.401 275.299C541.053 276.271 538.908 281.961 538.908 282.462L538.916 282.455Z" fill="#CACACA"/>
<path fill-rule="evenodd" clip-rule="evenodd" d="M541.765 288.27C541.765 289.687 543.365 289.836 543.828 288.477L546.964 279.483H562.682L561.797 281.941C560.568 285.674 558.749 290.414 557.405 294.258C557.115 295.093 556.797 295.939 556.51 296.705C556.337 297.161 556.253 297.52 556.069 297.995C555.889 298.462 555.74 298.796 555.625 299.286C554.986 299.286 538.549 299.178 538.108 299.343C537.178 299.699 537.499 301.265 538.296 301.265H556.368C557.007 301.265 557.203 300.917 557.379 300.419L565.155 278.491C565.155 277.894 564.765 277.503 564.163 277.503H546.091C545.609 277.503 545.345 278.07 545.207 278.476C545.05 278.935 544.885 279.364 544.717 279.839L541.761 288.27H541.765Z" fill="#CACACA"/>
<path fill-rule="evenodd" clip-rule="evenodd" d="M524.933 273.787C524.791 273.056 525.297 271.651 526.013 270.908C527.579 269.277 529.964 269.158 531.526 270.659C533.153 272.225 533.276 274.611 531.771 276.173C530.692 277.298 529.061 277.838 527.449 277.206C526.453 276.816 525.347 275.686 525.105 274.599L524.929 273.784L524.933 273.787ZM522.954 273.045C522.954 274.917 523.26 276.379 524.657 277.777C528.417 281.541 534.834 278.715 534.834 273.787V273.045C534.834 270.391 532.039 267.6 529.39 267.6H528.398C525.749 267.6 522.954 270.395 522.954 273.045Z" fill="#CACACA"/>
<path fill-rule="evenodd" clip-rule="evenodd" d="M527.904 305.966V326.262C527.904 327.258 529.884 327.258 529.884 326.262V305.966C529.884 304.97 527.904 304.97 527.904 305.966Z" fill="#CACACA"/>
<path fill-rule="evenodd" clip-rule="evenodd" d="M549.687 304.236C549.687 305.53 551.168 305.228 552.658 305.228C553.986 305.228 553.986 303.248 552.658 303.248C551.168 303.248 549.687 302.942 549.687 304.236Z" fill="#CACACA"/>
<path fill-rule="evenodd" clip-rule="evenodd" d="M539.785 304.236C539.785 305.53 541.267 305.228 542.757 305.228C544.085 305.228 544.085 303.248 542.757 303.248C541.267 303.248 539.785 302.942 539.785 304.236Z" fill="#CACACA"/>
</g>
</g>
</g>
<path d="M404.298 389.176C401.226 389.176 398.554 388.536 396.282 387.256C394.042 385.976 392.314 384.104 391.098 381.64C389.882 379.176 389.274 376.136 389.274 372.52C389.274 368.648 389.994 365.368 391.434 362.68C392.906 359.992 394.922 357.944 397.482 356.536C400.074 355.128 403.05 354.424 406.41 354.424C408.202 354.424 409.914 354.616 411.546 355C413.178 355.384 414.586 355.96 415.77 356.728L412.89 362.44C411.962 361.8 410.97 361.368 409.914 361.144C408.858 360.888 407.754 360.76 406.602 360.76C403.69 360.76 401.386 361.64 399.69 363.4C397.994 365.16 397.146 367.768 397.146 371.224C397.146 371.8 397.146 372.44 397.146 373.144C397.178 373.848 397.274 374.552 397.434 375.256L395.274 373.24C395.882 371.992 396.666 370.952 397.626 370.12C398.586 369.256 399.722 368.616 401.034 368.2C402.378 367.752 403.85 367.528 405.45 367.528C407.626 367.528 409.578 367.96 411.306 368.824C413.034 369.688 414.41 370.904 415.434 372.472C416.49 374.04 417.018 375.88 417.018 377.992C417.018 380.264 416.442 382.248 415.29 383.944C414.17 385.608 412.65 386.904 410.73 387.832C408.842 388.728 406.698 389.176 404.298 389.176ZM403.866 383.368C404.954 383.368 405.914 383.176 406.746 382.792C407.61 382.376 408.282 381.784 408.762 381.016C409.242 380.248 409.482 379.368 409.482 378.376C409.482 376.84 408.954 375.624 407.898 374.728C406.874 373.8 405.498 373.336 403.77 373.336C402.618 373.336 401.61 373.56 400.746 374.008C399.882 374.424 399.194 375.016 398.682 375.784C398.202 376.52 397.962 377.384 397.962 378.376C397.962 379.336 398.202 380.2 398.682 380.968C399.162 381.704 399.834 382.296 400.698 382.744C401.562 383.16 402.618 383.368 403.866 383.368ZM419.049 388.6V383.56L432.009 371.32C433.033 370.392 433.785 369.56 434.265 368.824C434.745 368.088 435.065 367.416 435.225 366.808C435.417 366.2 435.513 365.64 435.513 365.128C435.513 363.784 435.049 362.76 434.121 362.056C433.225 361.32 431.897 360.952 430.137 360.952C428.729 360.952 427.417 361.224 426.201 361.768C425.017 362.312 424.009 363.16 423.177 364.312L417.513 360.664C418.793 358.744 420.585 357.224 422.889 356.104C425.193 354.984 427.849 354.424 430.857 354.424C433.353 354.424 435.529 354.84 437.385 355.672C439.273 356.472 440.729 357.608 441.753 359.08C442.809 360.552 443.337 362.312 443.337 364.36C443.337 365.448 443.193 366.536 442.905 367.624C442.649 368.68 442.105 369.8 441.273 370.984C440.473 372.168 439.289 373.496 437.721 374.968L426.969 385.096L425.481 382.264H444.441V388.6H419.049ZM461.069 389.176C458.253 389.176 455.789 388.76 453.677 387.928C451.565 387.064 449.917 385.864 448.733 384.328C447.549 382.76 446.957 380.936 446.957 378.856C446.957 376.776 447.533 375.016 448.685 373.576C449.869 372.104 451.517 371 453.629 370.264C455.741 369.496 458.221 369.112 461.069 369.112C463.949 369.112 466.445 369.496 468.557 370.264C470.701 371 472.349 372.104 473.501 373.576C474.685 375.016 475.277 376.776 475.277 378.856C475.277 380.936 474.685 382.76 473.501 384.328C472.317 385.864 470.653 387.064 468.509 387.928C466.397 388.76 463.917 389.176 461.069 389.176ZM461.069 383.464C463.021 383.464 464.557 383.032 465.677 382.168C466.829 381.304 467.405 380.12 467.405 378.616C467.405 377.112 466.829 375.944 465.677 375.112C464.557 374.248 463.021 373.816 461.069 373.816C459.149 373.816 457.629 374.248 456.509 375.112C455.389 375.944 454.829 377.112 454.829 378.616C454.829 380.12 455.389 381.304 456.509 382.168C457.629 383.032 459.149 383.464 461.069 383.464ZM461.069 373.048C458.477 373.048 456.205 372.696 454.253 371.992C452.333 371.288 450.829 370.264 449.741 368.92C448.685 367.544 448.157 365.912 448.157 364.024C448.157 362.04 448.701 360.344 449.789 358.936C450.877 357.496 452.397 356.392 454.349 355.624C456.301 354.824 458.541 354.424 461.069 354.424C463.661 354.424 465.917 354.824 467.837 355.624C469.789 356.392 471.309 357.496 472.397 358.936C473.517 360.344 474.077 362.04 474.077 364.024C474.077 365.912 473.533 367.544 472.445 368.92C471.389 370.264 469.885 371.288 467.933 371.992C465.981 372.696 463.693 373.048 461.069 373.048ZM461.069 368.488C462.701 368.488 463.981 368.12 464.909 367.384C465.869 366.648 466.349 365.64 466.349 364.36C466.349 363.016 465.853 361.976 464.861 361.24C463.901 360.504 462.637 360.136 461.069 360.136C459.533 360.136 458.285 360.504 457.325 361.24C456.365 361.976 455.885 363.016 455.885 364.36C455.885 365.64 456.349 366.648 457.277 367.384C458.205 368.12 459.469 368.488 461.069 368.488Z" fill="white"/>
<g clip-path="url(#clip9_3_4)">
<g clip-path="url(#clip10_3_4)">
<g clip-path="url(#clip11_3_4)">
<path d="M392.542 441.97C387.34 435.997 370.87 435.861 363.285 436.54C353.334 446.741 332.711 470.335 329.828 483.1C326.225 499.056 336.005 525.306 340.123 539.203C344.24 553.1 356.593 548.983 369.976 558.762C383.358 568.542 421.962 590.159 430.197 591.703C438.432 593.248 436.373 591.703 472.403 593.248C501.227 594.483 572.257 596.508 604.169 597.365L609.316 539.203L614.463 494.938L597.992 439.252C579.788 433.143 565.484 441.97 552.481 449.433C539.478 456.897 529.725 432.464 513.472 440.609C497.217 448.754 482.264 445.361 475.762 440.609C469.261 435.858 462.109 435.179 460.158 440.609C458.208 446.039 447.805 462.33 440.654 463.008C433.502 463.687 422.449 444.682 417.248 448.076C412.047 451.469 399.043 449.436 392.542 441.97Z" fill="url(#paint1_linear_3_4)" stroke="white" stroke-width="3.08826"/>
</g>
</g>
</g>
<rect x="620.995" y="246.6" width="232.593" height="271.47" rx="32" stroke="#1A599D" stroke-width="2"/>
<path d="M647.945 334.684C647.207 334.684 646.521 334.563 645.887 334.32C645.261 334.068 644.715 333.718 644.249 333.27C643.791 332.813 643.432 332.285 643.171 331.688C642.919 331.081 642.793 330.419 642.793 329.7C642.793 328.981 642.919 328.323 643.171 327.726C643.432 327.119 643.791 326.592 644.249 326.144C644.715 325.687 645.261 325.337 645.887 325.094C646.512 324.842 647.198 324.716 647.945 324.716C648.682 324.716 649.363 324.842 649.989 325.094C650.614 325.337 651.155 325.682 651.613 326.13C652.079 326.578 652.439 327.105 652.691 327.712C652.952 328.319 653.083 328.981 653.083 329.7C653.083 330.419 652.952 331.081 652.691 331.688C652.439 332.295 652.079 332.822 651.613 333.27C651.155 333.718 650.614 334.068 649.989 334.32C649.363 334.563 648.682 334.684 647.945 334.684ZM647.945 333.76C648.533 333.76 649.074 333.662 649.569 333.466C650.073 333.261 650.507 332.976 650.871 332.612C651.244 332.239 651.533 331.809 651.739 331.324C651.944 330.829 652.047 330.288 652.047 329.7C652.047 329.112 651.944 328.575 651.739 328.09C651.533 327.595 651.244 327.166 650.871 326.802C650.507 326.429 650.073 326.144 649.569 325.948C649.074 325.743 648.533 325.64 647.945 325.64C647.357 325.64 646.811 325.743 646.307 325.948C645.803 326.144 645.364 326.429 644.991 326.802C644.627 327.166 644.337 327.595 644.123 328.09C643.917 328.575 643.815 329.112 643.815 329.7C643.815 330.279 643.917 330.815 644.123 331.31C644.337 331.805 644.627 332.239 644.991 332.612C645.364 332.976 645.803 333.261 646.307 333.466C646.811 333.662 647.357 333.76 647.945 333.76ZM662.723 324.8H663.745V334.6H662.723V324.8ZM656.591 334.6H655.555V324.8H656.591V334.6ZM662.821 330.078H656.479V329.168H662.821V330.078ZM666.188 334.684C666.058 334.684 665.932 334.675 665.81 334.656C665.689 334.647 665.554 334.623 665.404 334.586L665.488 333.662C665.647 333.699 665.801 333.718 665.95 333.718C666.37 333.718 666.706 333.555 666.958 333.228C667.22 332.892 667.416 332.379 667.546 331.688C667.677 330.988 667.761 330.092 667.798 329L667.938 324.8H674.588V334.6H673.566V325.416L673.832 325.696H668.596L668.848 325.402L668.722 328.972C668.685 329.952 668.615 330.801 668.512 331.52C668.41 332.229 668.26 332.822 668.064 333.298C667.868 333.765 667.616 334.115 667.308 334.348C667 334.572 666.627 334.684 666.188 334.684ZM676.453 334.6L680.933 324.8H681.955L686.435 334.6H685.343L681.227 325.402H681.647L677.531 334.6H676.453ZM678.217 331.982L678.525 331.142H684.223L684.531 331.982H678.217ZM688.313 334.6V324.8H689.335V332.92L695.607 324.8H696.545V334.6H695.523V326.494L689.251 334.6H688.313ZM692.401 324.086C691.701 324.086 691.145 323.927 690.735 323.61C690.333 323.293 690.128 322.849 690.119 322.28H690.889C690.898 322.653 691.038 322.947 691.309 323.162C691.589 323.377 691.953 323.484 692.401 323.484C692.849 323.484 693.208 323.377 693.479 323.162C693.759 322.947 693.903 322.653 693.913 322.28H694.683C694.673 322.849 694.463 323.293 694.053 323.61C693.642 323.927 693.091 324.086 692.401 324.086ZM707.02 324.8H708.042V334.6H707.02V324.8ZM700.888 334.6H699.852V324.8H700.888V334.6ZM707.118 330.078H700.776V329.168H707.118V330.078ZM719.312 334.684C718.574 334.684 717.888 334.563 717.254 334.32C716.628 334.068 716.082 333.718 715.616 333.27C715.158 332.813 714.799 332.285 714.538 331.688C714.286 331.081 714.16 330.419 714.16 329.7C714.16 328.981 714.286 328.323 714.538 327.726C714.799 327.119 715.158 326.592 715.616 326.144C716.082 325.687 716.628 325.337 717.254 325.094C717.879 324.842 718.565 324.716 719.312 324.716C720.049 324.716 720.73 324.842 721.356 325.094C721.981 325.337 722.522 325.682 722.98 326.13C723.446 326.578 723.806 327.105 724.058 327.712C724.319 328.319 724.45 328.981 724.45 329.7C724.45 330.419 724.319 331.081 724.058 331.688C723.806 332.295 723.446 332.822 722.98 333.27C722.522 333.718 721.981 334.068 721.356 334.32C720.73 334.563 720.049 334.684 719.312 334.684ZM719.312 333.76C719.9 333.76 720.441 333.662 720.936 333.466C721.44 333.261 721.874 332.976 722.238 332.612C722.611 332.239 722.9 331.809 723.106 331.324C723.311 330.829 723.414 330.288 723.414 329.7C723.414 329.112 723.311 328.575 723.106 328.09C722.9 327.595 722.611 327.166 722.238 326.802C721.874 326.429 721.44 326.144 720.936 325.948C720.441 325.743 719.9 325.64 719.312 325.64C718.724 325.64 718.178 325.743 717.674 325.948C717.17 326.144 716.731 326.429 716.358 326.802C715.994 327.166 715.704 327.595 715.49 328.09C715.284 328.575 715.182 329.112 715.182 329.7C715.182 330.279 715.284 330.815 715.49 331.31C715.704 331.805 715.994 332.239 716.358 332.612C716.731 332.976 717.17 333.261 717.674 333.466C718.178 333.662 718.724 333.76 719.312 333.76ZM726.922 334.6V324.8H735.168V334.6H734.146V325.416L734.412 325.696H727.678L727.944 325.416V334.6H726.922ZM737.61 334.684C737.48 334.684 737.354 334.675 737.232 334.656C737.111 334.647 736.976 334.623 736.826 334.586L736.91 333.662C737.069 333.699 737.223 333.718 737.372 333.718C737.792 333.718 738.128 333.555 738.38 333.228C738.642 332.892 738.838 332.379 738.968 331.688C739.099 330.988 739.183 330.092 739.22 329L739.36 324.8H746.01V334.6H744.988V325.416L745.254 325.696H740.018L740.27 325.402L740.144 328.972C740.107 329.952 740.037 330.801 739.934 331.52C739.832 332.229 739.682 332.822 739.486 333.298C739.29 333.765 739.038 334.115 738.73 334.348C738.422 334.572 738.049 334.684 737.61 334.684ZM747.874 334.6L752.354 324.8H753.376L757.856 334.6H756.764L752.648 325.402H753.068L748.952 334.6H747.874ZM749.638 331.982L749.946 331.142H755.644L755.952 331.982H749.638ZM761.188 334.6V325.416L761.468 325.696H757.744V324.8H765.654V325.696H761.944L762.21 325.416V334.6H761.188ZM771.575 328.3C772.732 328.3 773.614 328.561 774.221 329.084C774.837 329.597 775.145 330.363 775.145 331.38C775.145 332.435 774.818 333.237 774.165 333.788C773.511 334.329 772.578 334.6 771.365 334.6H767.473V324.8H768.495V328.3H771.575ZM771.337 333.774C772.242 333.774 772.928 333.573 773.395 333.172C773.871 332.771 774.109 332.183 774.109 331.408C774.109 330.633 773.875 330.064 773.409 329.7C772.942 329.327 772.251 329.14 771.337 329.14H768.495V333.774H771.337ZM776.839 334.6V324.8H777.861V334.6H776.839Z" fill="white"/>
<g clip-path="url(#clip12_3_4)">
<g clip-path="url(#clip13_3_4)">
<g clip-path="url(#clip14_3_4)">
<path d="M803.82 308.336C803.82 309.182 803.134 309.872 802.284 309.872C801.434 309.872 800.749 309.182 800.749 308.336C800.749 307.486 801.434 306.801 802.284 306.801C803.134 306.801 803.82 307.49 803.82 308.336ZM826.869 277.43H817.006L815.605 275.094V270.259C815.605 269.987 815.498 269.726 815.306 269.535C815.115 269.344 814.854 269.236 814.582 269.236H790.001C789.435 269.236 788.975 269.696 788.975 270.259V275.094L787.574 277.43H777.711C776.355 277.43 775.05 277.97 774.089 278.931C773.128 279.892 772.588 281.194 772.588 282.553V308.16C772.588 309.516 773.128 310.821 774.089 311.782C775.05 312.743 776.352 313.283 777.711 313.283H795.124V319.428H786.931C786.364 319.428 785.908 319.888 785.908 320.455V324.551C785.908 324.823 786.016 325.084 786.207 325.275C786.399 325.466 786.659 325.574 786.931 325.574H817.661C817.933 325.574 818.193 325.466 818.385 325.275C818.576 325.084 818.683 324.823 818.683 324.551V320.455C818.683 320.183 818.576 319.922 818.385 319.731C818.193 319.539 817.933 319.432 817.661 319.432H809.467V313.287H826.881C828.236 313.287 829.542 312.747 830.503 311.786C831.464 310.825 832.004 309.523 832.004 308.164V282.557C832.004 281.201 831.464 279.896 830.503 278.935C829.542 277.974 828.24 277.434 826.881 277.434L826.869 277.43ZM826.869 279.478C827.685 279.478 828.466 279.804 829.04 280.378C829.614 280.952 829.94 281.737 829.94 282.549V303.037H817.649V286.964C818.316 285.961 818.672 284.781 818.672 283.575C818.672 279.651 818.794 280.501 818.231 279.478H826.865H826.869ZM805.359 303.037H799.214V293.817H805.359V303.037ZM806.385 291.769H798.191C797.625 291.769 797.169 292.228 797.169 292.795V303.037H788.975V288.89C790.331 289.671 791.931 289.908 793.455 289.552C794.979 289.192 796.307 288.269 797.173 286.968C798.31 288.683 800.232 289.717 802.296 289.717C804.356 289.717 806.278 288.683 807.419 286.968C808.284 288.273 809.613 289.196 811.137 289.552C812.66 289.908 814.261 289.675 815.616 288.89V303.037H807.423V292.795C807.423 292.523 807.315 292.263 807.124 292.071C806.932 291.88 806.672 291.773 806.4 291.773L806.385 291.769ZM816.627 283.575C816.627 285.038 815.846 286.389 814.579 287.125C813.311 287.856 811.749 287.856 810.482 287.125C809.214 286.393 808.433 285.042 808.433 283.575V281.527H816.627V283.575ZM806.385 283.575C806.385 285.038 805.604 286.389 804.337 287.125C803.069 287.856 801.507 287.856 800.24 287.125C798.972 286.393 798.191 285.042 798.191 283.575V281.527H806.385V283.575ZM805.546 276.404L806.159 279.475H798.413L799.026 276.404H805.543H805.546ZM796.143 283.575C796.143 285.038 795.362 286.389 794.094 287.125C792.827 287.856 791.265 287.856 789.998 287.125C788.73 286.393 787.949 285.042 787.949 283.575V281.527H796.143V283.575ZM808.253 279.478L807.641 276.408H814L815.842 279.478H808.253ZM791.024 271.285H813.56V274.355H791.024V271.285ZM790.583 276.408H796.943L796.33 279.478H788.742L790.583 276.408ZM774.636 282.553C774.636 281.737 774.962 280.956 775.536 280.382C776.11 279.808 776.895 279.482 777.707 279.482H786.341L786.042 279.984C785.817 280.351 785.92 280.753 785.897 283.579C785.897 284.785 786.253 285.964 786.919 286.968V303.041H774.629V282.553H774.636ZM816.635 323.525H787.953V321.477H816.635V323.525ZM807.415 319.428H797.173V313.283H807.415V319.428ZM826.877 311.235H777.707C776.892 311.235 776.11 310.909 775.536 310.335C774.962 309.761 774.636 308.976 774.636 308.164V305.089H829.951V308.164C829.951 308.98 829.626 309.761 829.052 310.335C828.477 310.909 827.692 311.235 826.881 311.235H826.877Z" fill="#CACACA"/>
</g>
</g>
</g>
<path d="M643.579 388.6V383.56L656.539 371.32C657.563 370.392 658.315 369.56 658.795 368.824C659.275 368.088 659.595 367.416 659.755 366.808C659.947 366.2 660.043 365.64 660.043 365.128C660.043 363.784 659.579 362.76 658.651 362.056C657.755 361.32 656.427 360.952 654.667 360.952C653.259 360.952 651.947 361.224 650.731 361.768C649.547 362.312 648.539 363.16 647.707 364.312L642.043 360.664C643.323 358.744 645.115 357.224 647.419 356.104C649.723 354.984 652.379 354.424 655.387 354.424C657.883 354.424 660.059 354.84 661.915 355.672C663.803 356.472 665.259 357.608 666.283 359.08C667.339 360.552 667.867 362.312 667.867 364.36C667.867 365.448 667.723 366.536 667.435 367.624C667.179 368.68 666.635 369.8 665.803 370.984C665.003 372.168 663.819 373.496 662.251 374.968L651.499 385.096L650.011 382.264H668.971V388.6H643.579ZM683.487 354.424C686.591 354.424 689.263 355.064 691.503 356.344C693.743 357.624 695.471 359.496 696.687 361.96C697.903 364.392 698.511 367.432 698.511 371.08C698.511 374.952 697.775 378.232 696.303 380.92C694.863 383.608 692.863 385.656 690.303 387.064C687.743 388.472 684.767 389.176 681.375 389.176C679.615 389.176 677.919 388.984 676.287 388.6C674.655 388.216 673.247 387.64 672.063 386.872L674.943 381.16C675.871 381.8 676.863 382.248 677.919 382.504C678.975 382.728 680.079 382.84 681.231 382.84C684.111 382.84 686.399 381.96 688.095 380.2C689.823 378.44 690.687 375.832 690.687 372.376C690.687 371.8 690.671 371.16 690.639 370.456C690.607 369.752 690.527 369.048 690.399 368.344L692.511 370.36C691.967 371.608 691.199 372.664 690.207 373.528C689.215 374.36 688.063 375 686.751 375.448C685.439 375.864 683.967 376.072 682.335 376.072C680.191 376.072 678.239 375.64 676.479 374.776C674.751 373.912 673.359 372.696 672.303 371.128C671.279 369.56 670.767 367.72 670.767 365.608C670.767 363.304 671.327 361.32 672.447 359.656C673.599 357.992 675.135 356.712 677.055 355.816C679.007 354.888 681.151 354.424 683.487 354.424ZM683.967 360.232C682.847 360.232 681.871 360.44 681.039 360.856C680.207 361.24 679.551 361.816 679.071 362.584C678.591 363.32 678.351 364.2 678.351 365.224C678.351 366.76 678.863 367.992 679.887 368.92C680.943 369.816 682.335 370.264 684.063 370.264C685.183 370.264 686.175 370.056 687.039 369.64C687.935 369.192 688.623 368.584 689.103 367.816C689.583 367.048 689.823 366.184 689.823 365.224C689.823 364.264 689.583 363.416 689.103 362.68C688.655 361.912 687.999 361.32 687.135 360.904C686.271 360.456 685.215 360.232 683.967 360.232ZM706.977 388.6L720.513 357.976L722.529 361.336H704.433L707.889 357.688V366.808H700.977V355H727.905V360.04L715.425 388.6H706.977ZM741.494 389.176C739.158 389.176 736.838 388.872 734.534 388.264C732.262 387.624 730.31 386.728 728.678 385.576L731.75 379.624C733.03 380.552 734.502 381.288 736.166 381.832C737.862 382.376 739.574 382.648 741.302 382.648C743.254 382.648 744.79 382.264 745.91 381.496C747.03 380.728 747.59 379.656 747.59 378.28C747.59 377.416 747.366 376.648 746.918 375.976C746.47 375.304 745.67 374.792 744.518 374.44C743.398 374.088 741.814 373.912 739.766 373.912H731.174L732.902 355H753.398V361.24H735.686L739.718 357.688L738.518 371.176L734.486 367.624H741.59C744.918 367.624 747.59 368.088 749.606 369.016C751.654 369.912 753.142 371.144 754.07 372.712C754.998 374.28 755.462 376.056 755.462 378.04C755.462 380.024 754.966 381.864 753.974 383.56C752.982 385.224 751.446 386.584 749.366 387.64C747.318 388.664 744.694 389.176 741.494 389.176Z" fill="white"/>
<g clip-path="url(#clip15_3_4)">
<g clip-path="url(#clip16_3_4)">
<g clip-path="url(#clip17_3_4)">
<path d="M648.988 436.215C643.24 431.878 629.61 432.4 623.513 433.203L617.336 444.649C616.135 450.946 613.425 464.581 612.189 468.742C610.645 473.943 613.219 529.938 613.734 531.482C614.145 532.717 633.121 546.065 642.557 552.584C669.959 553.957 725.924 556.702 730.571 556.702C736.38 556.702 798.576 557.217 798.576 556.702C798.576 556.29 835.592 539.717 854.099 531.482L867.481 493.394L854.099 434.409C851.487 438.023 827.317 476.572 820.786 484.403C814.253 492.233 805.761 481.993 798.576 474.765C791.391 467.537 791.39 467.537 784.205 468.742C777.019 469.947 761.995 453.081 758.076 447.661C754.157 442.24 733.907 440.433 724.762 435.614C715.617 430.795 714.31 449.468 707.778 456.093C701.246 462.719 692.101 453.081 686.875 447.661C681.65 442.24 680.343 442.24 671.198 444.649C662.053 447.058 656.174 441.636 648.988 436.215Z" fill="url(#paint2_linear_3_4)" stroke="white" stroke-width="3.08821"/>
</g>
</g>
</g>
<rect x="875.588" y="246.6" width="232.592" height="271.47" rx="32" stroke="#1A599D" stroke-width="2"/>
<path d="M902.538 318.684C901.8 318.684 901.114 318.563 900.48 318.32C899.854 318.068 899.308 317.718 898.842 317.27C898.384 316.813 898.025 316.285 897.764 315.688C897.512 315.081 897.386 314.419 897.386 313.7C897.386 312.981 897.512 312.323 897.764 311.726C898.025 311.119 898.384 310.592 898.842 310.144C899.308 309.687 899.854 309.337 900.48 309.094C901.105 308.842 901.791 308.716 902.538 308.716C903.275 308.716 903.956 308.842 904.582 309.094C905.207 309.337 905.748 309.682 906.206 310.13C906.672 310.578 907.032 311.105 907.284 311.712C907.545 312.319 907.676 312.981 907.676 313.7C907.676 314.419 907.545 315.081 907.284 315.688C907.032 316.295 906.672 316.822 906.206 317.27C905.748 317.718 905.207 318.068 904.582 318.32C903.956 318.563 903.275 318.684 902.538 318.684ZM902.538 317.76C903.126 317.76 903.667 317.662 904.162 317.466C904.666 317.261 905.1 316.976 905.464 316.612C905.837 316.239 906.126 315.809 906.332 315.324C906.537 314.829 906.64 314.288 906.64 313.7C906.64 313.112 906.537 312.575 906.332 312.09C906.126 311.595 905.837 311.166 905.464 310.802C905.1 310.429 904.666 310.144 904.162 309.948C903.667 309.743 903.126 309.64 902.538 309.64C901.95 309.64 901.404 309.743 900.9 309.948C900.396 310.144 899.957 310.429 899.584 310.802C899.22 311.166 898.93 311.595 898.716 312.09C898.51 312.575 898.408 313.112 898.408 313.7C898.408 314.279 898.51 314.815 898.716 315.31C898.93 315.805 899.22 316.239 899.584 316.612C899.957 316.976 900.396 317.261 900.9 317.466C901.404 317.662 901.95 317.76 902.538 317.76ZM910.148 318.6V308.8H917.316V309.682H911.17V312.888H914.376C915.533 312.888 916.41 313.126 917.008 313.602C917.614 314.069 917.918 314.759 917.918 315.674C917.918 316.617 917.591 317.34 916.938 317.844C916.294 318.348 915.365 318.6 914.152 318.6H910.148ZM911.17 317.774H914.138C915.043 317.774 915.724 317.601 916.182 317.256C916.648 316.901 916.882 316.388 916.882 315.716C916.882 314.381 915.967 313.714 914.138 313.714H911.17V317.774ZM926.06 317.704L925.808 317.984V308.8H926.83V317.984L926.55 317.704H931.576L931.296 317.984V308.8H932.318V318.6H920.306V308.8H921.328V317.984L921.062 317.704H926.06ZM932.878 320.798V318.32L933.158 318.6H931.282V317.704H933.844V320.798H932.878ZM936.871 313.182H942.051V314.064H936.871V313.182ZM936.983 317.704H942.877V318.6H935.947V308.8H942.667V309.696H936.983V317.704ZM946.099 313.182H951.279V314.064H946.099V313.182ZM946.211 317.704H952.105V318.6H945.175V308.8H951.895V309.696H946.211V317.704ZM964.774 318.6L961.008 313.714L961.848 313.21L965.964 318.6H964.774ZM958.068 318.6V308.8H959.076V318.6H958.068ZM958.768 314.106V313.196H961.834V314.106H958.768ZM961.932 313.812L960.98 313.644L964.634 308.8H965.754L961.932 313.812ZM971.84 318.684C971.103 318.684 970.417 318.563 969.782 318.32C969.157 318.068 968.611 317.718 968.144 317.27C967.687 316.813 967.328 316.285 967.066 315.688C966.814 315.081 966.688 314.419 966.688 313.7C966.688 312.981 966.814 312.323 967.066 311.726C967.328 311.119 967.687 310.592 968.144 310.144C968.611 309.687 969.157 309.337 969.782 309.094C970.408 308.842 971.094 308.716 971.84 308.716C972.578 308.716 973.259 308.842 973.884 309.094C974.51 309.337 975.051 309.682 975.508 310.13C975.975 310.578 976.334 311.105 976.586 311.712C976.848 312.319 976.978 312.981 976.978 313.7C976.978 314.419 976.848 315.081 976.586 315.688C976.334 316.295 975.975 316.822 975.508 317.27C975.051 317.718 974.51 318.068 973.884 318.32C973.259 318.563 972.578 318.684 971.84 318.684ZM971.84 317.76C972.428 317.76 972.97 317.662 973.464 317.466C973.968 317.261 974.402 316.976 974.766 316.612C975.14 316.239 975.429 315.809 975.634 315.324C975.84 314.829 975.942 314.288 975.942 313.7C975.942 313.112 975.84 312.575 975.634 312.09C975.429 311.595 975.14 311.166 974.766 310.802C974.402 310.429 973.968 310.144 973.464 309.948C972.97 309.743 972.428 309.64 971.84 309.64C971.252 309.64 970.706 309.743 970.202 309.948C969.698 310.144 969.26 310.429 968.886 310.802C968.522 311.166 968.233 311.595 968.018 312.09C967.813 312.575 967.71 313.112 967.71 313.7C967.71 314.279 967.813 314.815 968.018 315.31C968.233 315.805 968.522 316.239 968.886 316.612C969.26 316.976 969.698 317.261 970.202 317.466C970.706 317.662 971.252 317.76 971.84 317.76ZM978.463 318.684C978.332 318.684 978.206 318.675 978.085 318.656C977.964 318.647 977.828 318.623 977.679 318.586L977.763 317.662C977.922 317.699 978.076 317.718 978.225 317.718C978.645 317.718 978.981 317.555 979.233 317.228C979.494 316.892 979.69 316.379 979.821 315.688C979.952 314.988 980.036 314.092 980.073 313L980.213 308.8H986.863V318.6H985.841V309.416L986.107 309.696H980.871L981.123 309.402L980.997 312.972C980.96 313.952 980.89 314.801 980.787 315.52C980.684 316.229 980.535 316.822 980.339 317.298C980.143 317.765 979.891 318.115 979.583 318.348C979.275 318.572 978.902 318.684 978.463 318.684ZM989.357 315.24V314.372H993.025V315.24H989.357ZM995.515 318.6V308.8H999.589C1000.62 308.8 1001.44 309.015 1002.02 309.444C1002.62 309.864 1002.92 310.485 1002.92 311.306C1002.92 312.118 1002.64 312.734 1002.07 313.154C1001.5 313.565 1000.75 313.77 999.827 313.77L1000.06 313.42C1001.16 313.42 1001.99 313.635 1002.56 314.064C1003.13 314.493 1003.41 315.123 1003.41 315.954C1003.41 316.794 1003.11 317.447 1002.51 317.914C1001.93 318.371 1001.04 318.6 999.855 318.6H995.515ZM996.537 317.774H999.855C1000.69 317.774 1001.32 317.62 1001.74 317.312C1002.17 317.004 1002.39 316.528 1002.39 315.884C1002.39 315.249 1002.17 314.783 1001.74 314.484C1001.32 314.185 1000.69 314.036 999.855 314.036H996.537V317.774ZM996.537 313.238H999.533C1000.29 313.238 1000.87 313.089 1001.27 312.79C1001.68 312.482 1001.88 312.029 1001.88 311.432C1001.88 310.835 1001.68 310.387 1001.27 310.088C1000.87 309.78 1000.29 309.626 999.533 309.626H996.537V313.238ZM1010.3 318.684C1009.56 318.684 1008.88 318.563 1008.24 318.32C1007.62 318.068 1007.07 317.718 1006.6 317.27C1006.15 316.813 1005.79 316.285 1005.53 315.688C1005.27 315.081 1005.15 314.419 1005.15 313.7C1005.15 312.981 1005.27 312.323 1005.53 311.726C1005.79 311.119 1006.15 310.592 1006.6 310.144C1007.07 309.687 1007.62 309.337 1008.24 309.094C1008.87 308.842 1009.55 308.716 1010.3 308.716C1011.04 308.716 1011.72 308.842 1012.34 309.094C1012.97 309.337 1013.51 309.682 1013.97 310.13C1014.43 310.578 1014.79 311.105 1015.05 311.712C1015.31 312.319 1015.44 312.981 1015.44 313.7C1015.44 314.419 1015.31 315.081 1015.05 315.688C1014.79 316.295 1014.43 316.822 1013.97 317.27C1013.51 317.718 1012.97 318.068 1012.34 318.32C1011.72 318.563 1011.04 318.684 1010.3 318.684ZM1010.3 317.76C1010.89 317.76 1011.43 317.662 1011.92 317.466C1012.43 317.261 1012.86 316.976 1013.23 316.612C1013.6 316.239 1013.89 315.809 1014.09 315.324C1014.3 314.829 1014.4 314.288 1014.4 313.7C1014.4 313.112 1014.3 312.575 1014.09 312.09C1013.89 311.595 1013.6 311.166 1013.23 310.802C1012.86 310.429 1012.43 310.144 1011.92 309.948C1011.43 309.743 1010.89 309.64 1010.3 309.64C1009.71 309.64 1009.17 309.743 1008.66 309.948C1008.16 310.144 1007.72 310.429 1007.35 310.802C1006.98 311.166 1006.69 311.595 1006.48 312.09C1006.27 312.575 1006.17 313.112 1006.17 313.7C1006.17 314.279 1006.27 314.815 1006.48 315.31C1006.69 315.805 1006.98 316.239 1007.35 316.612C1007.72 316.976 1008.16 317.261 1008.66 317.466C1009.17 317.662 1009.71 317.76 1010.3 317.76ZM900.186 334.6V325.416L900.466 325.696H896.742V324.8H904.652V325.696H900.942L901.208 325.416V334.6H900.186ZM906.47 334.6V324.8H910.138C910.969 324.8 911.683 324.935 912.28 325.206C912.877 325.467 913.335 325.85 913.652 326.354C913.979 326.849 914.142 327.451 914.142 328.16C914.142 328.851 913.979 329.448 913.652 329.952C913.335 330.447 912.877 330.829 912.28 331.1C911.683 331.371 910.969 331.506 910.138 331.506H907.044L907.506 331.016V334.6H906.47ZM907.506 331.1L907.044 330.596H910.11C911.09 330.596 911.832 330.386 912.336 329.966C912.849 329.537 913.106 328.935 913.106 328.16C913.106 327.376 912.849 326.769 912.336 326.34C911.832 325.911 911.09 325.696 910.11 325.696H907.044L907.506 325.206V331.1ZM914.325 334.6L918.805 324.8H919.827L924.307 334.6H923.215L919.099 325.402H919.519L915.403 334.6H914.325ZM916.089 331.982L916.397 331.142H922.095L922.403 331.982H916.089ZM933.353 324.8H934.375V334.6H933.353V324.8ZM927.221 334.6H926.185V324.8H927.221V334.6ZM933.451 330.078H927.109V329.168H933.451V330.078ZM936.521 333.424L936.899 332.682C937.328 333.055 937.809 333.335 938.341 333.522C938.882 333.699 939.424 333.793 939.965 333.802C940.506 333.802 941.001 333.723 941.449 333.564C941.906 333.405 942.275 333.172 942.555 332.864C942.835 332.547 942.975 332.164 942.975 331.716C942.975 331.147 942.746 330.708 942.289 330.4C941.841 330.092 941.216 329.938 940.413 329.938H938.313V329.098H940.357C941.048 329.098 941.584 328.953 941.967 328.664C942.359 328.365 942.555 327.955 942.555 327.432C942.555 327.059 942.443 326.741 942.219 326.48C942.004 326.209 941.706 326.004 941.323 325.864C940.95 325.715 940.53 325.635 940.063 325.626C939.596 325.607 939.111 325.668 938.607 325.808C938.112 325.939 937.632 326.149 937.165 326.438L936.829 325.584C937.408 325.239 938.01 325.001 938.635 324.87C939.26 324.73 939.867 324.683 940.455 324.73C941.043 324.777 941.57 324.912 942.037 325.136C942.513 325.36 942.891 325.654 943.171 326.018C943.451 326.382 943.591 326.816 943.591 327.32C943.591 327.787 943.47 328.197 943.227 328.552C942.994 328.907 942.662 329.182 942.233 329.378C941.813 329.565 941.314 329.658 940.735 329.658L940.791 329.35C941.444 329.35 942.009 329.453 942.485 329.658C942.97 329.863 943.344 330.157 943.605 330.54C943.876 330.913 944.011 331.352 944.011 331.856C944.011 332.332 943.89 332.757 943.647 333.13C943.414 333.494 943.087 333.802 942.667 334.054C942.256 334.297 941.794 334.474 941.281 334.586C940.768 334.689 940.231 334.717 939.671 334.67C939.111 334.623 938.56 334.502 938.019 334.306C937.478 334.101 936.978 333.807 936.521 333.424ZM945.141 334.6L949.621 324.8H950.643L955.123 334.6H954.031L949.915 325.402H950.335L946.219 334.6H945.141ZM946.905 331.982L947.213 331.142H952.911L953.219 331.982H946.905ZM963.707 334.6L959.941 329.714L960.781 329.21L964.897 334.6H963.707ZM957.001 334.6V324.8H958.009V334.6H957.001ZM957.701 330.106V329.196H960.767V330.106H957.701ZM960.865 329.812L959.913 329.644L963.567 324.8H964.687L960.865 329.812ZM966.49 334.6V324.8H967.512V333.704H973.434V324.8H974.456V334.6H966.49ZM975.044 336.896V334.32L975.31 334.6H973.434V333.704H976.01V336.896H975.044ZM978.07 334.6V324.8H979.092V332.92L985.364 324.8H986.302V334.6H985.28V326.494L979.008 334.6H978.07ZM989.609 334.6V324.8H990.631V332.92L996.903 324.8H997.841V334.6H996.819V326.494L990.547 334.6H989.609ZM993.697 324.086C992.997 324.086 992.441 323.927 992.031 323.61C991.629 323.293 991.424 322.849 991.415 322.28H992.185C992.194 322.653 992.334 322.947 992.605 323.162C992.885 323.377 993.249 323.484 993.697 323.484C994.145 323.484 994.504 323.377 994.775 323.162C995.055 322.947 995.199 322.653 995.209 322.28H995.979C995.969 322.849 995.759 323.293 995.349 323.61C994.938 323.927 994.387 324.086 993.697 324.086Z" fill="white"/>
<g clip-path="url(#clip18_3_4)">
<g clip-path="url(#clip19_3_4)">
<g clip-path="url(#clip20_3_4)">
<path d="M1080.67 298.532C1079.98 298.532 1079.43 299.087 1079.43 299.775V314.339C1079.43 316.636 1077.51 318.434 1075.06 318.434H1033.94C1031.54 318.434 1029.67 316.636 1029.67 314.339V285.442C1029.67 283.056 1031.59 281.114 1033.94 281.114H1063.18C1063.87 281.114 1064.42 280.559 1064.42 279.87C1064.42 279.182 1063.87 278.627 1063.18 278.627H1033.94C1030.21 278.627 1027.18 281.685 1027.18 285.446V314.343C1027.18 318.036 1030.15 320.928 1033.94 320.928H1075.06C1078.84 320.928 1081.92 317.973 1081.92 314.343V299.779C1081.92 299.09 1081.36 298.535 1080.68 298.535L1080.67 298.532Z" fill="#CACACA"/>
<path d="M1034.64 304.751V312.215C1034.64 312.904 1035.2 313.459 1035.89 313.459C1036.58 313.459 1037.13 312.904 1037.13 312.215V304.751C1037.13 304.063 1036.57 303.508 1035.89 303.508C1035.2 303.508 1034.64 304.063 1034.64 304.751Z" fill="#CACACA"/>
<path d="M1071.96 312.215V304.751C1071.96 304.063 1071.41 303.508 1070.72 303.508C1070.03 303.508 1069.48 304.063 1069.48 304.751V312.215C1069.48 312.904 1070.03 313.459 1070.72 313.459C1071.41 313.459 1071.96 312.904 1071.96 312.215Z" fill="#CACACA"/>
<path d="M1054.55 289.818V312.21C1054.55 312.899 1055.1 313.454 1055.79 313.454C1056.48 313.454 1057.03 312.899 1057.03 312.21V289.818C1057.03 289.13 1056.48 288.575 1055.79 288.575C1055.1 288.575 1054.55 289.13 1054.55 289.818Z" fill="#CACACA"/>
<path d="M1039.62 299.773V312.215C1039.62 312.903 1040.18 313.458 1040.86 313.458C1041.55 313.458 1042.11 312.903 1042.11 312.215V299.773C1042.11 299.085 1041.55 298.53 1040.86 298.53C1040.18 298.53 1039.62 299.085 1039.62 299.773Z" fill="#CACACA"/>
<path d="M1049.57 299.773V312.215C1049.57 312.903 1050.13 313.458 1050.82 313.458C1051.5 313.458 1052.06 312.903 1052.06 312.215V299.773C1052.06 299.085 1051.5 298.53 1050.82 298.53C1050.13 298.53 1049.57 299.085 1049.57 299.773Z" fill="#CACACA"/>
<path d="M1065.74 313.458C1066.43 313.458 1066.99 312.903 1066.99 312.215V299.773C1066.99 299.085 1066.43 298.53 1065.74 298.53C1065.06 298.53 1064.5 299.085 1064.5 299.773V312.215C1064.5 312.903 1065.06 313.458 1065.74 313.458Z" fill="#CACACA"/>
<path d="M1059.52 302.259V312.21C1059.52 312.898 1060.08 313.453 1060.77 313.453C1061.46 313.453 1062.01 312.898 1062.01 312.21V302.259C1062.01 301.57 1061.46 301.015 1060.77 301.015C1060.08 301.015 1059.52 301.57 1059.52 302.259Z" fill="#CACACA"/>
<path d="M1044.6 294.796V312.211C1044.6 312.9 1045.15 313.454 1045.84 313.454C1046.53 313.454 1047.08 312.9 1047.08 312.211V294.796C1047.08 294.107 1046.52 293.552 1045.84 293.552C1045.15 293.552 1044.6 294.107 1044.6 294.796Z" fill="#CACACA"/>
<path d="M1075.85 274.267C1070.01 274.267 1065.25 279.023 1065.25 284.869C1065.25 290.716 1070.01 295.476 1075.85 295.476C1081.7 295.476 1086.46 290.719 1086.46 284.869C1086.46 279.023 1081.7 274.267 1075.85 274.267ZM1075.85 292.985C1071.38 292.985 1067.74 289.345 1067.74 284.869C1067.74 280.394 1071.38 276.754 1075.85 276.754C1080.33 276.754 1083.97 280.394 1083.97 284.869C1083.97 289.345 1080.33 292.985 1075.85 292.985Z" fill="#CACACA"/>
<path d="M1076.58 280.234C1076.35 280.006 1076.04 279.869 1075.7 279.869C1075.35 279.869 1075.04 280.01 1074.82 280.234L1070.89 284.161C1070.41 284.646 1070.41 285.435 1070.89 285.919C1071.38 286.404 1072.17 286.404 1072.65 285.919L1074.45 284.118V288.58C1074.45 289.269 1075.01 289.824 1075.7 289.824C1076.38 289.824 1076.94 289.269 1076.94 288.58V284.118L1078.74 285.919C1078.98 286.163 1079.3 286.284 1079.62 286.284C1079.94 286.284 1080.25 286.163 1080.5 285.919C1080.98 285.435 1080.98 284.646 1080.5 284.161L1076.57 280.234H1076.58Z" fill="#CACACA"/>
</g>
</g>
</g>
<path d="M898.076 381.544V376.312L913.916 355H922.076L906.572 376.312L902.78 375.208H929.228V381.544H898.076ZM916.172 388.6V381.544L916.412 375.208V368.92H923.756V388.6H916.172ZM946.077 389.176C943.005 389.176 940.333 388.536 938.061 387.256C935.821 385.976 934.093 384.104 932.877 381.64C931.661 379.176 931.053 376.136 931.053 372.52C931.053 368.648 931.773 365.368 933.213 362.68C934.685 359.992 936.701 357.944 939.261 356.536C941.853 355.128 944.829 354.424 948.189 354.424C949.981 354.424 951.693 354.616 953.325 355C954.957 355.384 956.365 355.96 957.549 356.728L954.669 362.44C953.741 361.8 952.749 361.368 951.693 361.144C950.637 360.888 949.533 360.76 948.381 360.76C945.469 360.76 943.165 361.64 941.469 363.4C939.773 365.16 938.925 367.768 938.925 371.224C938.925 371.8 938.925 372.44 938.925 373.144C938.957 373.848 939.053 374.552 939.213 375.256L937.053 373.24C937.661 371.992 938.445 370.952 939.405 370.12C940.365 369.256 941.501 368.616 942.813 368.2C944.157 367.752 945.629 367.528 947.229 367.528C949.405 367.528 951.357 367.96 953.085 368.824C954.813 369.688 956.189 370.904 957.213 372.472C958.269 374.04 958.797 375.88 958.797 377.992C958.797 380.264 958.221 382.248 957.069 383.944C955.949 385.608 954.429 386.904 952.509 387.832C950.621 388.728 948.477 389.176 946.077 389.176ZM945.645 383.368C946.733 383.368 947.693 383.176 948.525 382.792C949.389 382.376 950.061 381.784 950.541 381.016C951.021 380.248 951.261 379.368 951.261 378.376C951.261 376.84 950.733 375.624 949.677 374.728C948.653 373.8 947.277 373.336 945.549 373.336C944.397 373.336 943.389 373.56 942.525 374.008C941.661 374.424 940.973 375.016 940.461 375.784C939.981 376.52 939.741 377.384 939.741 378.376C939.741 379.336 939.981 380.2 940.461 380.968C940.941 381.704 941.613 382.296 942.477 382.744C943.341 383.16 944.397 383.368 945.645 383.368ZM960.828 388.6V383.56L973.788 371.32C974.812 370.392 975.564 369.56 976.044 368.824C976.524 368.088 976.844 367.416 977.004 366.808C977.196 366.2 977.292 365.64 977.292 365.128C977.292 363.784 976.828 362.76 975.9 362.056C975.004 361.32 973.676 360.952 971.916 360.952C970.508 360.952 969.196 361.224 967.98 361.768C966.796 362.312 965.788 363.16 964.956 364.312L959.292 360.664C960.572 358.744 962.364 357.224 964.668 356.104C966.972 354.984 969.628 354.424 972.636 354.424C975.132 354.424 977.308 354.84 979.164 355.672C981.052 356.472 982.508 357.608 983.532 359.08C984.588 360.552 985.116 362.312 985.116 364.36C985.116 365.448 984.972 366.536 984.684 367.624C984.428 368.68 983.884 369.8 983.052 370.984C982.252 372.168 981.068 373.496 979.5 374.968L968.748 385.096L967.26 382.264H986.22V388.6H960.828ZM988.029 381.544V376.312L1003.87 355H1012.03L996.525 376.312L992.733 375.208H1019.18V381.544H988.029ZM1006.12 388.6V381.544L1006.36 375.208V368.92H1013.71V388.6H1006.12Z" fill="white"/>
<g clip-path="url(#clip21_3_4)">
<g clip-path="url(#clip22_3_4)">
<g clip-path="url(#clip23_3_4)">
<path d="M895.79 451.319L875.279 453.394C872.474 454.778 866.864 457.962 866.864 459.622C866.864 461.697 864.234 468.441 864.234 472.07V495.935C864.234 500.5 865.491 526.942 870.926 537.144L928.923 565.968L1081.44 556.63L1109.75 542.291L1113.35 501.629L1120.36 462.215C1115.1 461.697 1101.43 459.518 1088.8 454.953C1073.03 449.246 1067.77 453.397 1057.77 457.547C1047.78 461.697 1040.94 459.622 1038.84 454.953C1036.74 450.284 1034.63 445.096 1030.43 445.096C1026.22 445.096 1005.18 462.215 1001.5 461.697C997.818 461.178 986.249 435.757 980.463 435.238C974.678 434.719 967.841 467.401 964.685 472.07C961.53 476.739 952.063 468.439 948.382 463.77C944.739 459.15 942.127 460.117 933.922 463.153L933.656 463.251C925.241 466.364 918.93 454.951 913.145 452.876C908.517 451.215 899.647 451.146 895.79 451.319Z" fill="url(#paint3_linear_3_4)" stroke="white" stroke-width="3.08826"/>
</g>
</g>
</g>
<rect x="450.375" y="629.57" width="309.25" height="51" rx="25.5" stroke="#1D4692"/>
<g clip-path="url(#clip24_3_4)">
<g clip-path="url(#clip25_3_4)">
<g clip-path="url(#clip26_3_4)">
<path d="M493.096 638.953C486.354 638.953 480.875 644.367 480.875 651.03C480.875 663.523 492.082 670.711 492.55 671.019C492.878 671.235 493.315 671.235 493.643 671.019C494.127 670.726 505.318 663.523 505.318 651.03C505.318 644.367 499.839 638.953 493.096 638.953ZM493.096 656.073C490.287 656.073 488.008 653.822 488.008 651.045C488.008 648.269 490.287 646.017 493.096 646.017C495.906 646.017 498.185 648.269 498.185 651.045C498.185 653.822 495.906 656.073 493.096 656.073Z" fill="#FF6600"/>
</g>
</g>
</g>
<path d="M517.267 661.07V649.87H522.115C523.118 649.87 523.982 650.035 524.707 650.366C525.432 650.686 525.992 651.15 526.387 651.758C526.782 652.366 526.979 653.091 526.979 653.934C526.979 654.766 526.782 655.486 526.387 656.094C525.992 656.702 525.432 657.171 524.707 657.502C523.982 657.822 523.118 657.982 522.115 657.982H518.707L519.859 656.814V661.07H517.267ZM519.859 657.102L518.707 655.87H521.971C522.771 655.87 523.368 655.699 523.763 655.358C524.158 655.017 524.355 654.542 524.355 653.934C524.355 653.315 524.158 652.835 523.763 652.494C523.368 652.153 522.771 651.982 521.971 651.982H518.707L519.859 650.75V657.102ZM533.571 661.07V659.39L533.411 659.022V656.014C533.411 655.481 533.245 655.065 532.915 654.766C532.595 654.467 532.099 654.318 531.427 654.318C530.968 654.318 530.515 654.393 530.067 654.542C529.629 654.681 529.256 654.873 528.947 655.118L528.051 653.374C528.52 653.043 529.085 652.787 529.747 652.606C530.408 652.425 531.08 652.334 531.763 652.334C533.075 652.334 534.093 652.643 534.819 653.262C535.544 653.881 535.907 654.846 535.907 656.158V661.07H533.571ZM530.947 661.198C530.275 661.198 529.699 661.086 529.219 660.862C528.739 660.627 528.371 660.313 528.115 659.918C527.859 659.523 527.731 659.081 527.731 658.59C527.731 658.078 527.853 657.63 528.099 657.246C528.355 656.862 528.755 656.563 529.299 656.35C529.843 656.126 530.552 656.014 531.427 656.014H533.715V657.47H531.699C531.112 657.47 530.707 657.566 530.483 657.758C530.269 657.95 530.163 658.19 530.163 658.478C530.163 658.798 530.285 659.054 530.531 659.246C530.787 659.427 531.133 659.518 531.571 659.518C531.987 659.518 532.36 659.422 532.691 659.23C533.021 659.027 533.261 658.734 533.411 658.35L533.795 659.502C533.613 660.057 533.283 660.478 532.803 660.766C532.323 661.054 531.704 661.198 530.947 661.198ZM542.171 661.198C541.243 661.198 540.416 661.011 539.691 660.638C538.966 660.254 538.395 659.726 537.979 659.054C537.574 658.382 537.371 657.619 537.371 656.766C537.371 655.902 537.574 655.139 537.979 654.478C538.395 653.806 538.966 653.283 539.691 652.91C540.416 652.526 541.243 652.334 542.171 652.334C543.078 652.334 543.867 652.526 544.539 652.91C545.211 653.283 545.707 653.822 546.027 654.526L544.091 655.566C543.867 655.161 543.584 654.862 543.243 654.67C542.912 654.478 542.55 654.382 542.155 654.382C541.728 654.382 541.344 654.478 541.003 654.67C540.662 654.862 540.39 655.134 540.187 655.486C539.995 655.838 539.899 656.265 539.899 656.766C539.899 657.267 539.995 657.694 540.187 658.046C540.39 658.398 540.662 658.67 541.003 658.862C541.344 659.054 541.728 659.15 542.155 659.15C542.55 659.15 542.912 659.059 543.243 658.878C543.584 658.686 543.867 658.382 544.091 657.966L546.027 659.022C545.707 659.715 545.211 660.254 544.539 660.638C543.867 661.011 543.078 661.198 542.171 661.198ZM547.544 661.07V652.462H556.104V661.07H553.608V653.95L554.168 654.51H549.464L550.024 653.95V661.07H547.544ZM562.529 661.198C561.612 661.198 560.796 661.006 560.081 660.622C559.377 660.238 558.817 659.715 558.401 659.054C557.996 658.382 557.793 657.619 557.793 656.766C557.793 655.902 557.996 655.139 558.401 654.478C558.817 653.806 559.377 653.283 560.081 652.91C560.796 652.526 561.612 652.334 562.529 652.334C563.436 652.334 564.246 652.526 564.961 652.91C565.676 653.283 566.236 653.801 566.641 654.462C567.046 655.123 567.249 655.891 567.249 656.766C567.249 657.619 567.046 658.382 566.641 659.054C566.236 659.715 565.676 660.238 564.961 660.622C564.246 661.006 563.436 661.198 562.529 661.198ZM562.529 659.15C562.945 659.15 563.318 659.054 563.649 658.862C563.98 658.67 564.241 658.398 564.433 658.046C564.625 657.683 564.721 657.257 564.721 656.766C564.721 656.265 564.625 655.838 564.433 655.486C564.241 655.134 563.98 654.862 563.649 654.67C563.318 654.478 562.945 654.382 562.529 654.382C562.113 654.382 561.74 654.478 561.409 654.67C561.078 654.862 560.812 655.134 560.609 655.486C560.417 655.838 560.321 656.265 560.321 656.766C560.321 657.257 560.417 657.683 560.609 658.046C560.812 658.398 561.078 658.67 561.409 658.862C561.74 659.054 562.113 659.15 562.529 659.15ZM567.753 661.054L567.881 659.006C567.945 659.017 568.009 659.027 568.073 659.038C568.137 659.038 568.195 659.038 568.249 659.038C568.547 659.038 568.782 658.953 568.953 658.782C569.123 658.611 569.251 658.382 569.337 658.094C569.422 657.795 569.481 657.459 569.513 657.086C569.555 656.713 569.587 656.323 569.609 655.918L569.737 652.462H577.097V661.07H574.601V653.902L575.161 654.51H571.385L571.913 653.87L571.801 656.03C571.769 656.798 571.705 657.502 571.609 658.142C571.523 658.782 571.379 659.337 571.177 659.806C570.974 660.265 570.702 660.622 570.361 660.878C570.019 661.123 569.582 661.246 569.049 661.246C568.857 661.246 568.654 661.23 568.441 661.198C568.227 661.166 567.998 661.118 567.753 661.054ZM583.529 661.198C582.612 661.198 581.796 661.006 581.081 660.622C580.377 660.238 579.817 659.715 579.401 659.054C578.996 658.382 578.793 657.619 578.793 656.766C578.793 655.902 578.996 655.139 579.401 654.478C579.817 653.806 580.377 653.283 581.081 652.91C581.796 652.526 582.612 652.334 583.529 652.334C584.436 652.334 585.246 652.526 585.961 652.91C586.676 653.283 587.236 653.801 587.641 654.462C588.046 655.123 588.249 655.891 588.249 656.766C588.249 657.619 588.046 658.382 587.641 659.054C587.236 659.715 586.676 660.238 585.961 660.622C585.246 661.006 584.436 661.198 583.529 661.198ZM583.529 659.15C583.945 659.15 584.318 659.054 584.649 658.862C584.98 658.67 585.241 658.398 585.433 658.046C585.625 657.683 585.721 657.257 585.721 656.766C585.721 656.265 585.625 655.838 585.433 655.486C585.241 655.134 584.98 654.862 584.649 654.67C584.318 654.478 583.945 654.382 583.529 654.382C583.113 654.382 582.74 654.478 582.409 654.67C582.078 654.862 581.812 655.134 581.609 655.486C581.417 655.838 581.321 656.265 581.321 656.766C581.321 657.257 581.417 657.683 581.609 658.046C581.812 658.398 582.078 658.67 582.409 658.862C582.74 659.054 583.113 659.15 583.529 659.15ZM600.052 661.07L597.764 656.99L599.78 655.79L603.012 661.07H600.052ZM596.292 657.806V655.806H599.284V657.806H596.292ZM600.036 657.054L597.684 656.798L600.164 652.462H602.804L600.036 657.054ZM591.54 661.07H588.596L591.812 655.79L593.828 656.99L591.54 661.07ZM597.028 661.07H594.564V652.462H597.028V661.07ZM595.3 657.806H592.324V655.806H595.3V657.806ZM591.556 657.054L588.788 652.462H591.428L593.892 656.798L591.556 657.054ZM608.252 661.198C607.27 661.198 606.406 661.006 605.66 660.622C604.924 660.238 604.353 659.715 603.948 659.054C603.542 658.382 603.34 657.619 603.34 656.766C603.34 655.902 603.537 655.139 603.932 654.478C604.337 653.806 604.886 653.283 605.58 652.91C606.273 652.526 607.057 652.334 607.932 652.334C608.774 652.334 609.532 652.515 610.204 652.878C610.886 653.23 611.425 653.742 611.82 654.414C612.214 655.075 612.412 655.87 612.412 656.798C612.412 656.894 612.406 657.006 612.396 657.134C612.385 657.251 612.374 657.363 612.364 657.47H605.372V656.014H611.052L610.092 656.446C610.092 655.998 610.001 655.609 609.82 655.278C609.638 654.947 609.388 654.691 609.068 654.51C608.748 654.318 608.374 654.222 607.948 654.222C607.521 654.222 607.142 654.318 606.812 654.51C606.492 654.691 606.241 654.953 606.06 655.294C605.878 655.625 605.788 656.019 605.788 656.478V656.862C605.788 657.331 605.889 657.747 606.092 658.11C606.305 658.462 606.598 658.734 606.972 658.926C607.356 659.107 607.804 659.198 608.316 659.198C608.774 659.198 609.174 659.129 609.516 658.99C609.868 658.851 610.188 658.643 610.476 658.366L611.804 659.806C611.409 660.254 610.913 660.601 610.316 660.846C609.718 661.081 609.03 661.198 608.252 661.198ZM614.325 661.07V652.462H616.805V655.822H620.549V652.462H623.045V661.07H620.549V657.854H616.805V661.07H614.325ZM625.434 661.07V652.462H627.914V657.582L632.106 652.462H634.394V661.07H631.914V655.95L627.738 661.07H625.434ZM641.002 661.198C640.02 661.198 639.156 661.006 638.41 660.622C637.674 660.238 637.103 659.715 636.698 659.054C636.292 658.382 636.09 657.619 636.09 656.766C636.09 655.902 636.287 655.139 636.682 654.478C637.087 653.806 637.636 653.283 638.33 652.91C639.023 652.526 639.807 652.334 640.682 652.334C641.524 652.334 642.282 652.515 642.954 652.878C643.636 653.23 644.175 653.742 644.57 654.414C644.964 655.075 645.162 655.87 645.162 656.798C645.162 656.894 645.156 657.006 645.146 657.134C645.135 657.251 645.124 657.363 645.114 657.47H638.122V656.014H643.802L642.842 656.446C642.842 655.998 642.751 655.609 642.57 655.278C642.388 654.947 642.138 654.691 641.818 654.51C641.498 654.318 641.124 654.222 640.698 654.222C640.271 654.222 639.892 654.318 639.562 654.51C639.242 654.691 638.991 654.953 638.81 655.294C638.628 655.625 638.538 656.019 638.538 656.478V656.862C638.538 657.331 638.639 657.747 638.842 658.11C639.055 658.462 639.348 658.734 639.722 658.926C640.106 659.107 640.554 659.198 641.066 659.198C641.524 659.198 641.924 659.129 642.266 658.99C642.618 658.851 642.938 658.643 643.226 658.366L644.554 659.806C644.159 660.254 643.663 660.601 643.066 660.846C642.468 661.081 641.78 661.198 641.002 661.198ZM655.878 661.262C655.174 661.262 654.534 661.161 653.958 660.958C653.382 660.745 652.881 660.419 652.454 659.982C652.038 659.534 651.713 658.963 651.478 658.27C651.254 657.577 651.142 656.75 651.142 655.79C651.142 655.107 651.201 654.483 651.318 653.918C651.436 653.353 651.612 652.841 651.846 652.382C652.081 651.913 652.38 651.502 652.742 651.15C653.116 650.787 653.548 650.489 654.038 650.254C654.54 650.009 655.105 649.822 655.734 649.694L659.83 648.878L660.166 651.022L656.55 651.742C656.337 651.785 656.092 651.843 655.814 651.918C655.548 651.982 655.276 652.083 654.998 652.222C654.732 652.361 654.481 652.558 654.246 652.814C654.022 653.059 653.841 653.385 653.702 653.79C653.564 654.185 653.494 654.675 653.494 655.262C653.494 655.443 653.5 655.582 653.51 655.678C653.532 655.774 653.548 655.875 653.558 655.982C653.58 656.089 653.59 656.254 653.59 656.478L652.79 655.694C653.025 655.193 653.324 654.766 653.686 654.414C654.06 654.062 654.486 653.795 654.966 653.614C655.457 653.422 656.001 653.326 656.598 653.326C657.409 653.326 658.118 653.491 658.726 653.822C659.345 654.142 659.825 654.595 660.166 655.182C660.508 655.769 660.678 656.435 660.678 657.182C660.678 657.993 660.476 658.707 660.07 659.326C659.665 659.934 659.1 660.409 658.374 660.75C657.66 661.091 656.828 661.262 655.878 661.262ZM656.006 659.326C656.422 659.326 656.79 659.235 657.11 659.054C657.43 658.862 657.676 658.611 657.846 658.302C658.028 657.982 658.118 657.625 658.118 657.23C658.118 656.846 658.028 656.505 657.846 656.206C657.676 655.907 657.43 655.673 657.11 655.502C656.79 655.331 656.417 655.246 655.99 655.246C655.574 655.246 655.201 655.331 654.87 655.502C654.54 655.662 654.284 655.886 654.102 656.174C653.921 656.462 653.83 656.798 653.83 657.182C653.83 657.577 653.921 657.939 654.102 658.27C654.294 658.59 654.55 658.846 654.87 659.038C655.201 659.23 655.58 659.326 656.006 659.326ZM667.383 661.07V659.39L667.223 659.022V656.014C667.223 655.481 667.058 655.065 666.727 654.766C666.407 654.467 665.911 654.318 665.239 654.318C664.781 654.318 664.327 654.393 663.879 654.542C663.442 654.681 663.069 654.873 662.759 655.118L661.863 653.374C662.333 653.043 662.898 652.787 663.559 652.606C664.221 652.425 664.893 652.334 665.575 652.334C666.887 652.334 667.906 652.643 668.631 653.262C669.357 653.881 669.719 654.846 669.719 656.158V661.07H667.383ZM664.759 661.198C664.087 661.198 663.511 661.086 663.031 660.862C662.551 660.627 662.183 660.313 661.927 659.918C661.671 659.523 661.543 659.081 661.543 658.59C661.543 658.078 661.666 657.63 661.911 657.246C662.167 656.862 662.567 656.563 663.111 656.35C663.655 656.126 664.365 656.014 665.239 656.014H667.527V657.47H665.511C664.925 657.47 664.519 657.566 664.295 657.758C664.082 657.95 663.975 658.19 663.975 658.478C663.975 658.798 664.098 659.054 664.343 659.246C664.599 659.427 664.946 659.518 665.383 659.518C665.799 659.518 666.173 659.422 666.503 659.23C666.834 659.027 667.074 658.734 667.223 658.35L667.607 659.502C667.426 660.057 667.095 660.478 666.615 660.766C666.135 661.054 665.517 661.198 664.759 661.198ZM671.888 661.07V652.462H674.368V655.822H678.112V652.462H680.608V661.07H678.112V657.854H674.368V661.07H671.888ZM689.093 661.07L686.213 656.99L688.245 655.79L692.037 661.07H689.093ZM682.997 661.07V652.462H685.493V661.07H682.997ZM684.757 657.806V655.806H687.765V657.806H684.757ZM688.485 657.054L686.149 656.798L689.173 652.462H691.829L688.485 657.054ZM697.029 661.198C696.112 661.198 695.296 661.006 694.581 660.622C693.877 660.238 693.317 659.715 692.901 659.054C692.496 658.382 692.293 657.619 692.293 656.766C692.293 655.902 692.496 655.139 692.901 654.478C693.317 653.806 693.877 653.283 694.581 652.91C695.296 652.526 696.112 652.334 697.029 652.334C697.936 652.334 698.746 652.526 699.461 652.91C700.176 653.283 700.736 653.801 701.141 654.462C701.546 655.123 701.749 655.891 701.749 656.766C701.749 657.619 701.546 658.382 701.141 659.054C700.736 659.715 700.176 660.238 699.461 660.622C698.746 661.006 697.936 661.198 697.029 661.198ZM697.029 659.15C697.445 659.15 697.818 659.054 698.149 658.862C698.48 658.67 698.741 658.398 698.933 658.046C699.125 657.683 699.221 657.257 699.221 656.766C699.221 656.265 699.125 655.838 698.933 655.486C698.741 655.134 698.48 654.862 698.149 654.67C697.818 654.478 697.445 654.382 697.029 654.382C696.613 654.382 696.24 654.478 695.909 654.67C695.578 654.862 695.312 655.134 695.109 655.486C694.917 655.838 694.821 656.265 694.821 656.766C694.821 657.257 694.917 657.683 695.109 658.046C695.312 658.398 695.578 658.67 695.909 658.862C696.24 659.054 696.613 659.15 697.029 659.15ZM703.466 661.07V652.462H706.074L709.322 658.35H708.282L711.754 652.462H714.09L714.122 661.07H711.866V655.022L712.25 655.278L709.29 660.238H708.234L705.258 655.102L705.722 654.99V661.07H703.466ZM721.665 661.07V659.39L721.505 659.022V656.014C721.505 655.481 721.339 655.065 721.009 654.766C720.689 654.467 720.193 654.318 719.521 654.318C719.062 654.318 718.609 654.393 718.161 654.542C717.723 654.681 717.35 654.873 717.041 655.118L716.145 653.374C716.614 653.043 717.179 652.787 717.841 652.606C718.502 652.425 719.174 652.334 719.857 652.334C721.169 652.334 722.187 652.643 722.913 653.262C723.638 653.881 724.001 654.846 724.001 656.158V661.07H721.665ZM719.041 661.198C718.369 661.198 717.793 661.086 717.312 660.862C716.833 660.627 716.465 660.313 716.209 659.918C715.953 659.523 715.825 659.081 715.825 658.59C715.825 658.078 715.947 657.63 716.193 657.246C716.449 656.862 716.849 656.563 717.393 656.35C717.937 656.126 718.646 656.014 719.521 656.014H721.809V657.47H719.793C719.206 657.47 718.801 657.566 718.577 657.758C718.363 657.95 718.257 658.19 718.257 658.478C718.257 658.798 718.379 659.054 718.625 659.246C718.881 659.427 719.227 659.518 719.665 659.518C720.081 659.518 720.454 659.422 720.785 659.23C721.115 659.027 721.355 658.734 721.505 658.35L721.889 659.502C721.707 660.057 721.377 660.478 720.897 660.766C720.417 661.054 719.798 661.198 719.041 661.198ZM728.009 661.07V653.934L728.569 654.51H725.097V652.462H733.401V654.51H729.929L730.489 653.934V661.07H728.009ZM738.404 661.198C737.487 661.198 736.671 661.006 735.956 660.622C735.252 660.238 734.692 659.715 734.276 659.054C733.871 658.382 733.668 657.619 733.668 656.766C733.668 655.902 733.871 655.139 734.276 654.478C734.692 653.806 735.252 653.283 735.956 652.91C736.671 652.526 737.487 652.334 738.404 652.334C739.311 652.334 740.121 652.526 740.836 652.91C741.551 653.283 742.111 653.801 742.516 654.462C742.921 655.123 743.124 655.891 743.124 656.766C743.124 657.619 742.921 658.382 742.516 659.054C742.111 659.715 741.551 660.238 740.836 660.622C740.121 661.006 739.311 661.198 738.404 661.198ZM738.404 659.15C738.82 659.15 739.193 659.054 739.524 658.862C739.855 658.67 740.116 658.398 740.308 658.046C740.5 657.683 740.596 657.257 740.596 656.766C740.596 656.265 740.5 655.838 740.308 655.486C740.116 655.134 739.855 654.862 739.524 654.67C739.193 654.478 738.82 654.382 738.404 654.382C737.988 654.382 737.615 654.478 737.284 654.67C736.953 654.862 736.687 655.134 736.484 655.486C736.292 655.838 736.196 656.265 736.196 656.766C736.196 657.257 736.292 657.683 736.484 658.046C736.687 658.398 736.953 658.67 737.284 658.862C737.615 659.054 737.988 659.15 738.404 659.15ZM744.841 661.07V652.462H749.241C750.318 652.462 751.161 652.659 751.769 653.054C752.377 653.438 752.681 653.982 752.681 654.686C752.681 655.39 752.393 655.945 751.817 656.35C751.251 656.745 750.499 656.942 749.561 656.942L749.817 656.366C750.862 656.366 751.641 656.558 752.153 656.942C752.675 657.326 752.937 657.886 752.937 658.622C752.937 659.379 752.649 659.977 752.073 660.414C751.497 660.851 750.617 661.07 749.433 661.07H744.841ZM747.129 659.374H749.225C749.683 659.374 750.025 659.299 750.249 659.15C750.483 658.99 750.601 658.75 750.601 658.43C750.601 658.099 750.494 657.859 750.281 657.71C750.067 657.55 749.731 657.47 749.273 657.47H747.129V659.374ZM747.129 655.998H749.017C749.454 655.998 749.779 655.918 749.993 655.758C750.217 655.598 750.329 655.369 750.329 655.07C750.329 654.761 750.217 654.531 749.993 654.382C749.779 654.233 749.454 654.158 749.017 654.158H747.129V655.998Z" fill="white"/>
<a href="https://uzcard.uz/atm">
<rect fill="black" fill-opacity="0" y="15.248" width="237.718" height="19.504"/>
</a>
<defs>
<linearGradient id="paint0_linear_3_4" x1="210.09" y1="388.393" x2="209.575" y2="495.453" gradientUnits="userSpaceOnUse">
<stop stop-color="#CACACA"/>
<stop offset="1" stop-color="#B3B3B3" stop-opacity="0"/>
</linearGradient>
<linearGradient id="paint1_linear_3_4" x1="471.373" y1="396.114" x2="471.373" y2="488.762" gradientUnits="userSpaceOnUse">
<stop stop-color="#CACACA"/>
<stop offset="1" stop-color="#D5D5D5" stop-opacity="0"/>
</linearGradient>
<linearGradient id="paint2_linear_3_4" x1="739.835" y1="420.821" x2="739.835" y2="498.026" gradientUnits="userSpaceOnUse">
<stop stop-color="#CACACA"/>
<stop offset="1" stop-color="#CECECE" stop-opacity="0"/>
</linearGradient>
<linearGradient id="paint3_linear_3_4" x1="997.03" y1="403.834" x2="997.581" y2="500.085" gradientUnits="userSpaceOnUse">
<stop stop-color="#CACACA"/>
<stop offset="1" stop-color="#D5D5D5" stop-opacity="0"/>
</linearGradient>
<clipPath id="clip0_3_4">
<rect width="60" height="60" fill="white" transform="translate(263.403 267.6)"/>
</clipPath>
<clipPath id="clip1_3_4">
<rect width="60" height="60" fill="white" transform="translate(263.403 267.6)"/>
</clipPath>
<clipPath id="clip2_3_4">
<rect width="37.0588" height="60" fill="white" transform="translate(274.873 267.6)"/>
</clipPath>
<clipPath id="clip3_3_4">
<rect width="230.593" height="86.47" fill="white" transform="translate(112.81 430.6)"/>
</clipPath>
<clipPath id="clip4_3_4">
<rect width="230.59" height="86.47" fill="white" transform="translate(112.81 430.6)"/>
</clipPath>
<clipPath id="clip5_3_4">
<rect width="230.59" height="76.1771" fill="white" transform="translate(112.81 435.746)"/>
</clipPath>
<clipPath id="clip6_3_4">
<rect width="60" height="60" fill="white" transform="translate(517.995 267.6)"/>
</clipPath>
<clipPath id="clip7_3_4">
<rect width="60" height="60" fill="white" transform="translate(517.995 267.6)"/>
</clipPath>
<clipPath id="clip8_3_4">
<rect width="60" height="60" fill="white" transform="translate(517.995 267.6)"/>
</clipPath>
<clipPath id="clip9_3_4">
<rect width="230.593" height="86.47" fill="white" transform="translate(367.402 430.6)"/>
</clipPath>
<clipPath id="clip10_3_4">
<rect width="230.59" height="86.47" fill="white" transform="translate(367.402 430.6)"/>
</clipPath>
<clipPath id="clip11_3_4">
<rect width="230.59" height="79.2653" fill="white" transform="translate(367.402 434.202)"/>
</clipPath>
<clipPath id="clip12_3_4">
<rect width="60" height="60" fill="white" transform="translate(772.588 267.6)"/>
</clipPath>
<clipPath id="clip13_3_4">
<rect width="60" height="60" fill="white" transform="translate(772.588 267.6)"/>
</clipPath>
<clipPath id="clip14_3_4">
<rect width="60" height="56.7273" fill="white" transform="translate(772.588 269.236)"/>
</clipPath>
<clipPath id="clip15_3_4">
<rect width="230.593" height="86.47" fill="white" transform="translate(621.995 430.6)"/>
</clipPath>
<clipPath id="clip16_3_4">
<rect width="230.59" height="86.47" fill="white" transform="translate(621.995 430.6)"/>
</clipPath>
<clipPath id="clip17_3_4">
<rect width="230.587" height="86.47" fill="white" transform="translate(621.996 430.6)"/>
</clipPath>
<clipPath id="clip18_3_4">
<rect width="60" height="60" fill="white" transform="translate(1027.18 267.6)"/>
</clipPath>
<clipPath id="clip19_3_4">
<rect width="60" height="60" fill="white" transform="translate(1027.18 267.6)"/>
</clipPath>
<clipPath id="clip20_3_4">
<rect width="60" height="46.6667" fill="white" transform="translate(1027.18 274.267)"/>
</clipPath>
<clipPath id="clip21_3_4">
<rect width="230.592" height="86.47" fill="white" transform="translate(876.588 430.6)"/>
</clipPath>
<clipPath id="clip22_3_4">
<rect width="230.59" height="86.47" fill="white" transform="translate(876.588 430.6)"/>
</clipPath>
<clipPath id="clip23_3_4">
<rect width="230.59" height="81.3242" fill="white" transform="translate(876.588 433.173)"/>
</clipPath>
<clipPath id="clip24_3_4">
<rect width="25" height="34" fill="white" transform="translate(480.875 638.07)"/>
</clipPath>
<clipPath id="clip25_3_4">
<rect width="25" height="34" fill="white" transform="translate(480.875 638.07)"/>
</clipPath>
<clipPath id="clip26_3_4">
<rect width="25" height="34" fill="white" transform="translate(480.875 638.07)"/>
</clipPath>
</defs>
</svg>
