<svg width="232" height="82" viewBox="0 0 232 82" fill="none" xmlns="http://www.w3.org/2000/svg">
<g clip-path="url(#clip0_3_107)">
<path d="M19.7898 18.3193L-0.721158 20.3943C-3.52607 21.7784 -9.13589 24.9616 -9.13589 26.6216C-9.13589 28.6967 -11.7655 35.4406 -11.7655 39.07V62.935C-11.7655 67.5001 -10.5088 93.9419 -5.07428 104.144L52.9228 132.968L205.44 123.63L233.751 109.291L237.354 68.6293L244.358 29.2155C239.099 28.6967 225.425 26.5179 212.802 21.9528C197.025 16.2464 191.766 20.3965 181.774 24.5466C171.781 28.6967 164.944 26.6216 162.841 21.9528C160.736 17.2839 158.633 12.0963 154.426 12.0963C150.218 12.0963 129.182 29.2155 125.5 28.6967C121.818 28.1779 110.249 2.75656 104.463 2.2378C98.6779 1.71904 91.841 34.4011 88.6855 39.07C85.5299 43.7388 76.0633 35.4386 72.3819 30.7698C68.7394 26.1504 66.1268 27.1171 57.9218 30.1526L57.6561 30.251C49.2414 33.3636 42.9303 21.9505 37.1452 19.8755C32.517 18.2155 23.6465 18.1463 19.7898 18.3193Z" fill="url(#paint0_linear_3_107)" stroke="white" stroke-width="3.08826"/>
</g>
<defs>
<linearGradient id="paint0_linear_3_107" x1="121.03" y1="-29.1656" x2="121.581" y2="67.0849" gradientUnits="userSpaceOnUse">
<stop stop-color="#CACACA"/>
<stop offset="1" stop-color="#D5D5D5" stop-opacity="0"/>
</linearGradient>
<clipPath id="clip0_3_107">
<rect width="230.59" height="81.3242" fill="white" transform="translate(0.587524 0.172852)"/>
</clipPath>
</defs>
</svg>
