<svg width="1000" height="176" viewBox="0 0 1000 176" fill="none" xmlns="http://www.w3.org/2000/svg">
<path d="M27.136 61.884C23.7653 61.884 20.6507 61.3293 17.792 60.22C14.9333 59.068 12.4587 57.468 10.368 55.42C8.27733 53.372 6.63467 50.9613 5.44 48.188C4.288 45.4147 3.712 42.3853 3.712 39.1C3.712 35.8147 4.288 32.7853 5.44 30.012C6.63467 27.2387 8.27733 24.828 10.368 22.78C12.5013 20.732 14.9973 19.1533 17.856 18.044C20.7147 16.892 23.8293 16.316 27.2 16.316C30.4427 16.316 33.4933 16.8707 36.352 17.98C39.2107 19.0467 41.6213 20.668 43.584 22.844L40.576 25.852C38.7413 23.9747 36.7147 22.6307 34.496 21.82C32.2773 20.9667 29.888 20.54 27.328 20.54C24.64 20.54 22.144 21.0093 19.84 21.948C17.536 22.844 15.5307 24.1453 13.824 25.852C12.1173 27.516 10.7733 29.4787 9.792 31.74C8.85333 33.9587 8.384 36.412 8.384 39.1C8.384 41.788 8.85333 44.2627 9.792 46.524C10.7733 48.7427 12.1173 50.7053 13.824 52.412C15.5307 54.076 17.536 55.3773 19.84 56.316C22.144 57.212 24.64 57.66 27.328 57.66C29.888 57.66 32.2773 57.2333 34.496 56.38C36.7147 55.5267 38.7413 54.1613 40.576 52.284L43.584 55.292C41.6213 57.468 39.2107 59.1107 36.352 60.22C33.4933 61.3293 30.4213 61.884 27.136 61.884ZM61.698 61.5V19.516L62.978 20.796H45.954V16.7H82.114V20.796H65.154L66.37 19.516V61.5H61.698ZM81.585 61.5L102.065 16.7H106.737L127.217 61.5H122.225L103.409 19.452H105.329L86.513 61.5H81.585ZM89.649 49.532L91.057 45.692H117.105L118.513 49.532H89.649ZM142.448 61.5V19.516L143.728 20.796H126.704V16.7H162.864V20.796H145.904L147.12 19.516V61.5H142.448ZM171.177 61.5V16.7H175.849V53.82L204.521 16.7H208.809V61.5H204.137V24.444L175.465 61.5H171.177ZM243.511 61.884C240.14 61.884 237.026 61.3293 234.167 60.22C231.308 59.068 228.834 57.468 226.743 55.42C224.652 53.372 223.01 50.9613 221.815 48.188C220.663 45.4147 220.087 42.3853 220.087 39.1C220.087 35.8147 220.663 32.7853 221.815 30.012C223.01 27.2387 224.652 24.828 226.743 22.78C228.876 20.732 231.372 19.1533 234.231 18.044C237.09 16.892 240.204 16.316 243.575 16.316C246.818 16.316 249.868 16.8707 252.727 17.98C255.586 19.0467 257.996 20.668 259.959 22.844L256.951 25.852C255.116 23.9747 253.09 22.6307 250.871 21.82C248.652 20.9667 246.263 20.54 243.703 20.54C241.015 20.54 238.519 21.0093 236.215 21.948C233.911 22.844 231.906 24.1453 230.199 25.852C228.492 27.516 227.148 29.4787 226.167 31.74C225.228 33.9587 224.759 36.412 224.759 39.1C224.759 41.788 225.228 44.2627 226.167 46.524C227.148 48.7427 228.492 50.7053 230.199 52.412C231.906 54.076 233.911 55.3773 236.215 56.316C238.519 57.212 241.015 57.66 243.703 57.66C246.263 57.66 248.652 57.2333 250.871 56.38C253.09 55.5267 255.116 54.1613 256.951 52.284L259.959 55.292C257.996 57.468 255.586 59.1107 252.727 60.22C249.868 61.3293 246.796 61.884 243.511 61.884ZM278.073 61.5V19.516L279.353 20.796H262.329V16.7H298.489V20.796H281.529L282.745 19.516V61.5H278.073ZM306.802 61.5V16.7H311.474V53.82L340.146 16.7H344.434V61.5H339.762V24.444L311.09 61.5H306.802ZM390.208 61.5L372.992 39.164L376.832 36.86L395.648 61.5H390.208ZM359.552 61.5V16.7H364.16V61.5H359.552ZM362.752 40.956V36.796H376.768V40.956H362.752ZM377.216 39.612L372.864 38.844L389.568 16.7H394.688L377.216 39.612ZM395.835 61.5L416.315 16.7H420.987L441.467 61.5H436.475L417.659 19.452H419.579L400.763 61.5H395.835ZM403.899 49.532L405.307 45.692H431.355L432.763 49.532H403.899Z" fill="white"/>
<path d="M5.712 109.6V95.08L6.6 95.968H0.36V92.8H14.928V95.968H8.688L9.552 95.08V109.6H5.712ZM16.8693 109.6V92.8H24.1413C25.6453 92.8 26.9413 93.048 28.0293 93.544C29.1173 94.024 29.9573 94.72 30.5493 95.632C31.1413 96.544 31.4373 97.632 31.4373 98.896C31.4373 100.144 31.1413 101.224 30.5493 102.136C29.9573 103.048 29.1173 103.752 28.0293 104.248C26.9413 104.728 25.6453 104.968 24.1413 104.968H19.0293L20.7573 103.216V109.6H16.8693ZM20.7573 103.648L19.0293 101.8H23.9253C25.1253 101.8 26.0213 101.544 26.6133 101.032C27.2053 100.52 27.5013 99.808 27.5013 98.896C27.5013 97.968 27.2053 97.248 26.6133 96.736C26.0213 96.224 25.1253 95.968 23.9253 95.968H19.0293L20.7573 94.12V103.648ZM30.7623 109.6L38.2503 92.8H42.0903L49.6023 109.6H45.5223L39.3783 94.768H40.9143L34.7463 109.6H30.7623ZM34.5063 106L35.5383 103.048H44.1783L45.2343 106H34.5063ZM62.8502 92.8H66.7382V109.6H62.8502V92.8ZM55.2182 109.6H51.3302V92.8H55.2182V109.6ZM63.1382 102.712H54.9302V99.424H63.1382V102.712ZM68.9354 108.112L70.1354 105.328C70.8554 105.76 71.6234 106.096 72.4394 106.336C73.2714 106.56 74.0794 106.688 74.8634 106.72C75.6634 106.736 76.3834 106.656 77.0234 106.48C77.6794 106.304 78.1994 106.04 78.5834 105.688C78.9834 105.336 79.1834 104.888 79.1834 104.344C79.1834 103.704 78.9194 103.232 78.3914 102.928C77.8634 102.608 77.1594 102.448 76.2794 102.448H72.1754V99.52H75.9914C76.7754 99.52 77.3834 99.36 77.8154 99.04C78.2634 98.72 78.4874 98.28 78.4874 97.72C78.4874 97.24 78.3274 96.856 78.0074 96.568C77.6874 96.264 77.2474 96.04 76.6874 95.896C76.1434 95.752 75.5274 95.688 74.8394 95.704C74.1514 95.72 73.4394 95.832 72.7034 96.04C71.9674 96.248 71.2634 96.536 70.5914 96.904L69.4154 93.904C70.5034 93.344 71.6474 92.96 72.8474 92.752C74.0634 92.528 75.2314 92.472 76.3514 92.584C77.4874 92.68 78.5114 92.936 79.4234 93.352C80.3354 93.752 81.0634 94.28 81.6074 94.936C82.1514 95.592 82.4234 96.368 82.4234 97.264C82.4234 98.064 82.2154 98.776 81.7994 99.4C81.3834 100.024 80.7994 100.504 80.0474 100.84C79.3114 101.176 78.4634 101.344 77.5034 101.344L77.5994 100.48C78.7194 100.48 79.6874 100.672 80.5034 101.056C81.3354 101.424 81.9754 101.944 82.4234 102.616C82.8874 103.272 83.1194 104.032 83.1194 104.896C83.1194 105.696 82.9034 106.416 82.4714 107.056C82.0554 107.68 81.4794 108.208 80.7434 108.64C80.0074 109.072 79.1674 109.392 78.2234 109.6C77.2794 109.808 76.2714 109.896 75.1994 109.864C74.1434 109.832 73.0794 109.68 72.0074 109.408C70.9354 109.12 69.9114 108.688 68.9354 108.112ZM83.8014 109.6L91.2894 92.8H95.1294L102.641 109.6H98.5614L92.4174 94.768H93.9534L87.7854 109.6H83.8014ZM87.5454 106L88.5774 103.048H97.2174L98.2734 106H87.5454ZM115.241 109.6L110.009 101.512L113.153 99.616L119.657 109.6H115.241ZM104.321 109.6V92.8H108.185V109.6H104.321ZM107.057 102.832V99.592H112.913V102.832H107.057ZM113.513 101.632L109.937 101.2L115.385 92.8H119.489L113.513 101.632ZM120.979 109.6V92.8H124.843V106.432H132.331V92.8H136.195V109.6H120.979ZM135.019 113.152V108.688L135.859 109.6H132.331V106.432H138.595V113.152H135.019ZM140.658 109.6V92.8H144.522V103.744L152.538 92.8H156.186V109.6H152.346V98.68L144.33 109.6H140.658ZM159.869 109.6V92.8H163.733V103.744L171.749 92.8H175.397V109.6H171.557V98.68L163.541 109.6H159.869ZM185.377 109.6V92.8H193.201C195.153 92.8 196.673 93.176 197.761 93.928C198.849 94.68 199.393 95.752 199.393 97.144C199.393 98.52 198.881 99.592 197.857 100.36C196.833 101.112 195.473 101.488 193.777 101.488L194.233 100.48C196.121 100.48 197.585 100.856 198.625 101.608C199.665 102.36 200.185 103.448 200.185 104.872C200.185 106.344 199.625 107.504 198.505 108.352C197.401 109.184 195.785 109.6 193.657 109.6H185.377ZM189.241 106.72H193.513C194.409 106.72 195.089 106.544 195.553 106.192C196.017 105.84 196.249 105.296 196.249 104.56C196.249 103.856 196.017 103.336 195.553 103C195.089 102.648 194.409 102.472 193.513 102.472H189.241V106.72ZM189.241 99.76H192.865C193.713 99.76 194.353 99.592 194.785 99.256C195.217 98.904 195.433 98.392 195.433 97.72C195.433 97.048 195.217 96.544 194.785 96.208C194.353 95.856 193.713 95.68 192.865 95.68H189.241V99.76ZM209.057 109.6V92.8H212.273L219.425 104.656H217.721L224.753 92.8H227.969L227.993 109.6H224.345L224.321 98.392H225.017L219.377 107.824H217.649L211.889 98.392H212.705V109.6H209.057ZM231.666 109.6V92.8H235.53V103.744L243.546 92.8H247.194V109.6H243.354V98.68L235.338 109.6H231.666ZM262.397 92.8H266.285V109.6H262.397V92.8ZM254.765 109.6H250.877V92.8H254.765V109.6ZM262.685 102.712H254.477V99.424H262.685V102.712ZM270.57 106.432C271.498 106.704 272.274 106.784 272.898 106.672C273.538 106.544 274.106 106.096 274.602 105.328L275.418 104.104L275.778 103.696L281.346 92.8H285.162L278.01 106.096C277.37 107.296 276.61 108.216 275.73 108.856C274.866 109.496 273.914 109.856 272.874 109.936C271.834 110.032 270.754 109.848 269.634 109.384L270.57 106.432ZM275.706 106.936L268.122 92.8H272.274L277.842 104.08L275.706 106.936ZM290.157 109.6V95.08L291.045 95.968H284.805V92.8H299.373V95.968H293.133L293.997 95.08V109.6H290.157ZM301.164 106.432C302.092 106.704 302.868 106.784 303.492 106.672C304.132 106.544 304.7 106.096 305.196 105.328L306.012 104.104L306.372 103.696L311.94 92.8H315.756L308.604 106.096C307.964 107.296 307.204 108.216 306.324 108.856C305.46 109.496 304.508 109.856 303.468 109.936C302.428 110.032 301.348 109.848 300.228 109.384L301.164 106.432ZM306.3 106.936L298.716 92.8H302.868L308.436 104.08L306.3 106.936Z" fill="white"/>
<path d="M0.78 144.6V143.58L6.6 137.88C7.13333 137.36 7.53333 136.907 7.8 136.52C8.06667 136.12 8.24667 135.747 8.34 135.4C8.43333 135.053 8.48 134.727 8.48 134.42C8.48 133.607 8.2 132.967 7.64 132.5C7.09333 132.033 6.28 131.8 5.2 131.8C4.37333 131.8 3.64 131.927 3 132.18C2.37333 132.433 1.83333 132.827 1.38 133.36L0.36 132.48C0.906667 131.84 1.60667 131.347 2.46 131C3.31333 130.653 4.26667 130.48 5.32 130.48C6.26667 130.48 7.08667 130.633 7.78 130.94C8.47333 131.233 9.00667 131.667 9.38 132.24C9.76667 132.813 9.96 133.487 9.96 134.26C9.96 134.713 9.89333 135.16 9.76 135.6C9.64 136.04 9.41333 136.507 9.08 137C8.76 137.48 8.28667 138.027 7.66 138.64L2.32 143.88L1.92 143.32H10.6V144.6H0.78ZM17.9481 144.72C16.8681 144.72 15.9081 144.44 15.0681 143.88C14.2281 143.307 13.5681 142.493 13.0881 141.44C12.6081 140.373 12.3681 139.093 12.3681 137.6C12.3681 136.107 12.6081 134.833 13.0881 133.78C13.5681 132.713 14.2281 131.9 15.0681 131.34C15.9081 130.767 16.8681 130.48 17.9481 130.48C19.0281 130.48 19.9881 130.767 20.8281 131.34C21.6681 131.9 22.3281 132.713 22.8081 133.78C23.3015 134.833 23.5481 136.107 23.5481 137.6C23.5481 139.093 23.3015 140.373 22.8081 141.44C22.3281 142.493 21.6681 143.307 20.8281 143.88C19.9881 144.44 19.0281 144.72 17.9481 144.72ZM17.9481 143.4C18.7748 143.4 19.4948 143.18 20.1081 142.74C20.7215 142.287 21.2015 141.633 21.5481 140.78C21.8948 139.913 22.0681 138.853 22.0681 137.6C22.0681 136.347 21.8948 135.293 21.5481 134.44C21.2015 133.573 20.7215 132.92 20.1081 132.48C19.4948 132.027 18.7748 131.8 17.9481 131.8C17.1481 131.8 16.4348 132.027 15.8081 132.48C15.1815 132.92 14.6948 133.573 14.3481 134.44C14.0015 135.293 13.8281 136.347 13.8281 137.6C13.8281 138.853 14.0015 139.913 14.3481 140.78C14.6948 141.633 15.1815 142.287 15.8081 142.74C16.4348 143.18 17.1481 143.4 17.9481 143.4ZM25.3503 144.6V143.58L31.1703 137.88C31.7036 137.36 32.1036 136.907 32.3703 136.52C32.637 136.12 32.817 135.747 32.9103 135.4C33.0036 135.053 33.0503 134.727 33.0503 134.42C33.0503 133.607 32.7703 132.967 32.2103 132.5C31.6636 132.033 30.8503 131.8 29.7703 131.8C28.9436 131.8 28.2103 131.927 27.5703 132.18C26.9436 132.433 26.4036 132.827 25.9503 133.36L24.9303 132.48C25.477 131.84 26.177 131.347 27.0303 131C27.8836 130.653 28.837 130.48 29.8903 130.48C30.837 130.48 31.657 130.633 32.3503 130.94C33.0436 131.233 33.577 131.667 33.9503 132.24C34.337 132.813 34.5303 133.487 34.5303 134.26C34.5303 134.713 34.4636 135.16 34.3303 135.6C34.2103 136.04 33.9836 136.507 33.6503 137C33.3303 137.48 32.857 138.027 32.2303 138.64L26.8903 143.88L26.4903 143.32H35.1703V144.6H25.3503ZM36.2883 140.92V139.88L43.7083 130.6H45.3083L37.9483 139.88L37.1683 139.64H48.4283V140.92H36.2883ZM44.1883 144.6V140.92L44.2283 139.64V136.4H45.6283V144.6H44.1883ZM50.1063 139.8V138.56H55.3463V139.8H50.1063ZM63.3192 144.72C62.2392 144.72 61.2792 144.44 60.4392 143.88C59.5992 143.307 58.9392 142.493 58.4592 141.44C57.9792 140.373 57.7392 139.093 57.7392 137.6C57.7392 136.107 57.9792 134.833 58.4592 133.78C58.9392 132.713 59.5992 131.9 60.4392 131.34C61.2792 130.767 62.2392 130.48 63.3192 130.48C64.3992 130.48 65.3592 130.767 66.1992 131.34C67.0392 131.9 67.6992 132.713 68.1792 133.78C68.6726 134.833 68.9192 136.107 68.9192 137.6C68.9192 139.093 68.6726 140.373 68.1792 141.44C67.6992 142.493 67.0392 143.307 66.1992 143.88C65.3592 144.44 64.3992 144.72 63.3192 144.72ZM63.3192 143.4C64.1459 143.4 64.8659 143.18 65.4792 142.74C66.0926 142.287 66.5726 141.633 66.9192 140.78C67.2659 139.913 67.4392 138.853 67.4392 137.6C67.4392 136.347 67.2659 135.293 66.9192 134.44C66.5726 133.573 66.0926 132.92 65.4792 132.48C64.8659 132.027 64.1459 131.8 63.3192 131.8C62.5192 131.8 61.8059 132.027 61.1792 132.48C60.5526 132.92 60.0659 133.573 59.7192 134.44C59.3726 135.293 59.1992 136.347 59.1992 137.6C59.1992 138.853 59.3726 139.913 59.7192 140.78C60.0659 141.633 60.5526 142.287 61.1792 142.74C61.8059 143.18 62.5192 143.4 63.3192 143.4ZM73.2852 144.6L79.3252 131.24L79.7652 131.88H71.1052L71.8452 131.18V134.5H70.4252V130.6H80.7052V131.62L74.8452 144.6H73.2852ZM81.7664 139.8V138.56H87.0064V139.8H81.7664ZM94.9794 144.72C93.8994 144.72 92.9394 144.44 92.0994 143.88C91.2594 143.307 90.5994 142.493 90.1194 141.44C89.6394 140.373 89.3994 139.093 89.3994 137.6C89.3994 136.107 89.6394 134.833 90.1194 133.78C90.5994 132.713 91.2594 131.9 92.0994 131.34C92.9394 130.767 93.8994 130.48 94.9794 130.48C96.0594 130.48 97.0194 130.767 97.8594 131.34C98.6994 131.9 99.3594 132.713 99.8394 133.78C100.333 134.833 100.579 136.107 100.579 137.6C100.579 139.093 100.333 140.373 99.8394 141.44C99.3594 142.493 98.6994 143.307 97.8594 143.88C97.0194 144.44 96.0594 144.72 94.9794 144.72ZM94.9794 143.4C95.806 143.4 96.526 143.18 97.1394 142.74C97.7527 142.287 98.2327 141.633 98.5794 140.78C98.926 139.913 99.0994 138.853 99.0994 137.6C99.0994 136.347 98.926 135.293 98.5794 134.44C98.2327 133.573 97.7527 132.92 97.1394 132.48C96.526 132.027 95.806 131.8 94.9794 131.8C94.1794 131.8 93.466 132.027 92.8394 132.48C92.2127 132.92 91.726 133.573 91.3794 134.44C91.0327 135.293 90.8594 136.347 90.8594 137.6C90.8594 138.853 91.0327 139.913 91.3794 140.78C91.726 141.633 92.2127 142.287 92.8394 142.74C93.466 143.18 94.1794 143.4 94.9794 143.4ZM107.062 144.72C106.062 144.72 105.108 144.56 104.202 144.24C103.295 143.907 102.575 143.467 102.042 142.92L102.742 141.78C103.182 142.247 103.782 142.633 104.542 142.94C105.315 143.247 106.148 143.4 107.042 143.4C108.228 143.4 109.128 143.14 109.742 142.62C110.368 142.087 110.682 141.393 110.682 140.54C110.682 139.94 110.535 139.427 110.242 139C109.962 138.56 109.482 138.22 108.802 137.98C108.122 137.74 107.188 137.62 106.002 137.62H103.022L103.742 130.6H111.402V131.88H104.322L105.062 131.18L104.442 137.06L103.702 136.34H106.322C107.735 136.34 108.868 136.513 109.722 136.86C110.575 137.207 111.188 137.693 111.562 138.32C111.948 138.933 112.142 139.653 112.142 140.48C112.142 141.267 111.955 141.987 111.582 142.64C111.208 143.28 110.648 143.787 109.902 144.16C109.155 144.533 108.208 144.72 107.062 144.72ZM124.784 144.72C123.704 144.72 122.744 144.44 121.904 143.88C121.064 143.307 120.404 142.493 119.924 141.44C119.444 140.373 119.204 139.093 119.204 137.6C119.204 136.107 119.444 134.833 119.924 133.78C120.404 132.713 121.064 131.9 121.904 131.34C122.744 130.767 123.704 130.48 124.784 130.48C125.864 130.48 126.824 130.767 127.664 131.34C128.504 131.9 129.164 132.713 129.644 133.78C130.137 134.833 130.384 136.107 130.384 137.6C130.384 139.093 130.137 140.373 129.644 141.44C129.164 142.493 128.504 143.307 127.664 143.88C126.824 144.44 125.864 144.72 124.784 144.72ZM124.784 143.4C125.611 143.4 126.331 143.18 126.944 142.74C127.557 142.287 128.037 141.633 128.384 140.78C128.731 139.913 128.904 138.853 128.904 137.6C128.904 136.347 128.731 135.293 128.384 134.44C128.037 133.573 127.557 132.92 126.944 132.48C126.331 132.027 125.611 131.8 124.784 131.8C123.984 131.8 123.271 132.027 122.644 132.48C122.017 132.92 121.531 133.573 121.184 134.44C120.837 135.293 120.664 136.347 120.664 137.6C120.664 138.853 120.837 139.913 121.184 140.78C121.531 141.633 122.017 142.287 122.644 142.74C123.271 143.18 123.984 143.4 124.784 143.4ZM134.75 144.6L140.79 131.24L141.23 131.88H132.57L133.31 131.18V134.5H131.89V130.6H142.17V131.62L136.31 144.6H134.75ZM144.757 136.18C144.463 136.18 144.21 136.073 143.997 135.86C143.797 135.647 143.697 135.387 143.697 135.08C143.697 134.76 143.797 134.5 143.997 134.3C144.21 134.1 144.463 134 144.757 134C145.05 134 145.297 134.1 145.497 134.3C145.71 134.5 145.817 134.76 145.817 135.08C145.817 135.387 145.71 135.647 145.497 135.86C145.297 136.073 145.05 136.18 144.757 136.18ZM144.757 144.7C144.463 144.7 144.21 144.593 143.997 144.38C143.797 144.167 143.697 143.907 143.697 143.6C143.697 143.28 143.797 143.02 143.997 142.82C144.21 142.62 144.463 142.52 144.757 142.52C145.05 142.52 145.297 142.62 145.497 142.82C145.71 143.02 145.817 143.28 145.817 143.6C145.817 143.907 145.71 144.167 145.497 144.38C145.297 144.593 145.05 144.7 144.757 144.7ZM152.335 144.72C151.335 144.72 150.382 144.56 149.475 144.24C148.568 143.907 147.848 143.467 147.315 142.92L148.015 141.78C148.455 142.247 149.055 142.633 149.815 142.94C150.588 143.247 151.422 143.4 152.315 143.4C153.502 143.4 154.402 143.14 155.015 142.62C155.642 142.087 155.955 141.393 155.955 140.54C155.955 139.94 155.808 139.427 155.515 139C155.235 138.56 154.755 138.22 154.075 137.98C153.395 137.74 152.462 137.62 151.275 137.62H148.295L149.015 130.6H156.675V131.88H149.595L150.335 131.18L149.715 137.06L148.975 136.34H151.595C153.008 136.34 154.142 136.513 154.995 136.86C155.848 137.207 156.462 137.693 156.835 138.32C157.222 138.933 157.415 139.653 157.415 140.48C157.415 141.267 157.228 141.987 156.855 142.64C156.482 143.28 155.922 143.787 155.175 144.16C154.428 144.533 153.482 144.72 152.335 144.72ZM159.003 140.92V139.88L166.423 130.6H168.023L160.663 139.88L159.883 139.64H171.143V140.92H159.003ZM166.903 144.6V140.92L166.943 139.64V136.4H168.343V144.6H166.903Z" fill="white"/>
</svg>
