<svg width="60" height="71" viewBox="0 0 60 71" fill="none" xmlns="http://www.w3.org/2000/svg">
<g clip-path="url(#clip0_3_49)">
<g clip-path="url(#clip1_3_49)">
<g clip-path="url(#clip2_3_49)">
<path fill-rule="evenodd" clip-rule="evenodd" d="M43.5674 35.8776C43.5674 35.2075 48.9431 20.3173 49.5596 18.7244L52.9558 9.24815C53.2046 8.4441 53.0055 8.52451 54.2116 8.52451C56.1031 8.52451 57.4278 9.84928 57.4278 11.7408V58.0312H43.5636V35.8737L43.5674 35.8776ZM20.9161 15.4547C20.9161 16.2932 21.5096 16.4463 22.1528 16.4463C22.9454 16.4463 23.7801 13.368 23.9946 12.717L25.4954 8.52451H50.9915L42.7442 31.7156C42.5528 32.2785 41.5842 34.8093 41.5842 35.1349V58.0312H17.8186V29.4413C18.3661 29.5868 19.0477 30.3067 20.4184 30.3067H26.9772C28.4933 30.3067 29.6995 29.0048 29.6995 27.0905C29.6995 25.7274 28.3364 24.3682 26.9772 24.3682H21.7776V21.0256C21.7776 17.6524 18.592 14.4668 15.2188 14.4668H6.5542C3.18101 14.4668 -0.00457764 17.6524 -0.00457764 21.0256V35.5062C-0.00457764 36.8693 1.35848 38.2285 2.71771 38.2285L3.95446 38.106V58.035C3.95063 59.1147 3.85872 60.0145 4.94611 60.0145C5.5434 60.0145 5.93393 59.6239 5.93393 59.0228V23.3765C5.93393 22.7792 5.5434 22.3887 4.94611 22.3887C3.62134 22.3887 3.95446 24.0235 3.95446 25.3598L3.94679 35.2536C3.75535 36.6702 1.97494 36.4519 1.97494 35.1387V21.7722C1.97494 18.6173 4.07314 16.4501 7.29702 16.4501C9.70534 16.4501 15.2036 16.1323 16.9533 16.9441C17.4893 17.1929 18.2551 17.7635 18.615 18.2535C19.7904 19.8387 19.7982 20.5202 19.7982 23.1353C19.7982 26.8416 18.8754 26.3822 25.6179 26.3515C26.0544 26.3515 27.7199 26.1677 27.7199 27.3432C27.7199 27.8332 27.1571 28.3348 26.6057 28.3348H21.0348C19.5492 28.3348 18.3623 27.4733 17.9948 26.2979C17.5429 24.8583 18.4274 22.3925 16.8231 22.3925C16.2259 22.3925 15.8353 22.7831 15.8353 23.3803V59.2756C15.8353 59.5742 16.2794 60.0183 16.5781 60.0183H58.4119C59.013 60.0183 59.4035 59.6277 59.4035 59.0267V11.1281C59.4035 8.84613 57.1062 6.54883 54.8242 6.54883H24.7488C23.7763 6.54883 23.6576 7.58262 23.401 8.2986C23.0525 9.27113 20.9085 14.9608 20.9085 15.4623L20.9161 15.4547Z" fill="#CACACA"/>
<path fill-rule="evenodd" clip-rule="evenodd" d="M23.7648 21.2701C23.7648 22.6868 25.3653 22.836 25.8285 21.4768L28.9643 12.483H44.6817L43.7972 14.941C42.5681 18.6741 40.7494 23.4142 39.4055 27.2583C39.1145 28.093 38.7968 28.9392 38.5095 29.7049C38.3373 30.1606 38.2531 30.5205 38.0692 30.9952C37.8892 31.4624 37.74 31.7955 37.6251 32.2856C36.9856 32.2856 20.5486 32.1783 20.1082 32.3431C19.1779 32.6991 19.4995 34.2651 20.2958 34.2651H38.3679C39.0073 34.2651 39.2026 33.9167 39.3787 33.4189L47.155 11.4913C47.155 10.894 46.7645 10.5034 46.1633 10.5034H28.0913C27.6088 10.5034 27.3447 11.0701 27.2068 11.4759C27.0499 11.9354 26.8852 12.3643 26.7168 12.839L23.761 21.2701H23.7648Z" fill="#CACACA"/>
<path fill-rule="evenodd" clip-rule="evenodd" d="M6.93299 6.78735C6.79132 6.05605 7.29675 4.65087 8.01274 3.90808C9.57873 2.277 11.9641 2.15831 13.5263 3.6592C15.1535 5.22519 15.276 7.61055 13.7713 9.17271C12.6915 10.2984 11.0605 10.8382 9.44855 10.2065C8.45305 9.81595 7.34653 8.68645 7.10531 7.59906L6.92915 6.78352L6.93299 6.78735ZM4.95351 6.04456C4.95351 7.91686 5.25981 9.37947 6.65733 10.777C10.4172 14.5407 16.8344 11.715 16.8344 6.78735V6.04456C16.8344 3.39119 14.0392 0.599976 11.3897 0.599976H10.3981C7.74854 0.599976 4.95351 3.39502 4.95351 6.04456Z" fill="#CACACA"/>
<path fill-rule="evenodd" clip-rule="evenodd" d="M9.90416 38.9659V59.2625C9.90416 60.2579 11.8837 60.2579 11.8837 59.2625V38.9659C11.8837 37.9703 9.90416 37.9703 9.90416 38.9659Z" fill="#CACACA"/>
<path fill-rule="evenodd" clip-rule="evenodd" d="M31.6867 37.2359C31.6867 38.53 33.1684 38.2276 34.6579 38.2276C35.9865 38.2276 35.9865 36.2481 34.6579 36.2481C33.1684 36.2481 31.6867 35.9417 31.6867 37.2359Z" fill="#CACACA"/>
<path fill-rule="evenodd" clip-rule="evenodd" d="M21.7853 37.2359C21.7853 38.53 23.2671 38.2276 24.7565 38.2276C26.0852 38.2276 26.0852 36.2481 24.7565 36.2481C23.2671 36.2481 21.7853 35.9417 21.7853 37.2359Z" fill="#CACACA"/>
</g>
</g>
</g>
<defs>
<clipPath id="clip0_3_49">
<rect width="60" height="60" fill="white" transform="translate(-0.00457764 0.599976)"/>
</clipPath>
<clipPath id="clip1_3_49">
<rect width="60" height="60" fill="white" transform="translate(-0.00457764 0.599976)"/>
</clipPath>
<clipPath id="clip2_3_49">
<rect width="60" height="60" fill="white" transform="translate(-0.00457764 0.599976)"/>
</clipPath>
</defs>
</svg>
