<svg width="61" height="71" viewBox="0 0 61 71" fill="none" xmlns="http://www.w3.org/2000/svg">
<g clip-path="url(#clip0_3_20)">
<g clip-path="url(#clip1_3_20)">
<g clip-path="url(#clip2_3_20)">
<path d="M35.8585 57.0952H34.6601V47.4888H32.6749V57.0952H30.7921V47.4888H28.8039V57.0952H20.7676V47.4888H17.9866V57.5071C17.9866 58.8139 19.0488 59.8761 20.3557 59.8761H36.2703C37.5772 59.8761 38.6395 58.8139 38.6395 57.5071V47.4888H35.8585V57.0952Z" fill="#CACACA"/>
<path d="M39.0419 5.78381H17.5839C17.0358 5.78381 16.5898 6.22667 16.5898 6.7779V17.0594C16.5898 17.6075 17.0358 18.0535 17.5839 18.0535H39.0419C39.5901 18.0535 40.0361 17.6075 40.0361 17.0594V6.7779C40.0361 6.22976 39.5901 5.78381 39.0419 5.78381ZM38.0479 16.0653H18.578V7.76889H38.0479V16.0653Z" fill="#CACACA"/>
<path d="M22.3534 20.0255H17.6895C17.1414 20.0255 16.6954 20.4684 16.6954 21.0197V24.7451C16.6954 25.2932 17.1414 25.7392 17.6895 25.7392H22.3534C22.9015 25.7392 23.3474 25.2932 23.3474 24.7451V21.0197C23.3474 20.4715 22.9015 20.0255 22.3534 20.0255ZM21.3592 23.7511H18.6836V22.0137H21.3592V23.7511Z" fill="#CACACA"/>
<path d="M30.6434 20.0255H25.9826C25.4345 20.0255 24.9886 20.4684 24.9886 21.0197V24.7451C24.9886 25.2932 25.4345 25.7392 25.9826 25.7392H30.6434C31.1915 25.7392 31.6375 25.2932 31.6375 24.7451V21.0197C31.6375 20.4715 31.1915 20.0255 30.6434 20.0255ZM29.6494 23.7511H26.9736V22.0137H29.6494V23.7511Z" fill="#CACACA"/>
<path d="M38.9366 20.0255H34.2758C33.7277 20.0255 33.2817 20.4684 33.2817 21.0197V24.7451C33.2817 25.2932 33.7277 25.7392 34.2758 25.7392H38.9366C39.4847 25.7392 39.9306 25.2932 39.9306 24.7451V21.0197C39.9306 20.4715 39.4878 20.0255 38.9366 20.0255ZM37.9425 23.7511H35.2668V22.0137H37.9425V23.7511Z" fill="#CACACA"/>
<path d="M22.3534 27.7185H17.6895C17.1414 27.7185 16.6954 28.1644 16.6954 28.7126V32.438C16.6954 32.9862 17.1414 33.4322 17.6895 33.4322H22.3534C22.9015 33.4322 23.3474 32.9893 23.3474 32.438V28.7126C23.3474 28.1644 22.9015 27.7185 22.3534 27.7185ZM21.3592 31.444H18.6836V29.7066H21.3592V31.444Z" fill="#CACACA"/>
<path d="M30.6434 27.7185H25.9826C25.4345 27.7185 24.9886 28.1644 24.9886 28.7126V32.438C24.9886 32.9862 25.4345 33.4322 25.9826 33.4322H30.6434C31.1915 33.4322 31.6375 32.9893 31.6375 32.438V28.7126C31.6375 28.1644 31.1915 27.7185 30.6434 27.7185ZM29.6494 31.444H26.9736V29.7066H29.6494V31.444Z" fill="#CACACA"/>
<path d="M38.9366 27.7185H34.2758C33.7277 27.7185 33.2817 28.1644 33.2817 28.7126V32.438C33.2817 32.9862 33.7277 33.4322 34.2758 33.4322H38.9366C39.4847 33.4322 39.9306 32.9893 39.9306 32.438V28.7126C39.9306 28.1644 39.4878 27.7185 38.9366 27.7185ZM37.9425 31.444H35.2668V29.7066H37.9425V31.444Z" fill="#CACACA"/>
<path d="M22.3534 35.4047H17.6895C17.1414 35.4047 16.6954 35.8506 16.6954 36.3987V40.1243C16.6954 40.6724 17.1414 41.1183 17.6895 41.1183H22.3534C22.9015 41.1183 23.3474 40.6755 23.3474 40.1243V36.3987C23.3474 35.8506 22.9015 35.4047 22.3534 35.4047ZM21.3592 39.1301H18.6836V37.3929H21.3592V39.1301Z" fill="#CACACA"/>
<path d="M30.6434 35.4047H25.9826C25.4345 35.4047 24.9886 35.8506 24.9886 36.3987V40.1243C24.9886 40.6724 25.4345 41.1183 25.9826 41.1183H30.6434C31.1915 41.1183 31.6375 40.6755 31.6375 40.1243V36.3987C31.6375 35.8506 31.1915 35.4047 30.6434 35.4047ZM29.6494 39.1301H26.9736V37.3929H29.6494V39.1301Z" fill="#CACACA"/>
<path d="M38.9366 35.4047H34.2758C33.7277 35.4047 33.2817 35.8506 33.2817 36.3987V40.1243C33.2817 40.6724 33.7277 41.1183 34.2758 41.1183H38.9366C39.4847 41.1183 39.9306 40.6755 39.9306 40.1243V36.3987C39.9306 35.8506 39.4878 35.4047 38.9366 35.4047ZM37.9425 39.1301H35.2668V37.3929H37.9425V39.1301Z" fill="#CACACA"/>
<path d="M45.5455 6.2672H44.7774V4.65684C44.7774 2.42092 42.9565 0.599976 40.7206 0.599976H15.9303C13.6944 0.599976 11.8735 2.42092 11.8735 4.65684V42.4383C11.8735 44.6742 13.6944 46.4952 15.9303 46.4952H40.7206C42.9565 46.4952 44.7774 44.6742 44.7774 42.4383V40.8279H45.5455C47.1496 40.8279 48.4503 39.5242 48.4503 37.9232V9.17513C48.4503 7.57097 47.1465 6.27029 45.5455 6.27029V6.2672ZM41.9934 42.4383C41.9934 43.1413 41.4205 43.7111 40.7175 43.7111H15.9272C15.2243 43.7111 14.6544 43.1382 14.6544 42.4383V4.65684C14.6544 3.95385 15.2274 3.38404 15.9272 3.38404H40.7175C41.4205 3.38404 41.9934 3.95695 41.9934 4.65684V42.4383ZM46.4652 37.9201C46.4652 38.4279 46.0534 38.8397 45.5455 38.8397H44.7743V8.25537H45.5424C46.0503 8.25537 46.4622 8.66725 46.4622 9.17513V37.9232L46.4652 37.9201Z" fill="#CACACA"/>
<path d="M21.7587 11.8391H35.0782C35.6264 11.8391 36.0724 11.3962 36.0724 10.845C36.0724 10.2969 35.6264 9.85095 35.0782 9.85095H21.7587C21.2106 9.85095 20.7647 10.2938 20.7647 10.845C20.7647 11.3931 21.2106 11.8391 21.7587 11.8391Z" fill="#CACACA"/>
</g>
</g>
</g>
<defs>
<clipPath id="clip0_3_20">
<rect width="60" height="60" fill="white" transform="translate(0.402893 0.599976)"/>
</clipPath>
<clipPath id="clip1_3_20">
<rect width="60" height="60" fill="white" transform="translate(0.402893 0.599976)"/>
</clipPath>
<clipPath id="clip2_3_20">
<rect width="37.0588" height="60" fill="white" transform="translate(11.8735 0.599976)"/>
</clipPath>
</defs>
</svg>
