<svg width="60" height="39" viewBox="0 0 60 39" fill="none" xmlns="http://www.w3.org/2000/svg">
<path d="M25.4402 15.5V4.3H30.2882C31.2909 4.3 32.1549 4.46533 32.8802 4.796C33.6055 5.116 34.1655 5.58 34.5602 6.188C34.9549 6.796 35.1522 7.52133 35.1522 8.364C35.1522 9.196 34.9549 9.916 34.5602 10.524C34.1655 11.1213 33.6055 11.58 32.8802 11.9C32.1549 12.22 31.2909 12.38 30.2882 12.38H26.8802L28.0322 11.244V15.5H25.4402ZM32.5602 15.5L29.7602 11.436H32.5282L35.3602 15.5H32.5602ZM28.0322 11.532L26.8802 10.316H30.1442C30.9442 10.316 31.5415 10.1453 31.9362 9.804C32.3309 9.452 32.5282 8.972 32.5282 8.364C32.5282 7.74533 32.3309 7.26533 31.9362 6.924C31.5415 6.58267 30.9442 6.412 30.1442 6.412H26.8802L28.0322 5.18V11.532ZM29.9943 34.692C28.405 34.692 27.1623 34.2493 26.2663 33.364C25.3703 32.4787 24.9223 31.2147 24.9223 29.572V23.3H27.5143V29.476C27.5143 30.5427 27.733 31.3107 28.1703 31.78C28.6076 32.2493 29.221 32.484 30.0103 32.484C30.7996 32.484 31.413 32.2493 31.8503 31.78C32.2876 31.3107 32.5063 30.5427 32.5063 29.476V23.3H35.0663V29.572C35.0663 31.2147 34.6183 32.4787 33.7223 33.364C32.8263 34.2493 31.5836 34.692 29.9943 34.692Z" fill="white" fill-opacity="0.3"/>
<a href="https://www.figma.com/design/kAg1QJvFO8vmfXNEFX1Lnw/Uzcard?node-id=3-2">
<rect fill="black" fill-opacity="0" x="5.67219" y="-0.252" width="11.76" height="19.504"/>
</a>
<a href="https://www.figma.com/design/kAg1QJvFO8vmfXNEFX1Lnw/Uzcard?node-id=3-2">
<rect fill="black" fill-opacity="0" x="5.25031" y="18.748" width="12.608" height="19.504"/>
</a>
</svg>
