<svg width="50" height="71" viewBox="0 0 50 71" fill="none" xmlns="http://www.w3.org/2000/svg">
<g clip-path="url(#clip0_3_551)">
<g clip-path="url(#clip1_3_551)">
<g clip-path="url(#clip2_3_551)">
<mask id="mask0_3_551" style="mask-type:luminance" maskUnits="userSpaceOnUse" x="0" y="0" width="50" height="71">
<path d="M0 0.5H50V70.5H0V0.5Z" fill="white"/>
</mask>
<g mask="url(#mask0_3_551)">
<path fill-rule="evenodd" clip-rule="evenodd" d="M48.01 30.02C48.01 38.728 46.02 45.218 42.042 49.447C38.063 53.675 31.916 55.789 23.629 55.789C15.886 55.789 10.012 53.675 6.00696 49.447C1.99996 45.219 -0.0010376 38.842 -0.0010376 30.317V1.715C-0.00024548 1.39301 0.128017 1.08443 0.355703 0.85674C0.583388 0.629055 0.891968 0.500792 1.21396 0.5L15.254 0.5C15.5758 0.501316 15.8841 0.629748 16.1116 0.85732C16.3392 1.08489 16.4676 1.39317 16.469 1.715V30.942C16.469 34.423 17.113 37.102 18.424 38.992C19.4052 40.2931 20.8043 41.2167 22.3863 41.6077C23.9683 41.9987 25.6366 41.8332 27.111 41.139C28.0883 40.6792 28.9478 40.0023 29.624 39.16C30.906 37.387 31.544 34.774 31.54 31.32V25.847H48.01V30.02Z" fill="white"/>
<path fill-rule="evenodd" clip-rule="evenodd" d="M46.738 22.65H31.542V1.773C31.5428 1.43562 31.6772 1.11229 31.9157 0.873728C32.1543 0.635166 32.4776 0.500792 32.815 0.5L35.09 0.5C35.0926 3.92345 36.4548 7.2057 38.877 9.625C41.2996 12.0451 44.5837 13.4046 48.008 13.405H48.012V22.65H46.738Z" fill="white"/>
<path fill-rule="evenodd" clip-rule="evenodd" d="M38.326 0.5H46.739C47.0763 0.501055 47.3995 0.635513 47.638 0.874018C47.8765 1.11252 48.0109 1.4357 48.012 1.773V10.193C45.4438 10.1925 42.9809 9.17222 41.1646 7.35651C39.3483 5.5408 38.3273 3.0782 38.326 0.51V0.5Z" fill="#F4821F"/>
<path fill-rule="evenodd" clip-rule="evenodd" d="M2.75699 69.68C4.61599 69.68 5.51299 68.646 5.51299 67.127V63.466H4.18299V67.09C4.18299 67.47 4.03201 67.8345 3.76327 68.1033C3.49453 68.372 3.13004 68.523 2.74999 68.523C2.36993 68.523 2.00544 68.372 1.7367 68.1033C1.46796 67.8345 1.31699 67.47 1.31699 67.09V63.466H-0.00201416V67.138C-0.00201416 68.638 0.894986 69.682 2.75399 69.682L2.75699 69.68ZM13.541 69.57V68.427H10.593L13.478 64.507V63.463H8.88999V64.607H11.775L8.88999 68.516V69.566L13.541 69.57ZM19.756 69.68C20.2791 69.6919 20.7953 69.5578 21.2464 69.2926C21.6975 69.0275 22.0659 68.6418 22.31 68.179L21.19 67.639C21.0537 67.9037 20.8477 68.1263 20.5944 68.2828C20.341 68.4392 20.0498 68.5237 19.752 68.527C19.3684 68.5076 18.9984 68.3787 18.6859 68.1554C18.3733 67.9321 18.1314 67.6238 17.9888 67.2672C17.8462 66.9106 17.8088 66.5205 17.8812 66.1433C17.9535 65.7661 18.1325 65.4175 18.397 65.139C18.752 64.766 19.237 64.543 19.752 64.518C20.0492 64.5232 20.3396 64.6082 20.5926 64.7643C20.8456 64.9204 21.052 65.1417 21.19 65.405L22.31 64.855C22.0662 64.3927 21.6976 64.008 21.2462 63.7446C20.7947 63.4812 20.2784 63.3497 19.756 63.365C19.227 63.3496 18.7026 63.4673 18.2308 63.7072C17.7591 63.9472 17.3552 64.3017 17.0561 64.7383C16.757 65.175 16.5724 65.6797 16.5191 66.2062C16.4658 66.7328 16.5455 67.2643 16.751 67.752C16.9989 68.339 17.4186 68.8373 17.9549 69.1814C18.4912 69.5255 19.1191 69.6993 19.756 69.68ZM31.116 69.57L28.763 63.466H27.133L24.77 69.57H26.254L26.638 68.536H29.258L29.633 69.57H31.116ZM28.9 67.392H26.995L27.948 64.765L28.9 67.392ZM39.894 71.102L37.654 67.247C38.0543 67.1504 38.4077 66.9158 38.652 66.5843C38.8964 66.2529 39.0161 65.8459 38.99 65.435C39.0003 65.1667 38.9537 64.8993 38.8531 64.6504C38.7526 64.4014 38.6006 64.1766 38.4069 63.9907C38.2132 63.8048 37.9824 63.662 37.7295 63.5717C37.4767 63.4814 37.2076 63.4458 36.94 63.467H34.08V69.572H35.38V67.402H36.333L38.4 71.101L39.894 71.102ZM36.747 66.259H35.383V64.612H36.743C36.8591 64.5986 36.9768 64.6098 37.0883 64.6451C37.1997 64.6803 37.3025 64.7387 37.3898 64.8165C37.4771 64.8943 37.5469 64.9896 37.5948 65.0963C37.6426 65.203 37.6673 65.3186 37.6673 65.4355C37.6673 65.5524 37.6426 65.668 37.5948 65.7747C37.5469 65.8814 37.4771 65.9767 37.3898 66.0545C37.3025 66.1322 37.1997 66.1907 37.0883 66.2259C36.9768 66.2612 36.8591 66.2724 36.743 66.259H36.747ZM44.774 69.572C46.688 69.572 48.016 68.364 48.016 66.524C48.016 64.684 46.685 63.467 44.774 63.467H42.366V69.572H44.774ZM44.774 68.428H43.666V64.612H44.774C45.03 64.5932 45.287 64.6298 45.5276 64.7192C45.7682 64.8087 45.9867 64.9489 46.1683 65.1303C46.3499 65.3117 46.4903 65.53 46.5799 65.7705C46.6696 66.011 46.7065 66.268 46.688 66.524C46.6992 66.7782 46.6572 67.0319 46.5645 67.2688C46.4719 67.5058 46.3308 67.7208 46.1502 67.9C45.9695 68.0792 45.7535 68.2186 45.5158 68.3094C45.2781 68.4001 45.0241 68.4402 44.77 68.427L44.774 68.428ZM49.595 63.35V63.366C49.595 63.5906 49.5284 63.8102 49.4036 63.997C49.2788 64.1838 49.1015 64.3294 48.8939 64.4154C48.6864 64.5014 48.4581 64.524 48.2377 64.4802C48.0174 64.4365 47.815 64.3284 47.6561 64.1696C47.4972 64.0108 47.3889 63.8085 47.3449 63.5882C47.301 63.3679 47.3233 63.1396 47.4092 62.932C47.495 62.7244 47.6404 62.5469 47.8271 62.4219C48.0138 62.297 48.2333 62.2302 48.458 62.23H49.594L49.595 63.35Z" fill="white"/>
</g>
</g>
</g>
</g>
<defs>
<clipPath id="clip0_3_551">
<rect width="50" height="70" fill="white" transform="translate(0 0.5)"/>
</clipPath>
<clipPath id="clip1_3_551">
<rect width="50" height="70" fill="white" transform="translate(0 0.5)"/>
</clipPath>
<clipPath id="clip2_3_551">
<rect width="50" height="70" fill="white" transform="translate(0 0.5)"/>
</clipPath>
</defs>
</svg>
