<svg width="26" height="35" viewBox="0 0 26 35" fill="none" xmlns="http://www.w3.org/2000/svg">
<g clip-path="url(#clip0_3_113)">
<g clip-path="url(#clip1_3_113)">
<path d="M13.0963 0.952881C6.35353 0.952881 0.875 6.36668 0.875 13.0298C0.875 25.5232 12.0818 32.7108 12.55 33.0193C12.8778 33.2352 13.3148 33.2352 13.6426 33.0193C14.1265 32.7262 25.3177 25.5232 25.3177 13.0298C25.3177 6.36668 19.8391 0.952881 13.0963 0.952881ZM13.0963 18.0735C10.2868 18.0735 8.00801 15.8216 8.00801 13.0453C8.00801 10.269 10.2868 8.01704 13.0963 8.01704C15.9058 8.01704 18.1846 10.269 18.1846 13.0453C18.1846 15.8216 15.9058 18.0735 13.0963 18.0735Z" fill="#FF6600"/>
</g>
</g>
<defs>
<clipPath id="clip0_3_113">
<rect width="25" height="34" fill="white" transform="translate(0.875 0.0700684)"/>
</clipPath>
<clipPath id="clip1_3_113">
<rect width="25" height="34" fill="white" transform="translate(0.875 0.0700684)"/>
</clipPath>
</defs>
</svg>
