<svg width="256" height="295" viewBox="0 0 256 295" fill="none" xmlns="http://www.w3.org/2000/svg">
<rect x="11.8096" y="11.6" width="232.593" height="271.47" rx="32" stroke="#1A599D" stroke-width="2"/>
<path d="M36.4076 99.6V90.416L36.6876 90.696H32.9636V89.8H40.8736V90.696H37.1636L37.4296 90.416V99.6H36.4076ZM43.616 94.182H48.796V95.064H43.616V94.182ZM43.728 98.704H49.622V99.6H42.692V89.8H49.412V90.696H43.728V98.704ZM51.9206 99.6V89.8H55.5886C56.4192 89.8 57.1332 89.9353 57.7306 90.206C58.3279 90.4673 58.7852 90.85 59.1026 91.354C59.4292 91.8486 59.5926 92.4506 59.5926 93.16C59.5926 93.8506 59.4292 94.448 59.1026 94.952C58.7852 95.4466 58.3279 95.8293 57.7306 96.1C57.1332 96.3706 56.4192 96.506 55.5886 96.506H52.4946L52.9566 96.016V99.6H51.9206ZM52.9566 96.1L52.4946 95.596H55.5606C56.5406 95.596 57.2826 95.386 57.7866 94.966C58.2999 94.5366 58.5566 93.9346 58.5566 93.16C58.5566 92.376 58.2999 91.7693 57.7866 91.34C57.2826 90.9106 56.5406 90.696 55.5606 90.696H52.4946L52.9566 90.206V96.1ZM61.7096 99.6V89.8H62.5636L67.0436 97.444H66.5956L71.0336 89.8H71.8876V99.6H70.8936V91.354H71.1316L67.0436 98.354H66.5536L62.4376 91.354H62.7036V99.6H61.7096ZM75.1901 99.6V89.8H76.2121V97.92L82.4841 89.8H83.4221V99.6H82.4001V91.494L76.1281 99.6H75.1901ZM93.8971 89.8H94.9191V99.6H93.8971V89.8ZM87.7651 99.6H86.7291V89.8H87.7651V99.6ZM93.9951 95.078H87.6531V94.168H93.9951V95.078ZM96.7852 99.6L101.265 89.8H102.287L106.767 99.6H105.675L101.559 90.402H101.979L97.8632 99.6H96.7852ZM98.5492 96.982L98.8572 96.142H104.555L104.863 96.982H98.5492ZM107.931 99.684C107.8 99.684 107.674 99.6746 107.553 99.656C107.432 99.6466 107.296 99.6233 107.147 99.586L107.231 98.662C107.39 98.6993 107.544 98.718 107.693 98.718C108.113 98.718 108.449 98.5546 108.701 98.228C108.962 97.892 109.158 97.3786 109.289 96.688C109.42 95.988 109.504 95.092 109.541 94L109.681 89.8H116.331V99.6H115.309V90.416L115.575 90.696H110.339L110.591 90.402L110.465 93.972C110.428 94.952 110.358 95.8013 110.255 96.52C110.152 97.2293 110.003 97.822 109.807 98.298C109.611 98.7646 109.359 99.1146 109.051 99.348C108.743 99.572 108.37 99.684 107.931 99.684Z" fill="white"/>
<g clip-path="url(#clip0_3_14)">
<g clip-path="url(#clip1_3_14)">
<g clip-path="url(#clip2_3_14)">
<path d="M198.858 89.0952H197.66V79.4888H195.675V89.0952H193.792V79.4888H191.804V89.0952H183.768V79.4888H180.987V89.5071C180.987 90.8139 182.049 91.8761 183.356 91.8761H199.27C200.577 91.8761 201.639 90.8139 201.639 89.5071V79.4888H198.858V89.0952Z" fill="#CACACA"/>
<path d="M202.042 37.7838H180.584C180.036 37.7838 179.59 38.2267 179.59 38.7779V49.0594C179.59 49.6075 180.036 50.0535 180.584 50.0535H202.042C202.59 50.0535 203.036 49.6075 203.036 49.0594V38.7779C203.036 38.2298 202.59 37.7838 202.042 37.7838ZM201.048 48.0653H181.578V39.7689H201.048V48.0653Z" fill="#CACACA"/>
<path d="M185.353 52.0255H180.689C180.141 52.0255 179.695 52.4684 179.695 53.0197V56.7451C179.695 57.2932 180.141 57.7392 180.689 57.7392H185.353C185.901 57.7392 186.347 57.2932 186.347 56.7451V53.0197C186.347 52.4715 185.901 52.0255 185.353 52.0255ZM184.359 55.7511H181.684V54.0137H184.359V55.7511Z" fill="#CACACA"/>
<path d="M193.643 52.0255H188.983C188.435 52.0255 187.989 52.4684 187.989 53.0197V56.7451C187.989 57.2932 188.435 57.7392 188.983 57.7392H193.643C194.192 57.7392 194.637 57.2932 194.637 56.7451V53.0197C194.637 52.4715 194.192 52.0255 193.643 52.0255ZM192.649 55.7511H189.974V54.0137H192.649V55.7511Z" fill="#CACACA"/>
<path d="M201.937 52.0255H197.276C196.728 52.0255 196.282 52.4684 196.282 53.0197V56.7451C196.282 57.2932 196.728 57.7392 197.276 57.7392H201.937C202.485 57.7392 202.931 57.2932 202.931 56.7451V53.0197C202.931 52.4715 202.488 52.0255 201.937 52.0255ZM200.943 55.7511H198.267V54.0137H200.943V55.7511Z" fill="#CACACA"/>
<path d="M185.353 59.7185H180.689C180.141 59.7185 179.695 60.1644 179.695 60.7126V64.438C179.695 64.9862 180.141 65.4322 180.689 65.4322H185.353C185.901 65.4322 186.347 64.9893 186.347 64.438V60.7126C186.347 60.1644 185.901 59.7185 185.353 59.7185ZM184.359 63.444H181.684V61.7066H184.359V63.444Z" fill="#CACACA"/>
<path d="M193.643 59.7185H188.983C188.435 59.7185 187.989 60.1644 187.989 60.7126V64.438C187.989 64.9862 188.435 65.4322 188.983 65.4322H193.643C194.192 65.4322 194.637 64.9893 194.637 64.438V60.7126C194.637 60.1644 194.192 59.7185 193.643 59.7185ZM192.649 63.444H189.974V61.7066H192.649V63.444Z" fill="#CACACA"/>
<path d="M201.937 59.7185H197.276C196.728 59.7185 196.282 60.1644 196.282 60.7126V64.438C196.282 64.9862 196.728 65.4322 197.276 65.4322H201.937C202.485 65.4322 202.931 64.9893 202.931 64.438V60.7126C202.931 60.1644 202.488 59.7185 201.937 59.7185ZM200.943 63.444H198.267V61.7066H200.943V63.444Z" fill="#CACACA"/>
<path d="M185.353 67.4047H180.689C180.141 67.4047 179.695 67.8506 179.695 68.3987V72.1243C179.695 72.6724 180.141 73.1183 180.689 73.1183H185.353C185.901 73.1183 186.347 72.6755 186.347 72.1243V68.3987C186.347 67.8506 185.901 67.4047 185.353 67.4047ZM184.359 71.1301H181.684V69.3929H184.359V71.1301Z" fill="#CACACA"/>
<path d="M193.643 67.4047H188.983C188.435 67.4047 187.989 67.8506 187.989 68.3987V72.1243C187.989 72.6724 188.435 73.1183 188.983 73.1183H193.643C194.192 73.1183 194.637 72.6755 194.637 72.1243V68.3987C194.637 67.8506 194.192 67.4047 193.643 67.4047ZM192.649 71.1301H189.974V69.3929H192.649V71.1301Z" fill="#CACACA"/>
<path d="M201.937 67.4047H197.276C196.728 67.4047 196.282 67.8506 196.282 68.3987V72.1243C196.282 72.6724 196.728 73.1183 197.276 73.1183H201.937C202.485 73.1183 202.931 72.6755 202.931 72.1243V68.3987C202.931 67.8506 202.488 67.4047 201.937 67.4047ZM200.943 71.1301H198.267V69.3929H200.943V71.1301Z" fill="#CACACA"/>
<path d="M208.545 38.2672H207.777V36.6568C207.777 34.4209 205.956 32.6 203.721 32.6H178.93C176.694 32.6 174.873 34.4209 174.873 36.6568V74.4383C174.873 76.6742 176.694 78.4952 178.93 78.4952H203.721C205.956 78.4952 207.777 76.6742 207.777 74.4383V72.8279H208.545C210.15 72.8279 211.45 71.5242 211.45 69.9232V41.1751C211.45 39.571 210.146 38.2703 208.545 38.2703V38.2672ZM204.993 74.4383C204.993 75.1413 204.42 75.7111 203.718 75.7111H178.927C178.224 75.7111 177.654 75.1382 177.654 74.4383V36.6568C177.654 35.9539 178.227 35.384 178.927 35.384H203.718C204.42 35.384 204.993 35.9569 204.993 36.6568V74.4383ZM209.465 69.9201C209.465 70.4279 209.053 70.8397 208.545 70.8397H207.774V40.2554H208.542C209.05 40.2554 209.462 40.6672 209.462 41.1751V69.9232L209.465 69.9201Z" fill="#CACACA"/>
<path d="M184.759 43.8391H198.078C198.626 43.8391 199.072 43.3962 199.072 42.845C199.072 42.2969 198.626 41.851 198.078 41.851H184.759C184.211 41.851 183.765 42.2938 183.765 42.845C183.765 43.3931 184.211 43.8391 184.759 43.8391Z" fill="#CACACA"/>
</g>
</g>
</g>
<path d="M39.8656 153.6V122.88L43.2256 126.24H33.1456V120H47.6416V153.6H39.8656ZM67.3784 154.176C64.6264 154.176 62.1624 153.504 59.9864 152.16C57.8104 150.784 56.0984 148.8 54.8504 146.208C53.6024 143.616 52.9784 140.48 52.9784 136.8C52.9784 133.12 53.6024 129.984 54.8504 127.392C56.0984 124.8 57.8104 122.832 59.9864 121.488C62.1624 120.112 64.6264 119.424 67.3784 119.424C70.1624 119.424 72.6264 120.112 74.7704 121.488C76.9464 122.832 78.6584 124.8 79.9064 127.392C81.1544 129.984 81.7784 133.12 81.7784 136.8C81.7784 140.48 81.1544 143.616 79.9064 146.208C78.6584 148.8 76.9464 150.784 74.7704 152.16C72.6264 153.504 70.1624 154.176 67.3784 154.176ZM67.3784 147.6C68.6904 147.6 69.8264 147.232 70.7864 146.496C71.7784 145.76 72.5464 144.592 73.0904 142.992C73.6664 141.392 73.9544 139.328 73.9544 136.8C73.9544 134.272 73.6664 132.208 73.0904 130.608C72.5464 129.008 71.7784 127.84 70.7864 127.104C69.8264 126.368 68.6904 126 67.3784 126C66.0984 126 64.9624 126.368 63.9704 127.104C63.0104 127.84 62.2424 129.008 61.6664 130.608C61.1224 132.208 60.8504 134.272 60.8504 136.8C60.8504 139.328 61.1224 141.392 61.6664 142.992C62.2424 144.592 63.0104 145.76 63.9704 146.496C64.9624 147.232 66.0984 147.6 67.3784 147.6ZM84.5811 153.6V148.56L97.5411 136.32C98.5651 135.392 99.3171 134.56 99.7971 133.824C100.277 133.088 100.597 132.416 100.757 131.808C100.949 131.2 101.045 130.64 101.045 130.128C101.045 128.784 100.581 127.76 99.6531 127.056C98.7571 126.32 97.4291 125.952 95.6691 125.952C94.2611 125.952 92.9491 126.224 91.7331 126.768C90.5491 127.312 89.5411 128.16 88.7091 129.312L83.0451 125.664C84.3251 123.744 86.1171 122.224 88.4211 121.104C90.7251 119.984 93.3811 119.424 96.3891 119.424C98.8851 119.424 101.061 119.84 102.917 120.672C104.805 121.472 106.261 122.608 107.285 124.08C108.341 125.552 108.869 127.312 108.869 129.36C108.869 130.448 108.725 131.536 108.437 132.624C108.181 133.68 107.637 134.8 106.805 135.984C106.005 137.168 104.821 138.496 103.253 139.968L92.5011 150.096L91.0131 147.264H109.973V153.6H84.5811ZM117.866 153.6V122.88L121.226 126.24H111.146V120H125.642V153.6H117.866Z" fill="white"/>
<g clip-path="url(#clip3_3_14)">
<g clip-path="url(#clip4_3_14)">
<g clip-path="url(#clip5_3_14)">
<path d="M65.8248 214.704C53.8835 206.057 41.2903 205.267 36.4863 205.954C23.1041 205.954 -6.74939 208.018 -14.47 211.041C-22.1907 214.063 -23.2201 221.85 -28.8819 238.32C-34.5437 254.791 -40.2054 271.262 -41.7496 299.056C-43.2937 326.85 -38.6613 310.894 -18.5876 314.497C1.48607 318.1 147.149 322.733 207.37 321.703C267.591 320.674 258.841 256.85 253.694 238.32C249.576 223.497 230.017 211.942 220.752 208.018C212.517 201.327 173.399 200.298 152.296 209.562C131.193 218.827 133.252 210.588 109.575 205.954C85.8985 201.319 80.7514 225.513 65.8248 214.704Z" fill="url(#paint0_linear_3_14)" stroke="white" stroke-width="3.08826"/>
</g>
</g>
</g>
<defs>
<linearGradient id="paint0_linear_3_14" x1="110.09" y1="153.393" x2="109.575" y2="260.453" gradientUnits="userSpaceOnUse">
<stop stop-color="#CACACA"/>
<stop offset="1" stop-color="#B3B3B3" stop-opacity="0"/>
</linearGradient>
<clipPath id="clip0_3_14">
<rect width="60" height="60" fill="white" transform="translate(163.403 32.6)"/>
</clipPath>
<clipPath id="clip1_3_14">
<rect width="60" height="60" fill="white" transform="translate(163.403 32.6)"/>
</clipPath>
<clipPath id="clip2_3_14">
<rect width="37.0588" height="60" fill="white" transform="translate(174.873 32.6)"/>
</clipPath>
<clipPath id="clip3_3_14">
<rect width="230.593" height="86.47" fill="white" transform="translate(12.8096 195.6)"/>
</clipPath>
<clipPath id="clip4_3_14">
<rect width="230.59" height="86.47" fill="white" transform="translate(12.8096 195.6)"/>
</clipPath>
<clipPath id="clip5_3_14">
<rect width="230.59" height="76.1771" fill="white" transform="translate(12.8096 200.746)"/>
</clipPath>
</defs>
</svg>
