<svg width="63" height="49" viewBox="0 0 63 49" fill="none" xmlns="http://www.w3.org/2000/svg">
<path d="M56.1666 25.4787C55.4436 25.4787 54.861 26.0613 54.861 26.7843V42.0763C54.861 44.4875 52.8464 46.3758 50.2772 46.3758H7.09671C4.58022 46.3758 2.61124 44.4875 2.61124 42.0763V11.7345C2.61124 9.22855 4.62585 7.18938 7.09671 7.18938H37.8C38.523 7.18938 39.1057 6.60676 39.1057 5.88375C39.1057 5.16074 38.523 4.57812 37.8 4.57812H7.09671C3.18334 4.57812 0 7.78955 0 11.738V42.0799C0 45.9581 3.11665 48.9941 7.09671 48.9941H50.2772C54.2433 48.9941 57.4757 45.8915 57.4757 42.0799V26.7879C57.4757 26.0648 56.8896 25.4822 56.1701 25.4822L56.1666 25.4787Z" fill="#CACACA"/>
<path d="M7.83691 32.0088V39.846C7.83691 40.569 8.41952 41.1517 9.14253 41.1517C9.86554 41.1517 10.4482 40.569 10.4482 39.846V32.0088C10.4482 31.2857 9.86203 30.7031 9.14253 30.7031C8.41952 30.7031 7.83691 31.2857 7.83691 32.0088Z" fill="#CACACA"/>
<path d="M47.0233 39.846V32.0088C47.0233 31.2857 46.4372 30.7031 45.7177 30.7031C44.9947 30.7031 44.4121 31.2857 44.4121 32.0088V39.846C44.4121 40.569 44.9947 41.1517 45.7177 41.1517C46.4407 41.1517 47.0233 40.569 47.0233 39.846Z" fill="#CACACA"/>
<path d="M28.7344 16.3291V39.8409C28.7344 40.5639 29.3206 41.1465 30.0401 41.1465C30.7631 41.1465 31.3457 40.5639 31.3457 39.8409V16.3291C31.3457 15.6061 30.7631 15.0234 30.0401 15.0234C29.3171 15.0234 28.7344 15.6061 28.7344 16.3291Z" fill="#CACACA"/>
<path d="M13.0635 26.7822V39.8455C13.0635 40.5685 13.6461 41.1511 14.3691 41.1511C15.0921 41.1511 15.6747 40.5685 15.6747 39.8455V26.7822C15.6747 26.0592 15.0886 25.4766 14.3691 25.4766C13.6496 25.4766 13.0635 26.0592 13.0635 26.7822Z" fill="#CACACA"/>
<path d="M23.5117 26.7822V39.8455C23.5117 40.5685 24.0978 41.1511 24.8173 41.1511C25.5403 41.1511 26.123 40.5685 26.123 39.8455V26.7822C26.123 26.0592 25.5403 25.4766 24.8173 25.4766C24.0943 25.4766 23.5117 26.0592 23.5117 26.7822Z" fill="#CACACA"/>
<path d="M40.4921 41.1511C41.2152 41.1511 41.7978 40.5685 41.7978 39.8455V26.7822C41.7978 26.0592 41.2152 25.4766 40.4921 25.4766C39.7691 25.4766 39.1865 26.0592 39.1865 26.7822V39.8455C39.1865 40.5685 39.7726 41.1511 40.4921 41.1511Z" fill="#CACACA"/>
<path d="M33.9604 29.3916V39.8401C33.9604 40.5631 34.5466 41.1457 35.2661 41.1457C35.9891 41.1457 36.5717 40.5631 36.5717 39.8401V29.3916C36.5717 28.6686 35.9891 28.0859 35.2661 28.0859C34.5431 28.0859 33.9604 28.6686 33.9604 29.3916Z" fill="#CACACA"/>
<path d="M18.2861 21.5556V39.8414C18.2861 40.5645 18.8687 41.1471 19.5918 41.1471C20.3148 41.1471 20.8974 40.5645 20.8974 39.8414V21.5556C20.8974 20.8326 20.3113 20.25 19.5918 20.25C18.8687 20.25 18.2861 20.8326 18.2861 21.5556Z" fill="#CACACA"/>
<path d="M51.1055 0C44.9669 0 39.9761 4.99438 39.9761 11.1329C39.9761 17.2715 44.9704 22.2694 51.1055 22.2694C57.2476 22.2694 62.242 17.275 62.242 11.1329C62.242 4.99438 57.2476 0 51.1055 0ZM51.1055 19.6546C46.4094 19.6546 42.5874 15.8325 42.5874 11.1329C42.5874 6.43338 46.4094 2.61126 51.1055 2.61126C55.8051 2.61126 59.6307 6.43338 59.6307 11.1329C59.6307 15.8325 55.8086 19.6546 51.1055 19.6546Z" fill="#CACACA"/>
<path d="M51.8674 6.26538C51.6287 6.02671 51.3058 5.88281 50.9408 5.88281C50.5793 5.88281 50.2529 6.03022 50.0178 6.26538L45.8973 10.3893C45.3884 10.8983 45.3884 11.7266 45.8973 12.2355C46.4062 12.7444 47.2345 12.7444 47.7434 12.2355L49.6352 10.3437V15.0292C49.6352 15.7522 50.2213 16.3349 50.9408 16.3349C51.6638 16.3349 52.2464 15.7522 52.2464 15.0292V10.3437L54.1382 12.2355C54.3944 12.4917 54.7278 12.618 55.0612 12.618C55.3947 12.618 55.7281 12.4917 55.9843 12.2355C56.4933 11.7266 56.4933 10.8983 55.9843 10.3893L51.8639 6.26538H51.8674Z" fill="#CACACA"/>
</svg>
