<svg width="30" height="31" viewBox="0 0 30 31" fill="none" xmlns="http://www.w3.org/2000/svg">
<path d="M24.488 19.3172L22.002 16.8312C21.339 16.1682 20.18 16.1672 19.516 16.8312L19.102 17.2462L24.074 22.2172L24.488 21.8032C24.6515 21.6401 24.7812 21.4463 24.8696 21.233C24.9581 21.0197 25.0037 20.7911 25.0037 20.5602C25.0037 20.3293 24.9581 20.1006 24.8696 19.8873C24.7812 19.674 24.6515 19.4803 24.488 19.3172ZM18.244 18.0502C17.721 18.4552 16.974 18.4402 16.497 17.9602L11.582 13.0432C11.103 12.5632 11.087 11.8172 11.492 11.2952L6.53202 6.33517C4.39802 8.82317 4.48202 12.5712 6.83702 14.9252L14.614 22.7052C15.74 23.8363 17.2538 24.4972 18.8488 24.5538C20.4438 24.6104 22.0007 24.0586 23.204 23.0102L18.244 18.0502ZM12.71 7.54417L10.225 5.05817C9.56202 4.39517 8.40302 4.39417 7.73902 5.05817L7.32402 5.47317L12.296 10.4442L12.711 10.0302C13.399 9.34217 13.397 8.23017 12.711 7.54417H12.71Z" fill="white"/>
</svg>
