<svg width="20" height="21" viewBox="0 0 20 21" fill="none" xmlns="http://www.w3.org/2000/svg">
<g clip-path="url(#clip0_3_577)">
<g clip-path="url(#clip1_3_577)">
<g clip-path="url(#clip2_3_577)">
<path d="M19.07 15.3312L17 13.2112C16.5547 12.7879 15.9931 12.5075 15.3872 12.4059C14.7813 12.3043 14.1589 12.3863 13.6 12.6412L12.7 11.7412C13.7605 10.3241 14.2449 8.55784 14.0555 6.798C13.8662 5.03816 13.0172 3.41539 11.6794 2.25636C10.3417 1.09734 8.61452 0.488119 6.84565 0.551347C5.07678 0.614574 3.39754 1.34555 2.14596 2.59713C0.894381 3.84871 0.163402 5.52796 0.100175 7.29683C0.036947 9.0657 0.646165 10.7928 1.80519 12.1306C2.96421 13.4683 4.58699 14.3173 6.34683 14.5067C8.10667 14.6961 9.87291 14.2117 11.29 13.1512L12.18 14.0412C11.8951 14.6008 11.793 15.2357 11.8881 15.8565C11.9831 16.4772 12.2706 17.0525 12.71 17.5012L14.83 19.6212C15.3925 20.183 16.155 20.4985 16.95 20.4985C17.745 20.4985 18.5075 20.183 19.07 19.6212C19.3557 19.3418 19.5828 19.0081 19.7378 18.6398C19.8928 18.2714 19.9726 17.8758 19.9726 17.4762C19.9726 17.0765 19.8928 16.6809 19.7378 16.3126C19.5828 15.9442 19.3557 15.6106 19.07 15.3312ZM10.59 11.0912C9.89023 11.7892 8.99929 12.2641 8.02973 12.456C7.06017 12.6479 6.05549 12.5482 5.14259 12.1693C4.2297 11.7905 3.44955 11.1497 2.9007 10.3277C2.35185 9.50573 2.05893 8.53953 2.05893 7.55116C2.05893 6.56279 2.35185 5.5966 2.9007 4.77462C3.44955 3.95265 4.2297 3.31178 5.14259 2.93297C6.05549 2.55417 7.06017 2.45441 8.02973 2.64631C8.99929 2.83822 9.89023 3.31316 10.59 4.01116C11.0556 4.47562 11.4251 5.02737 11.6771 5.63483C11.9292 6.24228 12.0589 6.89349 12.0589 7.55116C12.0589 8.20884 11.9292 8.86005 11.6771 9.4675C11.4251 10.0749 11.0556 10.6267 10.59 11.0912ZM17.66 18.1612C17.567 18.2549 17.4564 18.3293 17.3346 18.3801C17.2127 18.4308 17.082 18.457 16.95 18.457C16.818 18.457 16.6873 18.4308 16.5654 18.3801C16.4436 18.3293 16.333 18.2549 16.24 18.1612L14.12 16.0412C14.0263 15.9482 13.9519 15.8376 13.9011 15.7157C13.8503 15.5939 13.8242 15.4632 13.8242 15.3312C13.8242 15.1992 13.8503 15.0684 13.9011 14.9466C13.9519 14.8247 14.0263 14.7141 14.12 14.6212C14.213 14.5274 14.3236 14.453 14.4454 14.4023C14.5673 14.3515 14.698 14.3254 14.83 14.3254C14.962 14.3254 15.0927 14.3515 15.2146 14.4023C15.3364 14.453 15.447 14.5274 15.54 14.6212L17.66 16.7412C17.7537 16.8341 17.8281 16.9447 17.8789 17.0666C17.9297 17.1884 17.9558 17.3192 17.9558 17.4512C17.9558 17.5832 17.9297 17.7139 17.8789 17.8357C17.8281 17.9576 17.7537 18.0682 17.66 18.1612Z" fill="white"/>
</g>
</g>
</g>
<defs>
<clipPath id="clip0_3_577">
<rect width="20" height="20" fill="white" transform="translate(0 0.5)"/>
</clipPath>
<clipPath id="clip1_3_577">
<rect width="20" height="20" fill="white" transform="translate(0 0.5)"/>
</clipPath>
<clipPath id="clip2_3_577">
<rect width="20" height="20" fill="white" transform="translate(0 0.5)"/>
</clipPath>
</defs>
</svg>
