<svg width="1920" height="1201" viewBox="0 0 1920 1201" fill="none" xmlns="http://www.w3.org/2000/svg">
<rect width="1920" height="1200" transform="translate(0 0.5)" fill="url(#paint0_radial_3_596)"/>
<path fill-rule="evenodd" clip-rule="evenodd" d="M1016.19 616.579C1016.19 637.549 1011.37 653.175 1001.75 663.357C992.12 673.539 977.244 678.628 957.189 678.628C938.452 678.628 924.236 673.538 914.543 663.357C904.849 653.177 900.003 637.823 900.004 617.296V548.426C900.006 547.651 900.317 546.908 900.868 546.36C901.418 545.812 902.165 545.503 902.944 545.5H936.919C937.699 545.502 938.446 545.811 938.997 546.359C939.548 546.908 939.859 547.651 939.861 548.426V618.801C939.861 627.183 941.42 633.633 944.593 638.184C946.167 640.26 948.197 641.951 950.529 643.129C952.86 644.306 955.431 644.938 958.045 644.977C960.66 645.016 963.249 644.461 965.614 643.354C967.98 642.247 970.061 640.617 971.697 638.589C974.798 634.319 976.344 628.026 976.334 619.711V606.532H1016.19V616.579Z" fill="white"/>
<path fill-rule="evenodd" clip-rule="evenodd" d="M1013.11 598.834H976.338V548.564C976.34 547.752 976.665 546.974 977.243 546.4C977.82 545.826 978.602 545.502 979.419 545.5H984.923C984.929 553.743 988.225 561.646 994.088 567.473C999.95 573.299 1007.9 576.572 1016.19 576.572H1016.2V598.834H1013.11Z" fill="white"/>
<path fill-rule="evenodd" clip-rule="evenodd" d="M992.756 545.5H1013.11C1013.93 545.502 1014.71 545.826 1015.29 546.4C1015.87 546.974 1016.19 547.752 1016.2 548.564V568.838C1009.98 568.838 1004.02 566.381 999.621 562.009C995.225 557.638 992.756 551.708 992.756 545.525V545.5Z" fill="#F4821F"/>
<path fill-rule="evenodd" clip-rule="evenodd" d="M1023 696.836V696.872C1023 697.413 1022.84 697.943 1022.54 698.393C1022.23 698.843 1021.81 699.195 1021.3 699.402C1020.8 699.609 1020.25 699.664 1019.71 699.558C1019.18 699.453 1018.69 699.192 1018.3 698.81C1017.92 698.427 1017.65 697.939 1017.55 697.408C1017.44 696.877 1017.5 696.327 1017.71 695.826C1017.91 695.326 1018.27 694.899 1018.72 694.598C1019.17 694.297 1019.7 694.136 1020.25 694.136H1023L1023 696.836Z" fill="white"/>
<path fill-rule="evenodd" clip-rule="evenodd" d="M906.677 712.077C911.175 712.077 913.347 709.585 913.347 705.928V697.113H910.127V705.84C910.127 706.755 909.762 707.633 909.112 708.279C908.461 708.926 907.579 709.29 906.659 709.29C905.739 709.29 904.857 708.926 904.207 708.279C903.557 707.633 903.191 706.755 903.191 705.84V697.113H900V705.955C900 709.569 902.171 712.082 906.67 712.082L906.677 712.077ZM932.775 711.812V709.058H925.64L932.621 699.619V697.106H921.519V699.862H928.499L921.519 709.272V711.8L932.775 711.812ZM947.814 712.077C949.08 712.106 950.33 711.783 951.422 711.144C952.514 710.506 953.406 709.576 953.996 708.461L951.284 707.162C950.954 707.799 950.456 708.334 949.843 708.711C949.23 709.088 948.526 709.291 947.805 709.299C946.56 709.238 945.385 708.702 944.526 707.804C943.666 706.906 943.187 705.713 943.187 704.473C943.187 703.232 943.666 702.039 944.526 701.141C945.385 700.243 946.56 699.707 947.805 699.646C948.525 699.659 949.227 699.864 949.84 700.24C950.452 700.616 950.951 701.149 951.284 701.783L953.996 700.46C953.406 699.346 952.514 698.419 951.421 697.784C950.329 697.15 949.079 696.832 947.814 696.868C946.791 696.838 945.772 697.012 944.818 697.381C943.864 697.749 942.993 698.304 942.259 699.013C941.525 699.722 940.941 700.571 940.542 701.508C940.143 702.446 939.938 703.454 939.938 704.472C939.938 705.49 940.143 706.497 940.542 707.435C940.941 708.372 941.525 709.221 942.259 709.93C942.993 710.639 943.864 711.194 944.818 711.563C945.772 711.931 946.791 712.105 947.814 712.075V712.077ZM975.305 711.812L969.611 697.113H965.667L959.949 711.812H963.539L964.469 709.321H970.807L971.715 711.812H975.305ZM969.943 706.567H965.333L967.638 700.241L969.943 706.567ZM996.549 715.5L991.126 706.218C992.095 705.985 992.951 705.42 993.543 704.622C994.135 703.824 994.425 702.844 994.361 701.854C994.386 701.208 994.273 700.564 994.03 699.965C993.786 699.366 993.418 698.824 992.949 698.377C992.48 697.929 991.921 697.585 991.309 697.368C990.697 697.151 990.045 697.065 989.398 697.116H982.482V711.815H985.629V706.59H987.933L992.936 715.496L996.549 715.5ZM988.932 703.838H985.63V699.872H988.921C989.201 699.843 989.483 699.872 989.751 699.958C990.018 700.045 990.264 700.186 990.473 700.373C990.681 700.56 990.848 700.789 990.963 701.044C991.077 701.299 991.136 701.575 991.136 701.855C991.136 702.134 991.077 702.411 990.963 702.666C990.848 702.921 990.681 703.15 990.473 703.337C990.264 703.524 990.018 703.665 989.751 703.751C989.483 703.838 989.201 703.867 988.921 703.838H988.932ZM1008.36 711.815C1012.99 711.815 1016.2 708.906 1016.2 704.477C1016.2 700.047 1012.98 697.116 1008.36 697.116H1002.53V711.815H1008.36ZM1008.36 709.061H1005.68V699.872H1008.36C1008.98 699.826 1009.6 699.914 1010.18 700.13C1010.77 700.345 1011.29 700.683 1011.73 701.12C1012.17 701.557 1012.51 702.083 1012.73 702.662C1012.95 703.241 1013.03 703.86 1012.99 704.477C1013.01 705.088 1012.91 705.698 1012.69 706.268C1012.46 706.838 1012.12 707.355 1011.69 707.786C1011.25 708.217 1010.73 708.553 1010.15 708.772C1009.58 708.991 1008.96 709.088 1008.35 709.058L1008.36 709.061Z" fill="white"/>
<defs>
<radialGradient id="paint0_radial_3_596" cx="0" cy="0" r="1" gradientUnits="userSpaceOnUse" gradientTransform="translate(960 98.4) scale(1641.41 1124.64)">
<stop stop-color="#1F4A99"/>
<stop offset="1" stop-color="#0B2557"/>
</radialGradient>
</defs>
</svg>
