<svg width="61" height="61" viewBox="0 0 61 61" fill="none" xmlns="http://www.w3.org/2000/svg">
<g clip-path="url(#clip0_3_72)">
<g clip-path="url(#clip1_3_72)">
<g clip-path="url(#clip2_3_72)">
<path d="M31.8197 41.3363C31.8197 42.1825 31.1343 42.8716 30.2843 42.8716C29.4343 42.8716 28.749 42.1825 28.749 41.3363C28.749 40.4863 29.4343 39.8009 30.2843 39.8009C31.1343 39.8009 31.8197 40.4901 31.8197 41.3363ZM54.8692 10.43H45.0061L43.6048 8.09443V3.25862C43.6048 2.98678 43.4975 2.72642 43.3062 2.53498C43.1147 2.34353 42.8543 2.23633 42.5825 2.23633H18.0014C17.4347 2.23633 16.9753 2.69579 16.9753 3.25862V8.09443L15.574 10.43H5.71089C4.35548 10.43 3.04987 10.9699 2.08884 11.9309C1.1278 12.8919 0.587921 14.1938 0.587921 15.5529V41.1602C0.587921 42.5155 1.1278 43.8211 2.08884 44.7822C3.04987 45.7432 4.35166 46.2831 5.71089 46.2831H23.1244V52.4284H14.9306C14.364 52.4284 13.9085 52.8878 13.9085 53.4545V57.5513C13.9085 57.8232 14.0156 58.0836 14.207 58.275C14.3985 58.4665 14.6588 58.5736 14.9306 58.5736H45.6608C45.9326 58.5736 46.1931 58.4665 46.3845 58.275C46.576 58.0836 46.6831 57.8232 46.6831 57.5513V53.4545C46.6831 53.1827 46.576 52.9223 46.3845 52.7308C46.1931 52.5395 45.9326 52.4322 45.6608 52.4322H37.4672V46.2869H54.8806C56.2361 46.2869 57.5417 45.7471 58.5028 44.786C59.4637 43.8251 60.0036 42.5232 60.0036 41.164V15.5568C60.0036 14.2014 59.4637 12.8958 58.5028 11.9347C57.5417 10.9737 56.2399 10.4338 54.8806 10.4338L54.8692 10.43ZM54.8692 12.4784C55.6847 12.4784 56.4658 12.8039 57.0401 13.3782C57.6144 13.9525 57.9398 14.7374 57.9398 15.5491V36.0372H45.6493V19.9638C46.3156 18.9606 46.6716 17.7813 46.6716 16.5752C46.6716 12.6507 46.7941 13.5007 46.2313 12.4784H54.8653H54.8692ZM33.3588 36.0372H27.2135V26.8173H33.3588V36.0372ZM34.3849 24.7689H26.1912C25.6246 24.7689 25.1689 25.2284 25.1689 25.7951V36.0372H16.9753V21.8897C18.3307 22.6708 19.9312 22.9082 21.455 22.5521C22.9788 22.1921 24.3074 21.2694 25.1728 19.9676C26.3099 21.6829 28.232 22.7167 30.2958 22.7167C32.3556 22.7167 34.2777 21.6829 35.4187 19.9676C36.284 21.2732 37.6126 22.196 39.1365 22.5521C40.6604 22.9082 42.2609 22.6746 43.6162 21.8897V36.0372H35.4225V25.7951C35.4225 25.5232 35.3154 25.2629 35.1239 25.0715C34.9325 24.88 34.6722 24.7728 34.4003 24.7728L34.3849 24.7689ZM44.6271 16.5752C44.6271 18.0379 43.846 19.3895 42.5787 20.1246C41.3113 20.8559 39.7492 20.8559 38.4817 20.1246C37.2144 19.3933 36.4333 18.0417 36.4333 16.5752V14.5268H44.6271V16.5752ZM34.3849 16.5752C34.3849 18.0379 33.6038 19.3895 32.3365 20.1246C31.0692 20.8559 29.507 20.8559 28.2396 20.1246C26.9723 19.3933 26.1912 18.0417 26.1912 16.5752V14.5268H34.3849V16.5752ZM33.5465 9.40388L34.159 12.4746H26.4133L27.026 9.40388H33.5426H33.5465ZM24.1428 16.5752C24.1428 18.0379 23.3617 19.3895 22.0944 20.1246C20.8271 20.8559 19.2649 20.8559 17.9975 20.1246C16.7302 19.3933 15.9491 18.0417 15.9491 16.5752V14.5268H24.1428V16.5752ZM36.2535 12.4784L35.6408 9.40771H42.0005L43.8421 12.4784H36.2535ZM19.0237 4.28475H41.5602V7.35546H19.0237V4.28475ZM18.5833 9.40771H24.943L24.3305 12.4784H16.7418L18.5833 9.40771ZM2.63633 15.5529C2.63633 14.7374 2.96182 13.9564 3.53615 13.382C4.11047 12.8077 4.89534 12.4823 5.70706 12.4823H14.3411L14.0424 12.9838C13.8165 13.3514 13.9199 13.7534 13.8969 16.5791C13.8969 17.7852 14.253 18.9644 14.9192 19.9676V36.041H2.62866V15.5529H2.63633ZM44.6347 56.5252H15.9529V54.4768H44.6347V56.5252ZM35.4149 52.4284H25.1728V46.2831H35.4149V52.4284ZM54.8768 44.2347H5.70706C4.89151 44.2347 4.11047 43.9093 3.53615 43.3349C2.96182 42.7605 2.63633 41.9756 2.63633 41.164V38.0894H57.9514V41.164C57.9514 41.9796 57.6259 42.7605 57.0515 43.3349C56.4773 43.9093 55.6924 44.2347 54.8806 44.2347H54.8768Z" fill="#CACACA"/>
</g>
</g>
</g>
<defs>
<clipPath id="clip0_3_72">
<rect width="60" height="60" fill="white" transform="translate(0.587921 0.599976)"/>
</clipPath>
<clipPath id="clip1_3_72">
<rect width="60" height="60" fill="white" transform="translate(0.587921 0.599976)"/>
</clipPath>
<clipPath id="clip2_3_72">
<rect width="60" height="56.7273" fill="white" transform="translate(0.587921 2.23633)"/>
</clipPath>
</defs>
</svg>
