<svg width="231" height="88" viewBox="0 0 231 88" fill="none" xmlns="http://www.w3.org/2000/svg">
<path d="M26.9885 6.21496C21.2402 1.87821 7.60963 2.40022 1.51291 3.20333L-4.66374 14.6489C-5.86463 20.9463 -8.57526 34.5812 -9.81054 38.742C-11.3547 43.943 -8.78114 99.9376 -8.26644 101.482C-7.85467 102.717 11.1207 116.065 20.5568 122.584C47.9586 123.957 103.924 126.702 108.571 126.702C114.38 126.702 176.576 127.217 176.576 126.702C176.576 126.29 213.592 109.717 232.099 101.482L245.481 63.3937L232.099 4.40933C229.487 8.02329 205.317 46.5723 198.786 54.4026C192.253 62.2327 183.761 51.9932 176.576 44.7653C169.391 37.5373 169.39 37.5373 162.205 38.742C155.019 39.9466 139.995 23.0815 136.076 17.6605C132.157 12.2396 111.907 10.4326 102.762 5.61399C93.6169 0.795362 92.3105 19.4676 85.7783 26.0931C79.2461 32.7188 70.101 23.0815 64.8753 17.6605C59.6495 12.2396 58.343 12.2396 49.198 14.6489C40.0528 17.0582 34.1739 11.6359 26.9885 6.21496Z" fill="url(#paint0_linear_3_81)" stroke="white" stroke-width="3.08821"/>
<defs>
<linearGradient id="paint0_linear_3_81" x1="117.835" y1="-9.17934" x2="117.835" y2="68.026" gradientUnits="userSpaceOnUse">
<stop stop-color="#CACACA"/>
<stop offset="1" stop-color="#CECECE" stop-opacity="0"/>
</linearGradient>
</defs>
</svg>
