<svg width="232" height="76" viewBox="0 0 232 76" fill="none" xmlns="http://www.w3.org/2000/svg">
<path d="M53.8248 13.7037C41.8835 5.05664 29.2903 4.26741 24.4863 4.9537C11.1041 4.9537 -18.7494 7.01829 -26.47 10.0407C-34.1907 13.063 -35.2201 20.8496 -40.8819 37.3203C-46.5437 53.791 -52.2054 70.2617 -53.7496 98.056C-55.2937 125.85 -50.6613 109.894 -30.5876 113.497C-10.5139 117.1 135.149 121.733 195.37 120.703C255.591 119.674 246.841 55.8498 241.694 37.3203C237.576 22.4966 218.017 10.9424 208.752 7.01829C200.517 0.327067 161.399 -0.702353 140.296 8.56242C119.193 17.8272 121.252 9.58838 97.5751 4.9537C73.8985 0.31901 68.7514 24.5127 53.8248 13.7037Z" fill="url(#paint0_linear_3_42)" stroke="white" stroke-width="3.08826"/>
<defs>
<linearGradient id="paint0_linear_3_42" x1="98.0897" y1="-47.6068" x2="97.575" y2="59.4528" gradientUnits="userSpaceOnUse">
<stop stop-color="#CACACA"/>
<stop offset="1" stop-color="#B3B3B3" stop-opacity="0"/>
</linearGradient>
</defs>
</svg>
