<svg width="231" height="80" viewBox="0 0 231 80" fill="none" xmlns="http://www.w3.org/2000/svg">
<path d="M25.5417 7.96966C20.3405 1.99663 3.86979 1.86088 -3.71541 2.53963C-13.6665 12.741 -34.2892 36.3349 -37.1715 49.0997C-40.7745 65.0557 -30.995 91.3059 -26.8773 105.203C-22.7597 119.1 -10.4066 114.983 2.97581 124.762C16.3583 134.542 54.9615 156.159 63.1969 157.703C71.4322 159.248 69.3734 157.703 105.403 159.248C134.227 160.483 205.257 162.508 237.169 163.365L242.316 105.203L247.463 60.938L230.992 5.25187C212.788 -0.856911 198.484 7.96966 185.481 15.4331C172.478 22.8966 162.725 -1.53567 146.472 6.60938C130.217 14.7545 115.264 11.3607 108.762 6.60938C102.261 1.8581 95.1089 1.17934 93.1584 6.60938C91.2079 12.0394 80.8054 28.3295 73.6536 29.0082C66.5018 29.687 55.4492 10.6819 50.2478 14.0757C45.0466 17.4694 32.0433 15.4359 25.5417 7.96966Z" fill="url(#paint0_linear_3_64)" stroke="white" stroke-width="3.08826"/>
<defs>
<linearGradient id="paint0_linear_3_64" x1="104.373" y1="-37.8863" x2="104.373" y2="54.7615" gradientUnits="userSpaceOnUse">
<stop stop-color="#CACACA"/>
<stop offset="1" stop-color="#D5D5D5" stop-opacity="0"/>
</linearGradient>
</defs>
</svg>
